<svg width="170" height="20" viewBox="0 0 170 20" fill="none" xmlns="http://www.w3.org/2000/svg">
<mask id="path-1-outside-1_69_922" maskUnits="userSpaceOnUse" x="0" y="0" width="170" height="20" fill="black">
<rect fill="white" width="170" height="20"/>
<path d="M63.3025 3.34C64.3688 3.02243 65.2107 2.17513 65.5269 1.10061C65.5666 0.966465 65.7568 0.966465 65.7965 1.10061C66.1127 2.1765 66.9532 3.0238 68.0208 3.34C68.155 3.37969 68.155 3.56995 68.0208 3.60965C66.9545 3.92722 66.1127 4.77452 65.7965 5.84905C65.7568 5.98319 65.5666 5.98319 65.5269 5.84905C65.212 4.77315 64.3702 3.92585 63.3025 3.60965C63.1684 3.56995 63.1684 3.37969 63.3025 3.34Z"/>
<path d="M13.1503 3.34C14.2166 3.02244 15.0585 2.17514 15.3747 1.10061C15.4144 0.966469 15.6046 0.966469 15.6443 1.10061C15.9605 2.17651 16.801 3.0238 17.8687 3.34C18.0028 3.3797 18.0028 3.56996 17.8687 3.60965C16.8023 3.92722 15.9605 4.77453 15.6443 5.84905C15.6046 5.98319 15.4144 5.9832 15.3747 5.84905C15.0598 4.77316 14.218 3.92585 13.1503 3.60965C13.0162 3.56996 13.0162 3.3797 13.1503 3.34Z"/>
<path d="M5.81893 3.60966C4.75262 3.92722 3.91079 4.77453 3.59459 5.84905C3.5549 5.9832 3.36464 5.9832 3.32494 5.84905C3.00874 4.77316 2.16829 3.92585 1.10061 3.60966C0.966464 3.56996 0.966464 3.3797 1.10061 3.34C2.16692 3.02244 3.00874 2.17514 3.32494 1.10061C3.36464 0.96647 3.5549 0.96647 3.59459 1.10061C3.91079 2.17651 4.75125 3.0238 5.81893 3.34C5.95307 3.3797 5.95307 3.56996 5.81893 3.60966Z"/>
<path d="M38.2271 3.63847C39.2934 3.32091 40.1352 2.47361 40.4514 1.39908C40.4911 1.26494 40.6814 1.26494 40.7211 1.39908C41.0373 2.47498 41.8778 3.32227 42.9454 3.63847C43.0796 3.67817 43.0796 3.86843 42.9454 3.90812C41.8791 4.22569 41.0373 5.073 40.7211 6.14752C40.6814 6.28167 40.4911 6.28167 40.4514 6.14752C40.1366 5.073 39.2948 4.22432 38.2271 3.90813C38.093 3.86843 38.093 3.67817 38.2271 3.63847Z"/>
<path d="M75.8409 3.34C76.9072 3.02243 77.749 2.17513 78.0639 1.10061C78.1035 0.966464 78.2938 0.966464 78.3335 1.10061C78.6483 2.1765 79.4902 3.0238 80.5565 3.34C80.6906 3.37969 80.6906 3.56995 80.5565 3.60965C79.4902 3.92722 78.6483 4.77452 78.3335 5.84904C78.2938 5.98319 78.1035 5.98319 78.0639 5.84904C77.749 4.77315 76.9072 3.92585 75.8409 3.60965C75.7067 3.56995 75.7067 3.37969 75.8409 3.34Z"/>
<path d="M25.6887 3.34C26.755 3.02243 27.5969 2.17514 27.9117 1.10061C27.9514 0.966468 28.1416 0.966468 28.1813 1.10061C28.4962 2.17651 29.338 3.0238 30.4043 3.34C30.5385 3.3797 30.5385 3.56996 30.4043 3.60965C29.338 3.92722 28.4962 4.77453 28.1813 5.84905C28.1416 5.98319 27.9514 5.98319 27.9117 5.84905C27.5955 4.77316 26.755 3.92585 25.6887 3.60965C25.5546 3.56996 25.5546 3.3797 25.6887 3.34Z"/>
<path d="M50.7655 3.63847C51.8318 3.3209 52.6736 2.47361 52.9885 1.39908C53.0282 1.26494 53.2184 1.26494 53.2581 1.39908C53.5743 2.47498 54.4148 3.32227 55.4811 3.63847C55.6152 3.67817 55.6152 3.86843 55.4811 3.90812C54.4148 4.22569 53.5729 5.073 53.2581 6.14752C53.2184 6.28166 53.0282 6.28166 52.9885 6.14752C52.6736 5.073 51.8318 4.22432 50.7655 3.90812C50.6314 3.86843 50.6314 3.67817 50.7655 3.63847Z"/>
<path d="M63.3025 16.092C64.3688 15.7744 65.2107 14.9271 65.5269 13.8526C65.5666 13.7185 65.7568 13.7185 65.7965 13.8526C66.1127 14.9271 66.9532 15.7758 68.0208 16.092C68.155 16.1317 68.155 16.322 68.0208 16.3616C66.9545 16.6792 66.1127 17.5265 65.7965 18.601C65.7568 18.7352 65.5666 18.7352 65.5269 18.601C65.212 17.5251 64.3702 16.6778 63.3025 16.3617C63.1684 16.322 63.1684 16.1317 63.3025 16.092Z"/>
<path d="M13.1503 16.092C14.2166 15.7744 15.0585 14.9271 15.3747 13.8526C15.4144 13.7185 15.6046 13.7185 15.6443 13.8526C15.9605 14.9271 16.801 15.7758 17.8687 16.092C18.0028 16.1317 18.0028 16.322 17.8687 16.3617C16.8023 16.6792 15.9605 17.5265 15.6443 18.601C15.6046 18.7352 15.4144 18.7352 15.3747 18.601C15.0598 17.5251 14.218 16.6779 13.1503 16.3617C13.0162 16.322 13.0162 16.1317 13.1503 16.092Z"/>
<path d="M1.10197 16.092C2.16828 15.7744 3.0101 14.9271 3.3263 13.8526C3.366 13.7185 3.55626 13.7185 3.59595 13.8526C3.91215 14.9271 4.75261 15.7758 5.82029 16.092C5.95443 16.1317 5.95443 16.322 5.82029 16.3617C4.75397 16.6792 3.91215 17.5265 3.59595 18.601C3.55626 18.7352 3.366 18.7352 3.3263 18.601C3.0101 17.5251 2.16965 16.6779 1.10197 16.3617C0.967823 16.322 0.967823 16.1317 1.10197 16.092Z"/>
<path d="M38.2271 16.3904C39.2934 16.0728 40.1352 15.2255 40.4514 14.151C40.4911 14.0168 40.6814 14.0168 40.7211 14.151C41.0373 15.2269 41.8778 16.0742 42.9454 16.3904C43.0796 16.4301 43.0796 16.6203 42.9454 16.66C41.8791 16.9776 41.0373 17.8249 40.7211 18.8994C40.6814 19.0336 40.4911 19.0336 40.4514 18.8994C40.1366 17.8235 39.2948 16.9762 38.2271 16.66C38.093 16.6203 38.093 16.4301 38.2271 16.3904Z"/>
<path d="M75.8409 16.092C76.9072 15.7744 77.749 14.9271 78.0639 13.8526C78.1036 13.7185 78.2938 13.7185 78.3335 13.8526C78.6483 14.9271 79.4902 15.7758 80.5565 16.092C80.6906 16.1317 80.6906 16.322 80.5565 16.3616C79.4902 16.6792 78.6483 17.5265 78.3335 18.601C78.2938 18.7352 78.1036 18.7352 78.0639 18.601C77.749 17.5251 76.9072 16.6778 75.8409 16.3616C75.7068 16.322 75.7068 16.1317 75.8409 16.092Z"/>
<path d="M25.6887 16.092C26.755 15.7744 27.5969 14.9271 27.9117 13.8526C27.9514 13.7185 28.1416 13.7185 28.1813 13.8526C28.4962 14.9271 29.338 15.7758 30.4043 16.092C30.5385 16.1317 30.5385 16.322 30.4043 16.3617C29.338 16.6792 28.4962 17.5265 28.1813 18.601C28.1416 18.7352 27.9514 18.7352 27.9117 18.601C27.5955 17.5251 26.755 16.6779 25.6887 16.3617C25.5546 16.322 25.5546 16.1317 25.6887 16.092Z"/>
<path d="M50.7655 16.3904C51.8318 16.0728 52.6736 15.2255 52.9885 14.151C53.0282 14.0168 53.2184 14.0168 53.2581 14.151C53.5743 15.2269 54.4148 16.0742 55.4811 16.3904C55.6152 16.4301 55.6152 16.6203 55.4811 16.66C54.4148 16.9776 53.5729 17.8249 53.2581 18.8994C53.2184 19.0336 53.0282 19.0336 52.9885 18.8994C52.6736 17.8235 51.8318 16.9762 50.7655 16.66C50.6314 16.6203 50.6314 16.4301 50.7655 16.3904Z"/>
<path d="M151.303 3.34C152.369 3.02243 153.211 2.17513 153.527 1.10061C153.567 0.966465 153.757 0.966465 153.797 1.10061C154.113 2.1765 154.953 3.0238 156.021 3.34C156.155 3.37969 156.155 3.56995 156.021 3.60965C154.955 3.92722 154.113 4.77452 153.797 5.84905C153.757 5.98319 153.567 5.98319 153.527 5.84905C153.212 4.77315 152.37 3.92585 151.303 3.60965C151.168 3.56995 151.168 3.37969 151.303 3.34Z"/>
<path d="M101.15 3.34C102.217 3.02244 103.058 2.17514 103.375 1.10061C103.414 0.966469 103.605 0.966469 103.644 1.10061C103.961 2.17651 104.801 3.0238 105.869 3.34C106.003 3.3797 106.003 3.56996 105.869 3.60965C104.802 3.92722 103.961 4.77453 103.644 5.84905C103.605 5.98319 103.414 5.9832 103.375 5.84905C103.06 4.77316 102.218 3.92585 101.15 3.60965C101.016 3.56996 101.016 3.3797 101.15 3.34Z"/>
<path d="M93.8189 3.60966C92.7526 3.92722 91.9108 4.77453 91.5946 5.84905C91.5549 5.9832 91.3646 5.9832 91.3249 5.84905C91.0087 4.77316 90.1683 3.92585 89.1006 3.60966C88.9665 3.56996 88.9665 3.3797 89.1006 3.34C90.1669 3.02244 91.0087 2.17514 91.3249 1.10061C91.3646 0.96647 91.5549 0.96647 91.5946 1.10061C91.9108 2.17651 92.7512 3.0238 93.8189 3.34C93.9531 3.3797 93.9531 3.56996 93.8189 3.60966Z"/>
<path d="M126.227 3.63847C127.293 3.32091 128.135 2.47361 128.451 1.39908C128.491 1.26494 128.681 1.26494 128.721 1.39908C129.037 2.47498 129.878 3.32227 130.945 3.63847C131.08 3.67817 131.08 3.86843 130.945 3.90812C129.879 4.22569 129.037 5.073 128.721 6.14752C128.681 6.28167 128.491 6.28167 128.451 6.14752C128.137 5.073 127.295 4.22432 126.227 3.90813C126.093 3.86843 126.093 3.67817 126.227 3.63847Z"/>
<path d="M163.841 3.34C164.907 3.02243 165.749 2.17513 166.064 1.10061C166.104 0.966464 166.294 0.966464 166.334 1.10061C166.648 2.1765 167.49 3.0238 168.556 3.34C168.691 3.37969 168.691 3.56995 168.556 3.60965C167.49 3.92722 166.648 4.77452 166.334 5.84904C166.294 5.98319 166.104 5.98319 166.064 5.84904C165.749 4.77315 164.907 3.92585 163.841 3.60965C163.707 3.56995 163.707 3.37969 163.841 3.34Z"/>
<path d="M113.689 3.34C114.755 3.02243 115.597 2.17514 115.912 1.10061C115.951 0.966468 116.142 0.966468 116.181 1.10061C116.496 2.17651 117.338 3.0238 118.404 3.34C118.538 3.3797 118.538 3.56996 118.404 3.60965C117.338 3.92722 116.496 4.77453 116.181 5.84905C116.142 5.98319 115.951 5.98319 115.912 5.84905C115.595 4.77316 114.755 3.92585 113.689 3.60965C113.555 3.56996 113.555 3.3797 113.689 3.34Z"/>
<path d="M138.766 3.63847C139.832 3.3209 140.674 2.47361 140.988 1.39908C141.028 1.26494 141.218 1.26494 141.258 1.39908C141.574 2.47498 142.415 3.32227 143.481 3.63847C143.615 3.67817 143.615 3.86843 143.481 3.90812C142.415 4.22569 141.573 5.073 141.258 6.14752C141.218 6.28166 141.028 6.28166 140.988 6.14752C140.674 5.073 139.832 4.22432 138.766 3.90812C138.631 3.86843 138.631 3.67817 138.766 3.63847Z"/>
<path d="M151.303 16.092C152.369 15.7744 153.211 14.9271 153.527 13.8526C153.567 13.7185 153.757 13.7185 153.797 13.8526C154.113 14.9271 154.953 15.7758 156.021 16.092C156.155 16.1317 156.155 16.322 156.021 16.3616C154.955 16.6792 154.113 17.5265 153.797 18.601C153.757 18.7352 153.567 18.7352 153.527 18.601C153.212 17.5251 152.37 16.6778 151.303 16.3617C151.168 16.322 151.168 16.1317 151.303 16.092Z"/>
<path d="M101.15 16.092C102.217 15.7744 103.058 14.9271 103.375 13.8526C103.414 13.7185 103.605 13.7185 103.644 13.8526C103.961 14.9271 104.801 15.7758 105.869 16.092C106.003 16.1317 106.003 16.322 105.869 16.3617C104.802 16.6792 103.961 17.5265 103.644 18.601C103.605 18.7352 103.414 18.7352 103.375 18.601C103.06 17.5251 102.218 16.6779 101.15 16.3617C101.016 16.322 101.016 16.1317 101.15 16.092Z"/>
<path d="M89.102 16.092C90.1683 15.7744 91.0101 14.9271 91.3263 13.8526C91.366 13.7185 91.5563 13.7185 91.596 13.8526C91.9122 14.9271 92.7526 15.7758 93.8203 16.092C93.9544 16.1317 93.9544 16.322 93.8203 16.3617C92.754 16.6792 91.9122 17.5265 91.596 18.601C91.5563 18.7352 91.366 18.7352 91.3263 18.601C91.0101 17.5251 90.1696 16.6779 89.102 16.3617C88.9678 16.322 88.9678 16.1317 89.102 16.092Z"/>
<path d="M126.227 16.3904C127.293 16.0728 128.135 15.2255 128.451 14.151C128.491 14.0168 128.681 14.0168 128.721 14.151C129.037 15.2269 129.878 16.0742 130.945 16.3904C131.08 16.4301 131.08 16.6203 130.945 16.66C129.879 16.9776 129.037 17.8249 128.721 18.8994C128.681 19.0336 128.491 19.0336 128.451 18.8994C128.137 17.8235 127.295 16.9762 126.227 16.66C126.093 16.6203 126.093 16.4301 126.227 16.3904Z"/>
<path d="M163.841 16.092C164.907 15.7744 165.749 14.9271 166.064 13.8526C166.104 13.7185 166.294 13.7185 166.334 13.8526C166.648 14.9271 167.49 15.7758 168.556 16.092C168.691 16.1317 168.691 16.322 168.556 16.3616C167.49 16.6792 166.648 17.5265 166.334 18.601C166.294 18.7352 166.104 18.7352 166.064 18.601C165.749 17.5251 164.907 16.6778 163.841 16.3616C163.707 16.322 163.707 16.1317 163.841 16.092Z"/>
<path d="M113.689 16.092C114.755 15.7744 115.597 14.9271 115.912 13.8526C115.951 13.7185 116.142 13.7185 116.181 13.8526C116.496 14.9271 117.338 15.7758 118.404 16.092C118.538 16.1317 118.538 16.322 118.404 16.3617C117.338 16.6792 116.496 17.5265 116.181 18.601C116.142 18.7352 115.951 18.7352 115.912 18.601C115.595 17.5251 114.755 16.6779 113.689 16.3617C113.555 16.322 113.555 16.1317 113.689 16.092Z"/>
<path d="M138.766 16.3904C139.832 16.0728 140.674 15.2255 140.988 14.151C141.028 14.0168 141.218 14.0168 141.258 14.151C141.574 15.2269 142.415 16.0742 143.481 16.3904C143.615 16.4301 143.615 16.6203 143.481 16.66C142.415 16.9776 141.573 17.8249 141.258 18.8994C141.218 19.0336 141.028 19.0336 140.988 18.8994C140.674 17.8235 139.832 16.9762 138.766 16.66C138.631 16.6203 138.631 16.4301 138.766 16.3904Z"/>
</mask>
<path d="M63.3025 3.34C64.3688 3.02243 65.2107 2.17513 65.5269 1.10061C65.5666 0.966465 65.7568 0.966465 65.7965 1.10061C66.1127 2.1765 66.9532 3.0238 68.0208 3.34C68.155 3.37969 68.155 3.56995 68.0208 3.60965C66.9545 3.92722 66.1127 4.77452 65.7965 5.84905C65.7568 5.98319 65.5666 5.98319 65.5269 5.84905C65.212 4.77315 64.3702 3.92585 63.3025 3.60965C63.1684 3.56995 63.1684 3.37969 63.3025 3.34Z" fill="#FFA234"/>
<path d="M13.1503 3.34C14.2166 3.02244 15.0585 2.17514 15.3747 1.10061C15.4144 0.966469 15.6046 0.966469 15.6443 1.10061C15.9605 2.17651 16.801 3.0238 17.8687 3.34C18.0028 3.3797 18.0028 3.56996 17.8687 3.60965C16.8023 3.92722 15.9605 4.77453 15.6443 5.84905C15.6046 5.98319 15.4144 5.9832 15.3747 5.84905C15.0598 4.77316 14.218 3.92585 13.1503 3.60965C13.0162 3.56996 13.0162 3.3797 13.1503 3.34Z" fill="#FFA234"/>
<path d="M5.81893 3.60966C4.75262 3.92722 3.91079 4.77453 3.59459 5.84905C3.5549 5.9832 3.36464 5.9832 3.32494 5.84905C3.00874 4.77316 2.16829 3.92585 1.10061 3.60966C0.966464 3.56996 0.966464 3.3797 1.10061 3.34C2.16692 3.02244 3.00874 2.17514 3.32494 1.10061C3.36464 0.96647 3.5549 0.96647 3.59459 1.10061C3.91079 2.17651 4.75125 3.0238 5.81893 3.34C5.95307 3.3797 5.95307 3.56996 5.81893 3.60966Z" fill="#FFA234"/>
<path d="M38.2271 3.63847C39.2934 3.32091 40.1352 2.47361 40.4514 1.39908C40.4911 1.26494 40.6814 1.26494 40.7211 1.39908C41.0373 2.47498 41.8778 3.32227 42.9454 3.63847C43.0796 3.67817 43.0796 3.86843 42.9454 3.90812C41.8791 4.22569 41.0373 5.073 40.7211 6.14752C40.6814 6.28167 40.4911 6.28167 40.4514 6.14752C40.1366 5.073 39.2948 4.22432 38.2271 3.90813C38.093 3.86843 38.093 3.67817 38.2271 3.63847Z" fill="#FFA234"/>
<path d="M75.8409 3.34C76.9072 3.02243 77.749 2.17513 78.0639 1.10061C78.1035 0.966464 78.2938 0.966464 78.3335 1.10061C78.6483 2.1765 79.4902 3.0238 80.5565 3.34C80.6906 3.37969 80.6906 3.56995 80.5565 3.60965C79.4902 3.92722 78.6483 4.77452 78.3335 5.84904C78.2938 5.98319 78.1035 5.98319 78.0639 5.84904C77.749 4.77315 76.9072 3.92585 75.8409 3.60965C75.7067 3.56995 75.7067 3.37969 75.8409 3.34Z" fill="#FFA234"/>
<path d="M25.6887 3.34C26.755 3.02243 27.5969 2.17514 27.9117 1.10061C27.9514 0.966468 28.1416 0.966468 28.1813 1.10061C28.4962 2.17651 29.338 3.0238 30.4043 3.34C30.5385 3.3797 30.5385 3.56996 30.4043 3.60965C29.338 3.92722 28.4962 4.77453 28.1813 5.84905C28.1416 5.98319 27.9514 5.98319 27.9117 5.84905C27.5955 4.77316 26.755 3.92585 25.6887 3.60965C25.5546 3.56996 25.5546 3.3797 25.6887 3.34Z" fill="#FFA234"/>
<path d="M50.7655 3.63847C51.8318 3.3209 52.6736 2.47361 52.9885 1.39908C53.0282 1.26494 53.2184 1.26494 53.2581 1.39908C53.5743 2.47498 54.4148 3.32227 55.4811 3.63847C55.6152 3.67817 55.6152 3.86843 55.4811 3.90812C54.4148 4.22569 53.5729 5.073 53.2581 6.14752C53.2184 6.28166 53.0282 6.28166 52.9885 6.14752C52.6736 5.073 51.8318 4.22432 50.7655 3.90812C50.6314 3.86843 50.6314 3.67817 50.7655 3.63847Z" fill="#FFA234"/>
<path d="M63.3025 16.092C64.3688 15.7744 65.2107 14.9271 65.5269 13.8526C65.5666 13.7185 65.7568 13.7185 65.7965 13.8526C66.1127 14.9271 66.9532 15.7758 68.0208 16.092C68.155 16.1317 68.155 16.322 68.0208 16.3616C66.9545 16.6792 66.1127 17.5265 65.7965 18.601C65.7568 18.7352 65.5666 18.7352 65.5269 18.601C65.212 17.5251 64.3702 16.6778 63.3025 16.3617C63.1684 16.322 63.1684 16.1317 63.3025 16.092Z" fill="#FFA234"/>
<path d="M13.1503 16.092C14.2166 15.7744 15.0585 14.9271 15.3747 13.8526C15.4144 13.7185 15.6046 13.7185 15.6443 13.8526C15.9605 14.9271 16.801 15.7758 17.8687 16.092C18.0028 16.1317 18.0028 16.322 17.8687 16.3617C16.8023 16.6792 15.9605 17.5265 15.6443 18.601C15.6046 18.7352 15.4144 18.7352 15.3747 18.601C15.0598 17.5251 14.218 16.6779 13.1503 16.3617C13.0162 16.322 13.0162 16.1317 13.1503 16.092Z" fill="#FFA234"/>
<path d="M1.10197 16.092C2.16828 15.7744 3.0101 14.9271 3.3263 13.8526C3.366 13.7185 3.55626 13.7185 3.59595 13.8526C3.91215 14.9271 4.75261 15.7758 5.82029 16.092C5.95443 16.1317 5.95443 16.322 5.82029 16.3617C4.75397 16.6792 3.91215 17.5265 3.59595 18.601C3.55626 18.7352 3.366 18.7352 3.3263 18.601C3.0101 17.5251 2.16965 16.6779 1.10197 16.3617C0.967823 16.322 0.967823 16.1317 1.10197 16.092Z" fill="#FFA234"/>
<path d="M38.2271 16.3904C39.2934 16.0728 40.1352 15.2255 40.4514 14.151C40.4911 14.0168 40.6814 14.0168 40.7211 14.151C41.0373 15.2269 41.8778 16.0742 42.9454 16.3904C43.0796 16.4301 43.0796 16.6203 42.9454 16.66C41.8791 16.9776 41.0373 17.8249 40.7211 18.8994C40.6814 19.0336 40.4911 19.0336 40.4514 18.8994C40.1366 17.8235 39.2948 16.9762 38.2271 16.66C38.093 16.6203 38.093 16.4301 38.2271 16.3904Z" fill="#FFA234"/>
<path d="M75.8409 16.092C76.9072 15.7744 77.749 14.9271 78.0639 13.8526C78.1036 13.7185 78.2938 13.7185 78.3335 13.8526C78.6483 14.9271 79.4902 15.7758 80.5565 16.092C80.6906 16.1317 80.6906 16.322 80.5565 16.3616C79.4902 16.6792 78.6483 17.5265 78.3335 18.601C78.2938 18.7352 78.1036 18.7352 78.0639 18.601C77.749 17.5251 76.9072 16.6778 75.8409 16.3616C75.7068 16.322 75.7068 16.1317 75.8409 16.092Z" fill="#FFA234"/>
<path d="M25.6887 16.092C26.755 15.7744 27.5969 14.9271 27.9117 13.8526C27.9514 13.7185 28.1416 13.7185 28.1813 13.8526C28.4962 14.9271 29.338 15.7758 30.4043 16.092C30.5385 16.1317 30.5385 16.322 30.4043 16.3617C29.338 16.6792 28.4962 17.5265 28.1813 18.601C28.1416 18.7352 27.9514 18.7352 27.9117 18.601C27.5955 17.5251 26.755 16.6779 25.6887 16.3617C25.5546 16.322 25.5546 16.1317 25.6887 16.092Z" fill="#FFA234"/>
<path d="M50.7655 16.3904C51.8318 16.0728 52.6736 15.2255 52.9885 14.151C53.0282 14.0168 53.2184 14.0168 53.2581 14.151C53.5743 15.2269 54.4148 16.0742 55.4811 16.3904C55.6152 16.4301 55.6152 16.6203 55.4811 16.66C54.4148 16.9776 53.5729 17.8249 53.2581 18.8994C53.2184 19.0336 53.0282 19.0336 52.9885 18.8994C52.6736 17.8235 51.8318 16.9762 50.7655 16.66C50.6314 16.6203 50.6314 16.4301 50.7655 16.3904Z" fill="#FFA234"/>
<path d="M151.303 3.34C152.369 3.02243 153.211 2.17513 153.527 1.10061C153.567 0.966465 153.757 0.966465 153.797 1.10061C154.113 2.1765 154.953 3.0238 156.021 3.34C156.155 3.37969 156.155 3.56995 156.021 3.60965C154.955 3.92722 154.113 4.77452 153.797 5.84905C153.757 5.98319 153.567 5.98319 153.527 5.84905C153.212 4.77315 152.37 3.92585 151.303 3.60965C151.168 3.56995 151.168 3.37969 151.303 3.34Z" fill="#FFA234"/>
<path d="M101.15 3.34C102.217 3.02244 103.058 2.17514 103.375 1.10061C103.414 0.966469 103.605 0.966469 103.644 1.10061C103.961 2.17651 104.801 3.0238 105.869 3.34C106.003 3.3797 106.003 3.56996 105.869 3.60965C104.802 3.92722 103.961 4.77453 103.644 5.84905C103.605 5.98319 103.414 5.9832 103.375 5.84905C103.06 4.77316 102.218 3.92585 101.15 3.60965C101.016 3.56996 101.016 3.3797 101.15 3.34Z" fill="#FFA234"/>
<path d="M93.8189 3.60966C92.7526 3.92722 91.9108 4.77453 91.5946 5.84905C91.5549 5.9832 91.3646 5.9832 91.3249 5.84905C91.0087 4.77316 90.1683 3.92585 89.1006 3.60966C88.9665 3.56996 88.9665 3.3797 89.1006 3.34C90.1669 3.02244 91.0087 2.17514 91.3249 1.10061C91.3646 0.96647 91.5549 0.96647 91.5946 1.10061C91.9108 2.17651 92.7512 3.0238 93.8189 3.34C93.9531 3.3797 93.9531 3.56996 93.8189 3.60966Z" fill="#FFA234"/>
<path d="M126.227 3.63847C127.293 3.32091 128.135 2.47361 128.451 1.39908C128.491 1.26494 128.681 1.26494 128.721 1.39908C129.037 2.47498 129.878 3.32227 130.945 3.63847C131.08 3.67817 131.08 3.86843 130.945 3.90812C129.879 4.22569 129.037 5.073 128.721 6.14752C128.681 6.28167 128.491 6.28167 128.451 6.14752C128.137 5.073 127.295 4.22432 126.227 3.90813C126.093 3.86843 126.093 3.67817 126.227 3.63847Z" fill="#FFA234"/>
<path d="M163.841 3.34C164.907 3.02243 165.749 2.17513 166.064 1.10061C166.104 0.966464 166.294 0.966464 166.334 1.10061C166.648 2.1765 167.49 3.0238 168.556 3.34C168.691 3.37969 168.691 3.56995 168.556 3.60965C167.49 3.92722 166.648 4.77452 166.334 5.84904C166.294 5.98319 166.104 5.98319 166.064 5.84904C165.749 4.77315 164.907 3.92585 163.841 3.60965C163.707 3.56995 163.707 3.37969 163.841 3.34Z" fill="#FFA234"/>
<path d="M113.689 3.34C114.755 3.02243 115.597 2.17514 115.912 1.10061C115.951 0.966468 116.142 0.966468 116.181 1.10061C116.496 2.17651 117.338 3.0238 118.404 3.34C118.538 3.3797 118.538 3.56996 118.404 3.60965C117.338 3.92722 116.496 4.77453 116.181 5.84905C116.142 5.98319 115.951 5.98319 115.912 5.84905C115.595 4.77316 114.755 3.92585 113.689 3.60965C113.555 3.56996 113.555 3.3797 113.689 3.34Z" fill="#FFA234"/>
<path d="M138.766 3.63847C139.832 3.3209 140.674 2.47361 140.988 1.39908C141.028 1.26494 141.218 1.26494 141.258 1.39908C141.574 2.47498 142.415 3.32227 143.481 3.63847C143.615 3.67817 143.615 3.86843 143.481 3.90812C142.415 4.22569 141.573 5.073 141.258 6.14752C141.218 6.28166 141.028 6.28166 140.988 6.14752C140.674 5.073 139.832 4.22432 138.766 3.90812C138.631 3.86843 138.631 3.67817 138.766 3.63847Z" fill="#FFA234"/>
<path d="M151.303 16.092C152.369 15.7744 153.211 14.9271 153.527 13.8526C153.567 13.7185 153.757 13.7185 153.797 13.8526C154.113 14.9271 154.953 15.7758 156.021 16.092C156.155 16.1317 156.155 16.322 156.021 16.3616C154.955 16.6792 154.113 17.5265 153.797 18.601C153.757 18.7352 153.567 18.7352 153.527 18.601C153.212 17.5251 152.37 16.6778 151.303 16.3617C151.168 16.322 151.168 16.1317 151.303 16.092Z" fill="#FFA234"/>
<path d="M101.15 16.092C102.217 15.7744 103.058 14.9271 103.375 13.8526C103.414 13.7185 103.605 13.7185 103.644 13.8526C103.961 14.9271 104.801 15.7758 105.869 16.092C106.003 16.1317 106.003 16.322 105.869 16.3617C104.802 16.6792 103.961 17.5265 103.644 18.601C103.605 18.7352 103.414 18.7352 103.375 18.601C103.06 17.5251 102.218 16.6779 101.15 16.3617C101.016 16.322 101.016 16.1317 101.15 16.092Z" fill="#FFA234"/>
<path d="M89.102 16.092C90.1683 15.7744 91.0101 14.9271 91.3263 13.8526C91.366 13.7185 91.5563 13.7185 91.596 13.8526C91.9122 14.9271 92.7526 15.7758 93.8203 16.092C93.9544 16.1317 93.9544 16.322 93.8203 16.3617C92.754 16.6792 91.9122 17.5265 91.596 18.601C91.5563 18.7352 91.366 18.7352 91.3263 18.601C91.0101 17.5251 90.1696 16.6779 89.102 16.3617C88.9678 16.322 88.9678 16.1317 89.102 16.092Z" fill="#FFA234"/>
<path d="M126.227 16.3904C127.293 16.0728 128.135 15.2255 128.451 14.151C128.491 14.0168 128.681 14.0168 128.721 14.151C129.037 15.2269 129.878 16.0742 130.945 16.3904C131.08 16.4301 131.08 16.6203 130.945 16.66C129.879 16.9776 129.037 17.8249 128.721 18.8994C128.681 19.0336 128.491 19.0336 128.451 18.8994C128.137 17.8235 127.295 16.9762 126.227 16.66C126.093 16.6203 126.093 16.4301 126.227 16.3904Z" fill="#FFA234"/>
<path d="M163.841 16.092C164.907 15.7744 165.749 14.9271 166.064 13.8526C166.104 13.7185 166.294 13.7185 166.334 13.8526C166.648 14.9271 167.49 15.7758 168.556 16.092C168.691 16.1317 168.691 16.322 168.556 16.3616C167.49 16.6792 166.648 17.5265 166.334 18.601C166.294 18.7352 166.104 18.7352 166.064 18.601C165.749 17.5251 164.907 16.6778 163.841 16.3616C163.707 16.322 163.707 16.1317 163.841 16.092Z" fill="#FFA234"/>
<path d="M113.689 16.092C114.755 15.7744 115.597 14.9271 115.912 13.8526C115.951 13.7185 116.142 13.7185 116.181 13.8526C116.496 14.9271 117.338 15.7758 118.404 16.092C118.538 16.1317 118.538 16.322 118.404 16.3617C117.338 16.6792 116.496 17.5265 116.181 18.601C116.142 18.7352 115.951 18.7352 115.912 18.601C115.595 17.5251 114.755 16.6779 113.689 16.3617C113.555 16.322 113.555 16.1317 113.689 16.092Z" fill="#FFA234"/>
<path d="M138.766 16.3904C139.832 16.0728 140.674 15.2255 140.988 14.151C141.028 14.0168 141.218 14.0168 141.258 14.151C141.574 15.2269 142.415 16.0742 143.481 16.3904C143.615 16.4301 143.615 16.6203 143.481 16.66C142.415 16.9776 141.573 17.8249 141.258 18.8994C141.218 19.0336 141.028 19.0336 140.988 18.8994C140.674 17.8235 139.832 16.9762 138.766 16.66C138.631 16.6203 138.631 16.4301 138.766 16.3904Z" fill="#FFA234"/>
<path d="M63.3025 3.34C64.3688 3.02243 65.2107 2.17513 65.5269 1.10061C65.5666 0.966465 65.7568 0.966465 65.7965 1.10061C66.1127 2.1765 66.9532 3.0238 68.0208 3.34C68.155 3.37969 68.155 3.56995 68.0208 3.60965C66.9545 3.92722 66.1127 4.77452 65.7965 5.84905C65.7568 5.98319 65.5666 5.98319 65.5269 5.84905C65.212 4.77315 64.3702 3.92585 63.3025 3.60965C63.1684 3.56995 63.1684 3.37969 63.3025 3.34Z" stroke="#FFA234" stroke-width="2" stroke-miterlimit="16" mask="url(#path-1-outside-1_69_922)"/>
<path d="M13.1503 3.34C14.2166 3.02244 15.0585 2.17514 15.3747 1.10061C15.4144 0.966469 15.6046 0.966469 15.6443 1.10061C15.9605 2.17651 16.801 3.0238 17.8687 3.34C18.0028 3.3797 18.0028 3.56996 17.8687 3.60965C16.8023 3.92722 15.9605 4.77453 15.6443 5.84905C15.6046 5.98319 15.4144 5.9832 15.3747 5.84905C15.0598 4.77316 14.218 3.92585 13.1503 3.60965C13.0162 3.56996 13.0162 3.3797 13.1503 3.34Z" stroke="#FFA234" stroke-width="2" stroke-miterlimit="16" mask="url(#path-1-outside-1_69_922)"/>
<path d="M5.81893 3.60966C4.75262 3.92722 3.91079 4.77453 3.59459 5.84905C3.5549 5.9832 3.36464 5.9832 3.32494 5.84905C3.00874 4.77316 2.16829 3.92585 1.10061 3.60966C0.966464 3.56996 0.966464 3.3797 1.10061 3.34C2.16692 3.02244 3.00874 2.17514 3.32494 1.10061C3.36464 0.96647 3.5549 0.96647 3.59459 1.10061C3.91079 2.17651 4.75125 3.0238 5.81893 3.34C5.95307 3.3797 5.95307 3.56996 5.81893 3.60966Z" stroke="#FFA234" stroke-width="2" stroke-miterlimit="16" mask="url(#path-1-outside-1_69_922)"/>
<path d="M38.2271 3.63847C39.2934 3.32091 40.1352 2.47361 40.4514 1.39908C40.4911 1.26494 40.6814 1.26494 40.7211 1.39908C41.0373 2.47498 41.8778 3.32227 42.9454 3.63847C43.0796 3.67817 43.0796 3.86843 42.9454 3.90812C41.8791 4.22569 41.0373 5.073 40.7211 6.14752C40.6814 6.28167 40.4911 6.28167 40.4514 6.14752C40.1366 5.073 39.2948 4.22432 38.2271 3.90813C38.093 3.86843 38.093 3.67817 38.2271 3.63847Z" stroke="#FFA234" stroke-width="2" stroke-miterlimit="16" mask="url(#path-1-outside-1_69_922)"/>
<path d="M75.8409 3.34C76.9072 3.02243 77.749 2.17513 78.0639 1.10061C78.1035 0.966464 78.2938 0.966464 78.3335 1.10061C78.6483 2.1765 79.4902 3.0238 80.5565 3.34C80.6906 3.37969 80.6906 3.56995 80.5565 3.60965C79.4902 3.92722 78.6483 4.77452 78.3335 5.84904C78.2938 5.98319 78.1035 5.98319 78.0639 5.84904C77.749 4.77315 76.9072 3.92585 75.8409 3.60965C75.7067 3.56995 75.7067 3.37969 75.8409 3.34Z" stroke="#FFA234" stroke-width="2" stroke-miterlimit="16" mask="url(#path-1-outside-1_69_922)"/>
<path d="M25.6887 3.34C26.755 3.02243 27.5969 2.17514 27.9117 1.10061C27.9514 0.966468 28.1416 0.966468 28.1813 1.10061C28.4962 2.17651 29.338 3.0238 30.4043 3.34C30.5385 3.3797 30.5385 3.56996 30.4043 3.60965C29.338 3.92722 28.4962 4.77453 28.1813 5.84905C28.1416 5.98319 27.9514 5.98319 27.9117 5.84905C27.5955 4.77316 26.755 3.92585 25.6887 3.60965C25.5546 3.56996 25.5546 3.3797 25.6887 3.34Z" stroke="#FFA234" stroke-width="2" stroke-miterlimit="16" mask="url(#path-1-outside-1_69_922)"/>
<path d="M50.7655 3.63847C51.8318 3.3209 52.6736 2.47361 52.9885 1.39908C53.0282 1.26494 53.2184 1.26494 53.2581 1.39908C53.5743 2.47498 54.4148 3.32227 55.4811 3.63847C55.6152 3.67817 55.6152 3.86843 55.4811 3.90812C54.4148 4.22569 53.5729 5.073 53.2581 6.14752C53.2184 6.28166 53.0282 6.28166 52.9885 6.14752C52.6736 5.073 51.8318 4.22432 50.7655 3.90812C50.6314 3.86843 50.6314 3.67817 50.7655 3.63847Z" stroke="#FFA234" stroke-width="2" stroke-miterlimit="16" mask="url(#path-1-outside-1_69_922)"/>
<path d="M63.3025 16.092C64.3688 15.7744 65.2107 14.9271 65.5269 13.8526C65.5666 13.7185 65.7568 13.7185 65.7965 13.8526C66.1127 14.9271 66.9532 15.7758 68.0208 16.092C68.155 16.1317 68.155 16.322 68.0208 16.3616C66.9545 16.6792 66.1127 17.5265 65.7965 18.601C65.7568 18.7352 65.5666 18.7352 65.5269 18.601C65.212 17.5251 64.3702 16.6778 63.3025 16.3617C63.1684 16.322 63.1684 16.1317 63.3025 16.092Z" stroke="#FFA234" stroke-width="2" stroke-miterlimit="16" mask="url(#path-1-outside-1_69_922)"/>
<path d="M13.1503 16.092C14.2166 15.7744 15.0585 14.9271 15.3747 13.8526C15.4144 13.7185 15.6046 13.7185 15.6443 13.8526C15.9605 14.9271 16.801 15.7758 17.8687 16.092C18.0028 16.1317 18.0028 16.322 17.8687 16.3617C16.8023 16.6792 15.9605 17.5265 15.6443 18.601C15.6046 18.7352 15.4144 18.7352 15.3747 18.601C15.0598 17.5251 14.218 16.6779 13.1503 16.3617C13.0162 16.322 13.0162 16.1317 13.1503 16.092Z" stroke="#FFA234" stroke-width="2" stroke-miterlimit="16" mask="url(#path-1-outside-1_69_922)"/>
<path d="M1.10197 16.092C2.16828 15.7744 3.0101 14.9271 3.3263 13.8526C3.366 13.7185 3.55626 13.7185 3.59595 13.8526C3.91215 14.9271 4.75261 15.7758 5.82029 16.092C5.95443 16.1317 5.95443 16.322 5.82029 16.3617C4.75397 16.6792 3.91215 17.5265 3.59595 18.601C3.55626 18.7352 3.366 18.7352 3.3263 18.601C3.0101 17.5251 2.16965 16.6779 1.10197 16.3617C0.967823 16.322 0.967823 16.1317 1.10197 16.092Z" stroke="#FFA234" stroke-width="2" stroke-miterlimit="16" mask="url(#path-1-outside-1_69_922)"/>
<path d="M38.2271 16.3904C39.2934 16.0728 40.1352 15.2255 40.4514 14.151C40.4911 14.0168 40.6814 14.0168 40.7211 14.151C41.0373 15.2269 41.8778 16.0742 42.9454 16.3904C43.0796 16.4301 43.0796 16.6203 42.9454 16.66C41.8791 16.9776 41.0373 17.8249 40.7211 18.8994C40.6814 19.0336 40.4911 19.0336 40.4514 18.8994C40.1366 17.8235 39.2948 16.9762 38.2271 16.66C38.093 16.6203 38.093 16.4301 38.2271 16.3904Z" stroke="#FFA234" stroke-width="2" stroke-miterlimit="16" mask="url(#path-1-outside-1_69_922)"/>
<path d="M75.8409 16.092C76.9072 15.7744 77.749 14.9271 78.0639 13.8526C78.1036 13.7185 78.2938 13.7185 78.3335 13.8526C78.6483 14.9271 79.4902 15.7758 80.5565 16.092C80.6906 16.1317 80.6906 16.322 80.5565 16.3616C79.4902 16.6792 78.6483 17.5265 78.3335 18.601C78.2938 18.7352 78.1036 18.7352 78.0639 18.601C77.749 17.5251 76.9072 16.6778 75.8409 16.3616C75.7068 16.322 75.7068 16.1317 75.8409 16.092Z" stroke="#FFA234" stroke-width="2" stroke-miterlimit="16" mask="url(#path-1-outside-1_69_922)"/>
<path d="M25.6887 16.092C26.755 15.7744 27.5969 14.9271 27.9117 13.8526C27.9514 13.7185 28.1416 13.7185 28.1813 13.8526C28.4962 14.9271 29.338 15.7758 30.4043 16.092C30.5385 16.1317 30.5385 16.322 30.4043 16.3617C29.338 16.6792 28.4962 17.5265 28.1813 18.601C28.1416 18.7352 27.9514 18.7352 27.9117 18.601C27.5955 17.5251 26.755 16.6779 25.6887 16.3617C25.5546 16.322 25.5546 16.1317 25.6887 16.092Z" stroke="#FFA234" stroke-width="2" stroke-miterlimit="16" mask="url(#path-1-outside-1_69_922)"/>
<path d="M50.7655 16.3904C51.8318 16.0728 52.6736 15.2255 52.9885 14.151C53.0282 14.0168 53.2184 14.0168 53.2581 14.151C53.5743 15.2269 54.4148 16.0742 55.4811 16.3904C55.6152 16.4301 55.6152 16.6203 55.4811 16.66C54.4148 16.9776 53.5729 17.8249 53.2581 18.8994C53.2184 19.0336 53.0282 19.0336 52.9885 18.8994C52.6736 17.8235 51.8318 16.9762 50.7655 16.66C50.6314 16.6203 50.6314 16.4301 50.7655 16.3904Z" stroke="#FFA234" stroke-width="2" stroke-miterlimit="16" mask="url(#path-1-outside-1_69_922)"/>
<path d="M151.303 3.34C152.369 3.02243 153.211 2.17513 153.527 1.10061C153.567 0.966465 153.757 0.966465 153.797 1.10061C154.113 2.1765 154.953 3.0238 156.021 3.34C156.155 3.37969 156.155 3.56995 156.021 3.60965C154.955 3.92722 154.113 4.77452 153.797 5.84905C153.757 5.98319 153.567 5.98319 153.527 5.84905C153.212 4.77315 152.37 3.92585 151.303 3.60965C151.168 3.56995 151.168 3.37969 151.303 3.34Z" stroke="#FFA234" stroke-width="2" stroke-miterlimit="16" mask="url(#path-1-outside-1_69_922)"/>
<path d="M101.15 3.34C102.217 3.02244 103.058 2.17514 103.375 1.10061C103.414 0.966469 103.605 0.966469 103.644 1.10061C103.961 2.17651 104.801 3.0238 105.869 3.34C106.003 3.3797 106.003 3.56996 105.869 3.60965C104.802 3.92722 103.961 4.77453 103.644 5.84905C103.605 5.98319 103.414 5.9832 103.375 5.84905C103.06 4.77316 102.218 3.92585 101.15 3.60965C101.016 3.56996 101.016 3.3797 101.15 3.34Z" stroke="#FFA234" stroke-width="2" stroke-miterlimit="16" mask="url(#path-1-outside-1_69_922)"/>
<path d="M93.8189 3.60966C92.7526 3.92722 91.9108 4.77453 91.5946 5.84905C91.5549 5.9832 91.3646 5.9832 91.3249 5.84905C91.0087 4.77316 90.1683 3.92585 89.1006 3.60966C88.9665 3.56996 88.9665 3.3797 89.1006 3.34C90.1669 3.02244 91.0087 2.17514 91.3249 1.10061C91.3646 0.96647 91.5549 0.96647 91.5946 1.10061C91.9108 2.17651 92.7512 3.0238 93.8189 3.34C93.9531 3.3797 93.9531 3.56996 93.8189 3.60966Z" stroke="#FFA234" stroke-width="2" stroke-miterlimit="16" mask="url(#path-1-outside-1_69_922)"/>
<path d="M126.227 3.63847C127.293 3.32091 128.135 2.47361 128.451 1.39908C128.491 1.26494 128.681 1.26494 128.721 1.39908C129.037 2.47498 129.878 3.32227 130.945 3.63847C131.08 3.67817 131.08 3.86843 130.945 3.90812C129.879 4.22569 129.037 5.073 128.721 6.14752C128.681 6.28167 128.491 6.28167 128.451 6.14752C128.137 5.073 127.295 4.22432 126.227 3.90813C126.093 3.86843 126.093 3.67817 126.227 3.63847Z" stroke="#FFA234" stroke-width="2" stroke-miterlimit="16" mask="url(#path-1-outside-1_69_922)"/>
<path d="M163.841 3.34C164.907 3.02243 165.749 2.17513 166.064 1.10061C166.104 0.966464 166.294 0.966464 166.334 1.10061C166.648 2.1765 167.49 3.0238 168.556 3.34C168.691 3.37969 168.691 3.56995 168.556 3.60965C167.49 3.92722 166.648 4.77452 166.334 5.84904C166.294 5.98319 166.104 5.98319 166.064 5.84904C165.749 4.77315 164.907 3.92585 163.841 3.60965C163.707 3.56995 163.707 3.37969 163.841 3.34Z" stroke="#FFA234" stroke-width="2" stroke-miterlimit="16" mask="url(#path-1-outside-1_69_922)"/>
<path d="M113.689 3.34C114.755 3.02243 115.597 2.17514 115.912 1.10061C115.951 0.966468 116.142 0.966468 116.181 1.10061C116.496 2.17651 117.338 3.0238 118.404 3.34C118.538 3.3797 118.538 3.56996 118.404 3.60965C117.338 3.92722 116.496 4.77453 116.181 5.84905C116.142 5.98319 115.951 5.98319 115.912 5.84905C115.595 4.77316 114.755 3.92585 113.689 3.60965C113.555 3.56996 113.555 3.3797 113.689 3.34Z" stroke="#FFA234" stroke-width="2" stroke-miterlimit="16" mask="url(#path-1-outside-1_69_922)"/>
<path d="M138.766 3.63847C139.832 3.3209 140.674 2.47361 140.988 1.39908C141.028 1.26494 141.218 1.26494 141.258 1.39908C141.574 2.47498 142.415 3.32227 143.481 3.63847C143.615 3.67817 143.615 3.86843 143.481 3.90812C142.415 4.22569 141.573 5.073 141.258 6.14752C141.218 6.28166 141.028 6.28166 140.988 6.14752C140.674 5.073 139.832 4.22432 138.766 3.90812C138.631 3.86843 138.631 3.67817 138.766 3.63847Z" stroke="#FFA234" stroke-width="2" stroke-miterlimit="16" mask="url(#path-1-outside-1_69_922)"/>
<path d="M151.303 16.092C152.369 15.7744 153.211 14.9271 153.527 13.8526C153.567 13.7185 153.757 13.7185 153.797 13.8526C154.113 14.9271 154.953 15.7758 156.021 16.092C156.155 16.1317 156.155 16.322 156.021 16.3616C154.955 16.6792 154.113 17.5265 153.797 18.601C153.757 18.7352 153.567 18.7352 153.527 18.601C153.212 17.5251 152.37 16.6778 151.303 16.3617C151.168 16.322 151.168 16.1317 151.303 16.092Z" stroke="#FFA234" stroke-width="2" stroke-miterlimit="16" mask="url(#path-1-outside-1_69_922)"/>
<path d="M101.15 16.092C102.217 15.7744 103.058 14.9271 103.375 13.8526C103.414 13.7185 103.605 13.7185 103.644 13.8526C103.961 14.9271 104.801 15.7758 105.869 16.092C106.003 16.1317 106.003 16.322 105.869 16.3617C104.802 16.6792 103.961 17.5265 103.644 18.601C103.605 18.7352 103.414 18.7352 103.375 18.601C103.06 17.5251 102.218 16.6779 101.15 16.3617C101.016 16.322 101.016 16.1317 101.15 16.092Z" stroke="#FFA234" stroke-width="2" stroke-miterlimit="16" mask="url(#path-1-outside-1_69_922)"/>
<path d="M89.102 16.092C90.1683 15.7744 91.0101 14.9271 91.3263 13.8526C91.366 13.7185 91.5563 13.7185 91.596 13.8526C91.9122 14.9271 92.7526 15.7758 93.8203 16.092C93.9544 16.1317 93.9544 16.322 93.8203 16.3617C92.754 16.6792 91.9122 17.5265 91.596 18.601C91.5563 18.7352 91.366 18.7352 91.3263 18.601C91.0101 17.5251 90.1696 16.6779 89.102 16.3617C88.9678 16.322 88.9678 16.1317 89.102 16.092Z" stroke="#FFA234" stroke-width="2" stroke-miterlimit="16" mask="url(#path-1-outside-1_69_922)"/>
<path d="M126.227 16.3904C127.293 16.0728 128.135 15.2255 128.451 14.151C128.491 14.0168 128.681 14.0168 128.721 14.151C129.037 15.2269 129.878 16.0742 130.945 16.3904C131.08 16.4301 131.08 16.6203 130.945 16.66C129.879 16.9776 129.037 17.8249 128.721 18.8994C128.681 19.0336 128.491 19.0336 128.451 18.8994C128.137 17.8235 127.295 16.9762 126.227 16.66C126.093 16.6203 126.093 16.4301 126.227 16.3904Z" stroke="#FFA234" stroke-width="2" stroke-miterlimit="16" mask="url(#path-1-outside-1_69_922)"/>
<path d="M163.841 16.092C164.907 15.7744 165.749 14.9271 166.064 13.8526C166.104 13.7185 166.294 13.7185 166.334 13.8526C166.648 14.9271 167.49 15.7758 168.556 16.092C168.691 16.1317 168.691 16.322 168.556 16.3616C167.49 16.6792 166.648 17.5265 166.334 18.601C166.294 18.7352 166.104 18.7352 166.064 18.601C165.749 17.5251 164.907 16.6778 163.841 16.3616C163.707 16.322 163.707 16.1317 163.841 16.092Z" stroke="#FFA234" stroke-width="2" stroke-miterlimit="16" mask="url(#path-1-outside-1_69_922)"/>
<path d="M113.689 16.092C114.755 15.7744 115.597 14.9271 115.912 13.8526C115.951 13.7185 116.142 13.7185 116.181 13.8526C116.496 14.9271 117.338 15.7758 118.404 16.092C118.538 16.1317 118.538 16.322 118.404 16.3617C117.338 16.6792 116.496 17.5265 116.181 18.601C116.142 18.7352 115.951 18.7352 115.912 18.601C115.595 17.5251 114.755 16.6779 113.689 16.3617C113.555 16.322 113.555 16.1317 113.689 16.092Z" stroke="#FFA234" stroke-width="2" stroke-miterlimit="16" mask="url(#path-1-outside-1_69_922)"/>
<path d="M138.766 16.3904C139.832 16.0728 140.674 15.2255 140.988 14.151C141.028 14.0168 141.218 14.0168 141.258 14.151C141.574 15.2269 142.415 16.0742 143.481 16.3904C143.615 16.4301 143.615 16.6203 143.481 16.66C142.415 16.9776 141.573 17.8249 141.258 18.8994C141.218 19.0336 141.028 19.0336 140.988 18.8994C140.674 17.8235 139.832 16.9762 138.766 16.66C138.631 16.6203 138.631 16.4301 138.766 16.3904Z" stroke="#FFA234" stroke-width="2" stroke-miterlimit="16" mask="url(#path-1-outside-1_69_922)"/>
</svg>
