<svg width="82" height="20" viewBox="0 0 82 20" fill="none" xmlns="http://www.w3.org/2000/svg">
<mask id="path-1-outside-1_80_44" maskUnits="userSpaceOnUse" x="0" y="0" width="82" height="20" fill="black">
<rect fill="white" width="82" height="20"/>
<path d="M18.3546 16.66C17.2883 16.9776 16.4464 17.8249 16.1302 18.8994C16.0905 19.0336 15.9003 19.0336 15.8606 18.8994C15.5444 17.8235 14.7039 16.9762 13.6362 16.66C13.5021 16.6203 13.5021 16.4301 13.6362 16.3904C14.7026 16.0728 15.5444 15.2255 15.8606 14.151C15.9003 14.0168 16.0905 14.0168 16.1302 14.151C16.4451 15.2269 17.2869 16.0742 18.3546 16.3904C18.4887 16.4301 18.4887 16.6203 18.3546 16.66Z"/>
<path d="M68.5068 16.66C67.4404 16.9776 66.5986 17.8249 66.2824 18.8994C66.2427 19.0336 66.0525 19.0336 66.0128 18.8994C65.6966 17.8235 64.8561 16.9762 63.7884 16.66C63.6543 16.6203 63.6543 16.4301 63.7884 16.3904C64.8547 16.0728 65.6966 15.2255 66.0128 14.151C66.0525 14.0168 66.2427 14.0168 66.2824 14.151C66.5973 15.2269 67.4391 16.0742 68.5068 16.3904C68.6409 16.4301 68.6409 16.6203 68.5068 16.66Z"/>
<path d="M75.8382 16.3904C76.9045 16.0728 77.7463 15.2255 78.0625 14.151C78.1022 14.0168 78.2925 14.0168 78.3322 14.151C78.6484 15.2269 79.4888 16.0742 80.5565 16.3904C80.6906 16.4301 80.6906 16.6203 80.5565 16.66C79.4902 16.9776 78.6484 17.8249 78.3322 18.8994C78.2925 19.0336 78.1022 19.0336 78.0625 18.8994C77.7463 17.8235 76.9058 16.9762 75.8382 16.66C75.704 16.6203 75.704 16.4301 75.8382 16.3904Z"/>
<path d="M43.43 16.3616C42.3637 16.6791 41.5219 17.5264 41.2057 18.6009C41.166 18.7351 40.9757 18.7351 40.936 18.6009C40.6198 17.525 39.7793 16.6777 38.7117 16.3616C38.5775 16.3219 38.5775 16.1316 38.7117 16.0919C39.778 15.7743 40.6198 14.927 40.936 13.8525C40.9757 13.7184 41.166 13.7184 41.2057 13.8525C41.5205 14.927 42.3623 15.7757 43.43 16.0919C43.5641 16.1316 43.5641 16.3219 43.43 16.3616Z"/>
<path d="M5.8162 16.66C4.74989 16.9776 3.90807 17.8249 3.59324 18.8994C3.55354 19.0336 3.36328 19.0336 3.32359 18.8994C3.00876 17.8235 2.16694 16.9762 1.10062 16.66C0.96648 16.6203 0.96648 16.4301 1.10062 16.3904C2.16694 16.0728 3.00876 15.2255 3.32359 14.151C3.36328 14.0168 3.55354 14.0168 3.59324 14.151C3.90807 15.2269 4.74989 16.0742 5.8162 16.3904C5.95035 16.4301 5.95035 16.6203 5.8162 16.66Z"/>
<path d="M55.9684 16.66C54.9021 16.9776 54.0602 17.8249 53.7454 18.8994C53.7057 19.0336 53.5154 19.0336 53.4757 18.8994C53.1609 17.8235 52.3191 16.9762 51.2528 16.66C51.1186 16.6203 51.1186 16.4301 51.2528 16.3904C52.3191 16.0728 53.1609 15.2255 53.4757 14.151C53.5154 14.0168 53.7057 14.0168 53.7454 14.151C54.0616 15.2269 54.9021 16.0742 55.9684 16.3904C56.1025 16.4301 56.1025 16.6203 55.9684 16.66Z"/>
<path d="M30.8916 16.3616C29.8253 16.6791 28.9835 17.5264 28.6686 18.6009C28.6289 18.7351 28.4387 18.7351 28.399 18.6009C28.0828 17.525 27.2423 16.6777 26.176 16.3616C26.0419 16.3219 26.0419 16.1316 26.176 16.0919C27.2423 15.7743 28.0841 14.927 28.399 13.8525C28.4387 13.7184 28.6289 13.7184 28.6686 13.8525C28.9835 14.927 29.8253 15.7757 30.8916 16.0919C31.0257 16.1316 31.0257 16.3219 30.8916 16.3616Z"/>
<path d="M18.3546 3.90803C17.2883 4.2256 16.4464 5.0729 16.1302 6.14742C16.0905 6.28157 15.9003 6.28157 15.8606 6.14742C15.5444 5.0729 14.7039 4.22423 13.6362 3.90803C13.5021 3.86834 13.5021 3.67807 13.6362 3.63837C14.7026 3.32081 15.5444 2.47351 15.8606 1.39898C15.9003 1.26484 16.0905 1.26484 16.1302 1.39898C16.4451 2.47488 17.2869 3.32217 18.3546 3.63837C18.4887 3.67807 18.4887 3.86834 18.3546 3.90803Z"/>
<path d="M68.5068 3.90803C67.4404 4.2256 66.5986 5.0729 66.2824 6.14742C66.2427 6.28157 66.0525 6.28157 66.0128 6.14742C65.6966 5.0729 64.8561 4.22423 63.7884 3.90803C63.6543 3.86834 63.6543 3.67807 63.7884 3.63837C64.8547 3.32081 65.6966 2.47351 66.0128 1.39898C66.0525 1.26484 66.2427 1.26484 66.2824 1.39898C66.5973 2.47488 67.4391 3.32217 68.5068 3.63837C68.6409 3.67807 68.6409 3.86834 68.5068 3.90803Z"/>
<path d="M80.5551 3.90803C79.4888 4.2256 78.647 5.0729 78.3308 6.14742C78.2911 6.28157 78.1008 6.28157 78.0611 6.14742C77.7449 5.0729 76.9045 4.22423 75.8368 3.90803C75.7027 3.86834 75.7027 3.67807 75.8368 3.63837C76.9031 3.32081 77.7449 2.47351 78.0611 1.39898C78.1008 1.26484 78.2911 1.26484 78.3308 1.39898C78.647 2.47488 79.4874 3.32217 80.5551 3.63837C80.6893 3.67807 80.6893 3.86834 80.5551 3.90803Z"/>
<path d="M43.43 3.60966C42.3637 3.92722 41.5219 4.77452 41.2057 5.84905C41.166 5.98319 40.9757 5.98319 40.936 5.84905C40.6198 4.77315 39.7793 3.92586 38.7117 3.60966C38.5775 3.56996 38.5775 3.37969 38.7117 3.34C39.778 3.02243 40.6198 2.17513 40.936 1.10061C40.9757 0.966464 41.166 0.966464 41.2057 1.10061C41.5205 2.1765 42.3623 3.0238 43.43 3.34C43.5641 3.37969 43.5641 3.56996 43.43 3.60966Z"/>
<path d="M5.81619 3.90803C4.74988 4.2256 3.90805 5.0729 3.59322 6.14742C3.55353 6.28157 3.36327 6.28157 3.32357 6.14742C3.00874 5.0729 2.16692 4.22423 1.10061 3.90803C0.966464 3.86834 0.966464 3.67807 1.10061 3.63837C2.16692 3.32081 3.00874 2.47351 3.32357 1.39898C3.36327 1.26484 3.55353 1.26484 3.59322 1.39898C3.90805 2.47488 4.74988 3.32217 5.81619 3.63837C5.95033 3.67807 5.95033 3.86834 5.81619 3.90803Z"/>
<path d="M55.9684 3.90803C54.9021 4.2256 54.0602 5.0729 53.7454 6.14742C53.7057 6.28157 53.5154 6.28157 53.4757 6.14742C53.1609 5.0729 52.3191 4.22423 51.2528 3.90803C51.1186 3.86834 51.1186 3.67807 51.2528 3.63837C52.3191 3.32081 53.1609 2.47351 53.4757 1.39898C53.5154 1.26484 53.7057 1.26484 53.7454 1.39898C54.0616 2.47488 54.9021 3.32217 55.9684 3.63837C56.1025 3.67807 56.1025 3.86834 55.9684 3.90803Z"/>
<path d="M30.8916 3.60966C29.8253 3.92722 28.9835 4.77452 28.6686 5.84905C28.6289 5.98319 28.4387 5.98319 28.399 5.84905C28.0828 4.77315 27.2423 3.92586 26.176 3.60966C26.0419 3.56996 26.0419 3.37969 26.176 3.34C27.2423 3.02243 28.0841 2.17513 28.399 1.10061C28.4387 0.966464 28.6289 0.966464 28.6686 1.10061C28.9835 2.1765 29.8253 3.0238 30.8916 3.34C31.0257 3.37969 31.0257 3.56996 30.8916 3.60966Z"/>
</mask>
<path d="M18.3546 16.66C17.2883 16.9776 16.4464 17.8249 16.1302 18.8994C16.0905 19.0336 15.9003 19.0336 15.8606 18.8994C15.5444 17.8235 14.7039 16.9762 13.6362 16.66C13.5021 16.6203 13.5021 16.4301 13.6362 16.3904C14.7026 16.0728 15.5444 15.2255 15.8606 14.151C15.9003 14.0168 16.0905 14.0168 16.1302 14.151C16.4451 15.2269 17.2869 16.0742 18.3546 16.3904C18.4887 16.4301 18.4887 16.6203 18.3546 16.66Z" fill="#FFA234"/>
<path d="M68.5068 16.66C67.4404 16.9776 66.5986 17.8249 66.2824 18.8994C66.2427 19.0336 66.0525 19.0336 66.0128 18.8994C65.6966 17.8235 64.8561 16.9762 63.7884 16.66C63.6543 16.6203 63.6543 16.4301 63.7884 16.3904C64.8547 16.0728 65.6966 15.2255 66.0128 14.151C66.0525 14.0168 66.2427 14.0168 66.2824 14.151C66.5973 15.2269 67.4391 16.0742 68.5068 16.3904C68.6409 16.4301 68.6409 16.6203 68.5068 16.66Z" fill="#FFA234"/>
<path d="M75.8382 16.3904C76.9045 16.0728 77.7463 15.2255 78.0625 14.151C78.1022 14.0168 78.2925 14.0168 78.3322 14.151C78.6484 15.2269 79.4888 16.0742 80.5565 16.3904C80.6906 16.4301 80.6906 16.6203 80.5565 16.66C79.4902 16.9776 78.6484 17.8249 78.3322 18.8994C78.2925 19.0336 78.1022 19.0336 78.0625 18.8994C77.7463 17.8235 76.9058 16.9762 75.8382 16.66C75.704 16.6203 75.704 16.4301 75.8382 16.3904Z" fill="#FFA234"/>
<path d="M43.43 16.3616C42.3637 16.6791 41.5219 17.5264 41.2057 18.6009C41.166 18.7351 40.9757 18.7351 40.936 18.6009C40.6198 17.525 39.7793 16.6777 38.7117 16.3616C38.5775 16.3219 38.5775 16.1316 38.7117 16.0919C39.778 15.7743 40.6198 14.927 40.936 13.8525C40.9757 13.7184 41.166 13.7184 41.2057 13.8525C41.5205 14.927 42.3623 15.7757 43.43 16.0919C43.5641 16.1316 43.5641 16.3219 43.43 16.3616Z" fill="#FFA234"/>
<path d="M5.8162 16.66C4.74989 16.9776 3.90807 17.8249 3.59324 18.8994C3.55354 19.0336 3.36328 19.0336 3.32359 18.8994C3.00876 17.8235 2.16694 16.9762 1.10062 16.66C0.96648 16.6203 0.96648 16.4301 1.10062 16.3904C2.16694 16.0728 3.00876 15.2255 3.32359 14.151C3.36328 14.0168 3.55354 14.0168 3.59324 14.151C3.90807 15.2269 4.74989 16.0742 5.8162 16.3904C5.95035 16.4301 5.95035 16.6203 5.8162 16.66Z" fill="#FFA234"/>
<path d="M55.9684 16.66C54.9021 16.9776 54.0602 17.8249 53.7454 18.8994C53.7057 19.0336 53.5154 19.0336 53.4757 18.8994C53.1609 17.8235 52.3191 16.9762 51.2528 16.66C51.1186 16.6203 51.1186 16.4301 51.2528 16.3904C52.3191 16.0728 53.1609 15.2255 53.4757 14.151C53.5154 14.0168 53.7057 14.0168 53.7454 14.151C54.0616 15.2269 54.9021 16.0742 55.9684 16.3904C56.1025 16.4301 56.1025 16.6203 55.9684 16.66Z" fill="#FFA234"/>
<path d="M30.8916 16.3616C29.8253 16.6791 28.9835 17.5264 28.6686 18.6009C28.6289 18.7351 28.4387 18.7351 28.399 18.6009C28.0828 17.525 27.2423 16.6777 26.176 16.3616C26.0419 16.3219 26.0419 16.1316 26.176 16.0919C27.2423 15.7743 28.0841 14.927 28.399 13.8525C28.4387 13.7184 28.6289 13.7184 28.6686 13.8525C28.9835 14.927 29.8253 15.7757 30.8916 16.0919C31.0257 16.1316 31.0257 16.3219 30.8916 16.3616Z" fill="#FFA234"/>
<path d="M18.3546 3.90803C17.2883 4.2256 16.4464 5.0729 16.1302 6.14742C16.0905 6.28157 15.9003 6.28157 15.8606 6.14742C15.5444 5.0729 14.7039 4.22423 13.6362 3.90803C13.5021 3.86834 13.5021 3.67807 13.6362 3.63837C14.7026 3.32081 15.5444 2.47351 15.8606 1.39898C15.9003 1.26484 16.0905 1.26484 16.1302 1.39898C16.4451 2.47488 17.2869 3.32217 18.3546 3.63837C18.4887 3.67807 18.4887 3.86834 18.3546 3.90803Z" fill="#FFA234"/>
<path d="M68.5068 3.90803C67.4404 4.2256 66.5986 5.0729 66.2824 6.14742C66.2427 6.28157 66.0525 6.28157 66.0128 6.14742C65.6966 5.0729 64.8561 4.22423 63.7884 3.90803C63.6543 3.86834 63.6543 3.67807 63.7884 3.63837C64.8547 3.32081 65.6966 2.47351 66.0128 1.39898C66.0525 1.26484 66.2427 1.26484 66.2824 1.39898C66.5973 2.47488 67.4391 3.32217 68.5068 3.63837C68.6409 3.67807 68.6409 3.86834 68.5068 3.90803Z" fill="#FFA234"/>
<path d="M80.5551 3.90803C79.4888 4.2256 78.647 5.0729 78.3308 6.14742C78.2911 6.28157 78.1008 6.28157 78.0611 6.14742C77.7449 5.0729 76.9045 4.22423 75.8368 3.90803C75.7027 3.86834 75.7027 3.67807 75.8368 3.63837C76.9031 3.32081 77.7449 2.47351 78.0611 1.39898C78.1008 1.26484 78.2911 1.26484 78.3308 1.39898C78.647 2.47488 79.4874 3.32217 80.5551 3.63837C80.6893 3.67807 80.6893 3.86834 80.5551 3.90803Z" fill="#FFA234"/>
<path d="M43.43 3.60966C42.3637 3.92722 41.5219 4.77452 41.2057 5.84905C41.166 5.98319 40.9757 5.98319 40.936 5.84905C40.6198 4.77315 39.7793 3.92586 38.7117 3.60966C38.5775 3.56996 38.5775 3.37969 38.7117 3.34C39.778 3.02243 40.6198 2.17513 40.936 1.10061C40.9757 0.966464 41.166 0.966464 41.2057 1.10061C41.5205 2.1765 42.3623 3.0238 43.43 3.34C43.5641 3.37969 43.5641 3.56996 43.43 3.60966Z" fill="#FFA234"/>
<path d="M5.81619 3.90803C4.74988 4.2256 3.90805 5.0729 3.59322 6.14742C3.55353 6.28157 3.36327 6.28157 3.32357 6.14742C3.00874 5.0729 2.16692 4.22423 1.10061 3.90803C0.966464 3.86834 0.966464 3.67807 1.10061 3.63837C2.16692 3.32081 3.00874 2.47351 3.32357 1.39898C3.36327 1.26484 3.55353 1.26484 3.59322 1.39898C3.90805 2.47488 4.74988 3.32217 5.81619 3.63837C5.95033 3.67807 5.95033 3.86834 5.81619 3.90803Z" fill="#FFA234"/>
<path d="M55.9684 3.90803C54.9021 4.2256 54.0602 5.0729 53.7454 6.14742C53.7057 6.28157 53.5154 6.28157 53.4757 6.14742C53.1609 5.0729 52.3191 4.22423 51.2528 3.90803C51.1186 3.86834 51.1186 3.67807 51.2528 3.63837C52.3191 3.32081 53.1609 2.47351 53.4757 1.39898C53.5154 1.26484 53.7057 1.26484 53.7454 1.39898C54.0616 2.47488 54.9021 3.32217 55.9684 3.63837C56.1025 3.67807 56.1025 3.86834 55.9684 3.90803Z" fill="#FFA234"/>
<path d="M30.8916 3.60966C29.8253 3.92722 28.9835 4.77452 28.6686 5.84905C28.6289 5.98319 28.4387 5.98319 28.399 5.84905C28.0828 4.77315 27.2423 3.92586 26.176 3.60966C26.0419 3.56996 26.0419 3.37969 26.176 3.34C27.2423 3.02243 28.0841 2.17513 28.399 1.10061C28.4387 0.966464 28.6289 0.966464 28.6686 1.10061C28.9835 2.1765 29.8253 3.0238 30.8916 3.34C31.0257 3.37969 31.0257 3.56996 30.8916 3.60966Z" fill="#FFA234"/>
<path d="M18.3546 16.66C17.2883 16.9776 16.4464 17.8249 16.1302 18.8994C16.0905 19.0336 15.9003 19.0336 15.8606 18.8994C15.5444 17.8235 14.7039 16.9762 13.6362 16.66C13.5021 16.6203 13.5021 16.4301 13.6362 16.3904C14.7026 16.0728 15.5444 15.2255 15.8606 14.151C15.9003 14.0168 16.0905 14.0168 16.1302 14.151C16.4451 15.2269 17.2869 16.0742 18.3546 16.3904C18.4887 16.4301 18.4887 16.6203 18.3546 16.66Z" stroke="#FFA234" stroke-width="2" stroke-miterlimit="16" mask="url(#path-1-outside-1_80_44)"/>
<path d="M68.5068 16.66C67.4404 16.9776 66.5986 17.8249 66.2824 18.8994C66.2427 19.0336 66.0525 19.0336 66.0128 18.8994C65.6966 17.8235 64.8561 16.9762 63.7884 16.66C63.6543 16.6203 63.6543 16.4301 63.7884 16.3904C64.8547 16.0728 65.6966 15.2255 66.0128 14.151C66.0525 14.0168 66.2427 14.0168 66.2824 14.151C66.5973 15.2269 67.4391 16.0742 68.5068 16.3904C68.6409 16.4301 68.6409 16.6203 68.5068 16.66Z" stroke="#FFA234" stroke-width="2" stroke-miterlimit="16" mask="url(#path-1-outside-1_80_44)"/>
<path d="M75.8382 16.3904C76.9045 16.0728 77.7463 15.2255 78.0625 14.151C78.1022 14.0168 78.2925 14.0168 78.3322 14.151C78.6484 15.2269 79.4888 16.0742 80.5565 16.3904C80.6906 16.4301 80.6906 16.6203 80.5565 16.66C79.4902 16.9776 78.6484 17.8249 78.3322 18.8994C78.2925 19.0336 78.1022 19.0336 78.0625 18.8994C77.7463 17.8235 76.9058 16.9762 75.8382 16.66C75.704 16.6203 75.704 16.4301 75.8382 16.3904Z" stroke="#FFA234" stroke-width="2" stroke-miterlimit="16" mask="url(#path-1-outside-1_80_44)"/>
<path d="M43.43 16.3616C42.3637 16.6791 41.5219 17.5264 41.2057 18.6009C41.166 18.7351 40.9757 18.7351 40.936 18.6009C40.6198 17.525 39.7793 16.6777 38.7117 16.3616C38.5775 16.3219 38.5775 16.1316 38.7117 16.0919C39.778 15.7743 40.6198 14.927 40.936 13.8525C40.9757 13.7184 41.166 13.7184 41.2057 13.8525C41.5205 14.927 42.3623 15.7757 43.43 16.0919C43.5641 16.1316 43.5641 16.3219 43.43 16.3616Z" stroke="#FFA234" stroke-width="2" stroke-miterlimit="16" mask="url(#path-1-outside-1_80_44)"/>
<path d="M5.8162 16.66C4.74989 16.9776 3.90807 17.8249 3.59324 18.8994C3.55354 19.0336 3.36328 19.0336 3.32359 18.8994C3.00876 17.8235 2.16694 16.9762 1.10062 16.66C0.96648 16.6203 0.96648 16.4301 1.10062 16.3904C2.16694 16.0728 3.00876 15.2255 3.32359 14.151C3.36328 14.0168 3.55354 14.0168 3.59324 14.151C3.90807 15.2269 4.74989 16.0742 5.8162 16.3904C5.95035 16.4301 5.95035 16.6203 5.8162 16.66Z" stroke="#FFA234" stroke-width="2" stroke-miterlimit="16" mask="url(#path-1-outside-1_80_44)"/>
<path d="M55.9684 16.66C54.9021 16.9776 54.0602 17.8249 53.7454 18.8994C53.7057 19.0336 53.5154 19.0336 53.4757 18.8994C53.1609 17.8235 52.3191 16.9762 51.2528 16.66C51.1186 16.6203 51.1186 16.4301 51.2528 16.3904C52.3191 16.0728 53.1609 15.2255 53.4757 14.151C53.5154 14.0168 53.7057 14.0168 53.7454 14.151C54.0616 15.2269 54.9021 16.0742 55.9684 16.3904C56.1025 16.4301 56.1025 16.6203 55.9684 16.66Z" stroke="#FFA234" stroke-width="2" stroke-miterlimit="16" mask="url(#path-1-outside-1_80_44)"/>
<path d="M30.8916 16.3616C29.8253 16.6791 28.9835 17.5264 28.6686 18.6009C28.6289 18.7351 28.4387 18.7351 28.399 18.6009C28.0828 17.525 27.2423 16.6777 26.176 16.3616C26.0419 16.3219 26.0419 16.1316 26.176 16.0919C27.2423 15.7743 28.0841 14.927 28.399 13.8525C28.4387 13.7184 28.6289 13.7184 28.6686 13.8525C28.9835 14.927 29.8253 15.7757 30.8916 16.0919C31.0257 16.1316 31.0257 16.3219 30.8916 16.3616Z" stroke="#FFA234" stroke-width="2" stroke-miterlimit="16" mask="url(#path-1-outside-1_80_44)"/>
<path d="M18.3546 3.90803C17.2883 4.2256 16.4464 5.0729 16.1302 6.14742C16.0905 6.28157 15.9003 6.28157 15.8606 6.14742C15.5444 5.0729 14.7039 4.22423 13.6362 3.90803C13.5021 3.86834 13.5021 3.67807 13.6362 3.63837C14.7026 3.32081 15.5444 2.47351 15.8606 1.39898C15.9003 1.26484 16.0905 1.26484 16.1302 1.39898C16.4451 2.47488 17.2869 3.32217 18.3546 3.63837C18.4887 3.67807 18.4887 3.86834 18.3546 3.90803Z" stroke="#FFA234" stroke-width="2" stroke-miterlimit="16" mask="url(#path-1-outside-1_80_44)"/>
<path d="M68.5068 3.90803C67.4404 4.2256 66.5986 5.0729 66.2824 6.14742C66.2427 6.28157 66.0525 6.28157 66.0128 6.14742C65.6966 5.0729 64.8561 4.22423 63.7884 3.90803C63.6543 3.86834 63.6543 3.67807 63.7884 3.63837C64.8547 3.32081 65.6966 2.47351 66.0128 1.39898C66.0525 1.26484 66.2427 1.26484 66.2824 1.39898C66.5973 2.47488 67.4391 3.32217 68.5068 3.63837C68.6409 3.67807 68.6409 3.86834 68.5068 3.90803Z" stroke="#FFA234" stroke-width="2" stroke-miterlimit="16" mask="url(#path-1-outside-1_80_44)"/>
<path d="M80.5551 3.90803C79.4888 4.2256 78.647 5.0729 78.3308 6.14742C78.2911 6.28157 78.1008 6.28157 78.0611 6.14742C77.7449 5.0729 76.9045 4.22423 75.8368 3.90803C75.7027 3.86834 75.7027 3.67807 75.8368 3.63837C76.9031 3.32081 77.7449 2.47351 78.0611 1.39898C78.1008 1.26484 78.2911 1.26484 78.3308 1.39898C78.647 2.47488 79.4874 3.32217 80.5551 3.63837C80.6893 3.67807 80.6893 3.86834 80.5551 3.90803Z" stroke="#FFA234" stroke-width="2" stroke-miterlimit="16" mask="url(#path-1-outside-1_80_44)"/>
<path d="M43.43 3.60966C42.3637 3.92722 41.5219 4.77452 41.2057 5.84905C41.166 5.98319 40.9757 5.98319 40.936 5.84905C40.6198 4.77315 39.7793 3.92586 38.7117 3.60966C38.5775 3.56996 38.5775 3.37969 38.7117 3.34C39.778 3.02243 40.6198 2.17513 40.936 1.10061C40.9757 0.966464 41.166 0.966464 41.2057 1.10061C41.5205 2.1765 42.3623 3.0238 43.43 3.34C43.5641 3.37969 43.5641 3.56996 43.43 3.60966Z" stroke="#FFA234" stroke-width="2" stroke-miterlimit="16" mask="url(#path-1-outside-1_80_44)"/>
<path d="M5.81619 3.90803C4.74988 4.2256 3.90805 5.0729 3.59322 6.14742C3.55353 6.28157 3.36327 6.28157 3.32357 6.14742C3.00874 5.0729 2.16692 4.22423 1.10061 3.90803C0.966464 3.86834 0.966464 3.67807 1.10061 3.63837C2.16692 3.32081 3.00874 2.47351 3.32357 1.39898C3.36327 1.26484 3.55353 1.26484 3.59322 1.39898C3.90805 2.47488 4.74988 3.32217 5.81619 3.63837C5.95033 3.67807 5.95033 3.86834 5.81619 3.90803Z" stroke="#FFA234" stroke-width="2" stroke-miterlimit="16" mask="url(#path-1-outside-1_80_44)"/>
<path d="M55.9684 3.90803C54.9021 4.2256 54.0602 5.0729 53.7454 6.14742C53.7057 6.28157 53.5154 6.28157 53.4757 6.14742C53.1609 5.0729 52.3191 4.22423 51.2528 3.90803C51.1186 3.86834 51.1186 3.67807 51.2528 3.63837C52.3191 3.32081 53.1609 2.47351 53.4757 1.39898C53.5154 1.26484 53.7057 1.26484 53.7454 1.39898C54.0616 2.47488 54.9021 3.32217 55.9684 3.63837C56.1025 3.67807 56.1025 3.86834 55.9684 3.90803Z" stroke="#FFA234" stroke-width="2" stroke-miterlimit="16" mask="url(#path-1-outside-1_80_44)"/>
<path d="M30.8916 3.60966C29.8253 3.92722 28.9835 4.77452 28.6686 5.84905C28.6289 5.98319 28.4387 5.98319 28.399 5.84905C28.0828 4.77315 27.2423 3.92586 26.176 3.60966C26.0419 3.56996 26.0419 3.37969 26.176 3.34C27.2423 3.02243 28.0841 2.17513 28.399 1.10061C28.4387 0.966464 28.6289 0.966464 28.6686 1.10061C28.9835 2.1765 29.8253 3.0238 30.8916 3.34C31.0257 3.37969 31.0257 3.56996 30.8916 3.60966Z" stroke="#FFA234" stroke-width="2" stroke-miterlimit="16" mask="url(#path-1-outside-1_80_44)"/>
</svg>
