<svg width="392" height="357" viewBox="0 0 392 357" fill="none" xmlns="http://www.w3.org/2000/svg">
<path d="M391.939 160.577L391.892 159.112L392 158.11L391.863 158.218L391.254 139.335L391.563 139.8L391.242 138.008L391.205 137.8L391.202 137.705L391.174 136.864L391.057 136.976L387.898 119.367L388.574 120.382L387.525 117.292L387.373 116.441L387.275 116.553L381.034 98.1615L381.061 98.1248L380.947 97.9053L380.693 97.1551L380.614 97.2625L371.748 80.187L371.773 80.147L371.616 79.9315L371.281 79.2865L371.235 79.3613L369.283 76.4256L369.282 76.4227L365.054 70.0646L365.097 70.0631L364.622 69.4125L364.51 69.1972L364.466 69.1987L353.181 53.746L353.335 53.73L352.703 53.0921L352.577 52.9189L352.536 52.9231L339.064 39.3152L339.237 39.285L338.441 38.6855L338.306 38.5495L338.268 38.5561L322.861 26.9651L323.054 26.9178L322.153 26.4192L322.087 26.3828L321.95 26.279L321.946 26.2799L320.057 24.8551L320.486 25.4965L304.843 16.8371L305.052 16.7697L303.919 16.326L302.352 15.4585L302.586 15.8039L285.305 9.03628L285.529 8.94563L284.242 8.62001L282.951 8.11461L283.098 8.33089L264.543 3.6399L264.777 3.5243L263.357 3.33999L262.255 3.06136L262.358 3.21023L242.871 0.680535L243.105 0.539761L241.591 0.514484L240.631 0.389914L240.708 0.499677L220.585 0.163458L220.808 0L219.25 0.141208L218.409 0.127163L218.469 0.211861L197.984 2.06664L198.181 1.88892L196.653 2.18721L195.909 2.25452L195.958 2.32291L175.37 6.34363L175.523 6.1659L174.112 6.58941L173.455 6.71787L173.496 6.77426L153.022 12.9214L153.118 12.7623L151.919 13.2524L151.34 13.4265L151.375 13.475L131.234 21.7139L131.271 21.5946L130.364 22.0697L129.852 22.2796L129.884 22.3216L110.316 32.5812L110.31 32.5094L109.721 32.8931L109.269 33.1299L109.298 33.1681L90.5949 45.344L90.5716 45.3109L90.2337 45.5792L89.8451 45.8321L89.8718 45.8665L72.5005 59.6582L72.474 59.6246L72.1509 59.9358L71.8173 60.2007L71.586 60.3848L71.6539 60.4145L56.0404 75.4528L56.0102 75.4154L55.6899 75.7904L54.9487 76.5043L55.0762 76.5089L41.3993 92.5217L41.3643 92.4788L41.0531 92.927L40.2228 93.8996L40.4049 93.8614L28.757 110.65L28.7152 110.6L28.4871 111.015L28.4219 111.133L27.605 112.311L27.822 112.225L18.27 129.611L18.2188 129.55L17.9562 130.183L17.2376 131.491L17.4649 131.365L10.0714 149.164L10.0069 149.089L9.79139 149.838L9.22485 151.202L9.44328 151.05L4.26911 169.056L4.18449 168.958L4.04088 169.85L3.65066 171.208L3.84926 171.04L0.954318 189.031L0.839091 188.9L0.802898 189.972L0.593544 191.274L0.764907 191.103L0.167879 208.818L0 208.628L0.129896 209.941L0.0891648 211.151L0.23309 210.983L1.93006 228.124L1.66414 227.825L2.06523 229.49L2.17381 230.587L2.29093 230.427L6.20224 246.659L5.71821 246.114L6.61387 248.368L6.8477 249.338L6.94045 249.19L12.8345 264.021L11.686 262.742L13.7437 266.309L14.0774 267.148L14.1494 267.012L23.2735 282.824L23.2565 282.863L23.4034 283.049L23.8126 283.758L23.8664 283.635L35.3156 298.124L35.3011 298.165L35.4879 298.342L35.9514 298.928L35.9703 298.874L40.9766 304.423L43.1821 306.865L43.1062 306.881L43.7074 307.449L43.8526 307.633L43.8929 307.625L57.4899 320.487L57.3486 320.527L58.0821 321.047L58.2369 321.194L58.2738 321.183L73.8648 332.243L73.715 332.299L74.5767 332.748L74.7355 332.861L74.7373 332.86L77.7476 334.997L76.7402 333.875L92.1711 341.917L92.0171 341.99L92.9899 342.344L93.153 342.429L93.1561 342.427L95.0894 343.438L94.6526 342.949L112.174 349.326L112.021 349.416L113.084 349.658L114.682 350.24L114.439 349.966L133.619 354.324L133.475 354.429L134.452 354.53L134.592 354.545L135.886 354.839L135.732 354.663L156.201 356.785L156.072 356.902L157.201 356.888L158.279 357L158.172 356.877L179.602 356.619L179.499 356.74L180.583 356.607L181.5 356.596L181.421 356.503L203.467 353.784L203.396 353.902L204.381 353.671L205.165 353.575L205.104 353.502L227.423 348.271L227.386 348.375L228.221 348.084L228.894 347.927L228.845 347.867L251.072 340.127L251.065 340.209L251.723 339.901L252.296 339.701L252.256 339.651L274.007 329.459L274.021 329.515L274.498 329.229L274.987 329L274.952 328.956L295.804 316.427L295.829 316.461L295.84 316.452L296.159 316.213L296.569 315.967L296.538 315.929L315.981 301.326L316.01 301.363L316.338 301.059L316.836 300.685L316.779 300.649L334.324 284.344L334.357 284.388L334.688 284.006L335.27 283.465L335.178 283.442L350.537 265.747L350.575 265.799L350.903 265.325L351.518 264.616L351.393 264.614L364.342 245.847L364.389 245.913L364.7 245.327L365.292 244.47L365.142 244.497L375.509 224.989L375.57 225.074L375.849 224.349L376.361 223.387L376.199 223.442L383.871 203.531L383.952 203.647L384.173 202.746L384.567 201.726L384.405 201.805L389.309 181.846L389.424 182.013L389.546 180.883L389.8 179.849L389.647 179.946L391.762 160.316L391.939 160.577ZM383.57 201.575L381.891 199.167L381.871 199.137L386.965 178.439L388.652 180.891L383.57 201.575ZM295.998 315.237L294.041 312.732L313.512 298.101L315.448 300.63L295.998 315.237ZM295.27 315.722L274.398 328.263L272.426 325.788L293.318 313.224L295.27 315.722ZM250.828 339.278L228.245 347.141L226.268 344.752L248.872 336.868L250.828 339.278ZM111.725 348.224L93.4084 341.557L91.9448 339.919L110.268 346.582L111.725 348.224ZM91.235 340.436L75.0635 332.008L74.0215 330.848L90.1887 339.265L91.235 340.436ZM71.8486 329.736L58.6388 320.365L58.6084 320.332L71.7958 329.677L71.8486 329.736ZM57.0524 75.6936L72.5208 60.7945L78.9459 63.6111L66.1858 75.8908L66.156 75.8691L66.0338 76.0122L57.0524 75.6936ZM110.385 33.5396L129.816 23.3517L127.071 32.1583L126.867 32.2414L126.881 32.2777L110.898 40.6359L110.385 33.5396ZM151.007 14.5791L144.764 24.9345L144.538 25.002L144.545 25.039L128.111 31.7348L130.893 22.8068L151.007 14.5791ZM172.906 7.8738L162.93 19.4955L162.701 19.5398L162.703 19.5763L146.003 24.5644L152.343 14.0475L172.906 7.8738ZM337.082 38.7621L296.068 45.8916L295.946 45.7655L295.904 45.8016L283.853 36.5668L321.761 27.2359L337.082 38.7621ZM389.984 135.9L388.857 134.227L385.577 115.903L386.698 117.578L389.984 135.9ZM390.979 157.612L389.557 155.519L388.929 135.892L390.346 137.994L390.979 157.612ZM14.6288 266.102L32.2004 232.754L39.5395 245.225L39.4854 245.263L39.6157 245.424L23.706 281.834L14.6288 266.102ZM241.649 1.41457L261.777 4.02713L235.579 17.0048L235.39 16.9559L235.372 16.9928L219.317 14.8357L241.649 1.41457ZM176.984 352.661L154.761 352.942L152.86 350.754L175.097 350.459L176.984 352.661ZM24.2623 282.729L40.2302 246.185L49.4201 257.568L49.3684 257.613L49.5214 257.754L35.6582 297.15L24.2623 282.729ZM372.575 220.845L361.884 240.949L360.068 238.43L360.046 238.4L370.751 218.276L372.575 220.845ZM348.135 261.005L346.253 258.447L359.542 239.192L361.406 241.776L348.135 261.005ZM292.773 312.525L271.873 325.094L269.895 322.611L290.815 310.018L292.773 312.525ZM109.04 345.196L90.7012 338.527L89.2313 336.883L107.57 343.538L107.59 343.56L109.04 345.196ZM295.223 46.3861L264.826 72.5069L255.79 65.4162L282.903 36.9436L295.223 46.3861ZM69.1224 326.706L55.9128 317.345L55.8636 317.291L69.0696 326.648L69.1188 326.702L69.1224 326.706ZM80.3856 63.5049L94.4748 52.33L112.537 76.0855L112.535 76.0869L112.562 76.1218L101.946 84.5013L101.919 84.4719L101.902 84.4882L80.3856 63.5049ZM181.93 16.7658L199.353 15.236L192.631 48.1845L192.486 48.1804L192.492 48.2325L179.585 49.272L181.93 16.7658ZM174.348 349.584L152.1 349.879L150.193 347.681L172.3 347.37L172.309 347.411L172.47 347.39L174.348 349.584ZM72.3108 223.316L79.1572 231.61L79.0168 231.637L79.3034 231.896L50.0823 256.999L40.7546 245.445L72.3108 223.316ZM113.808 76.3116L125.176 68.9769L152.441 111.811L152.399 111.833L152.429 111.872L144.842 116.711L113.808 76.3116ZM127.975 32.7427L144.728 25.9169L151.001 56.0401L150.92 56.0637L150.937 56.1056L138.389 61.1479L127.975 32.7427ZM152.095 56.6401L164.941 52.8831L179.878 100.901L179.657 100.94L179.703 101L171.293 103.374L152.095 56.6401ZM165.787 52.6847L178.785 50.2651L189.405 99.1746L189.101 99.1956L189.156 99.2698L180.738 100.75L165.787 52.6847ZM378.845 194.805L377.152 192.378L377.221 192.2L377.174 192.179L382.253 171.592L383.955 174.064L378.845 194.805ZM359.001 238.442L345.707 257.704L343.82 255.136L357.129 235.851L359.001 238.442ZM198.236 346.703L175.465 349.547L173.508 347.26L196.168 344.415L196.18 344.454L196.313 344.423L198.236 346.703ZM179.646 50.1545L192.604 49.1113L198.913 98.5185L190.278 99.1144L179.646 50.1545ZM247.912 115.461L242.072 110.761L255.373 66.2032L264.316 73.2218L247.912 115.461ZM385.326 128.987L384.203 127.319L384.196 127.09L384.146 127.081L380.906 108.923L382.047 110.627L385.326 128.987ZM357.654 235.09L357.737 234.97L357.695 234.943L368.361 214.903L370.189 217.482L359.479 237.615L357.654 235.09ZM329.512 276.472L327.589 273.909L343.258 255.842L345.16 258.432L329.512 276.472ZM328.903 277.113L311.168 293.608L309.219 291.058L326.971 274.54L328.903 277.113ZM102.541 85.1495L113.096 76.8174L144.104 117.182L144.101 117.183L144.129 117.219L137.049 122.756L102.541 85.1495ZM219.403 51.3096L217.28 100.2L209.114 98.9225L207.077 49.5404L219.403 51.3096ZM233.981 106.919L235.104 108.449L235.098 108.445L235.43 108.896L229.018 106.152L227.559 104.175L233.981 106.919ZM220.588 337.73L200.43 288.792L218.602 282.252L243.268 329.792L220.588 337.73ZM66.4083 323.686L66.24 323.567L66.355 323.627L66.3818 323.656L66.4083 323.686ZM73.2402 223.071L117.146 217.943L121.761 223.415L80.1336 231.422L73.2402 223.071ZM108.696 197.101L110.007 198.69L111.571 204.536L110.259 202.948L108.696 197.101ZM108.631 170.011L110.694 162.535L112.643 164.942L110.587 172.409L108.631 170.011ZM118.403 145.899L120.419 148.417L116.457 155.694L114.434 153.187L118.403 145.899ZM368.083 213.456L319.555 187.599L326.054 170.962L376.107 192.678L368.083 213.456ZM109.464 196.66L108.175 195.097L107.377 188.495L108.989 190.457L109.79 197.055L109.505 196.709L109.464 196.659L109.464 196.66ZM163.761 110.668L155.752 114.741L153.739 112.139L161.758 108.058L163.761 110.668ZM182.806 105.096L184.758 107.67L176.279 110.05L174.325 107.485L182.806 105.096ZM225.994 103.522L227.629 105.738L220.444 103.694L218.809 101.488L225.994 103.522ZM247.788 116.487L248.256 117.125L244.363 113.988L243.9 113.358L247.788 116.487ZM383.238 126.915L332.309 117.631L329.671 101.958L379.749 107.368L383.238 126.915ZM356.961 234.471L310.524 204.59L319.185 188.399L367.719 214.259L356.961 234.471ZM124.682 294.356L136.309 259.729L149.251 260.77L142.081 295.909L124.682 294.356ZM212.796 105.542L204.639 105.202L202.816 102.767L210.979 103.102L212.796 105.542ZM328.807 102.034L331.438 117.668L291.585 126.399L289.742 114.853L328.807 102.034ZM218.249 281.441L200.173 287.946L193.201 254.476L206.569 249.585L218.249 281.441ZM111.066 174.376L112.943 176.678L111.87 184.016L109.989 181.72L111.066 174.376ZM185.331 108.426L187.275 110.994L178.805 113.366L176.856 110.806L185.331 108.426ZM250.263 119.87L250.716 120.488L246.833 117.356L246.381 116.741L250.263 119.87ZM246.17 225.183L256.569 215.416L285.004 236.089L270.893 249.295L246.17 225.183ZM180.158 242.869L188.753 241.608L178.091 257.413L165.109 259.278L180.158 242.869ZM189.934 241.415L198.616 239.193L192.389 253.812L179.343 257.115L189.934 241.415ZM217.752 231.21L219.984 242.145L207.372 248.266L209.272 235.342L217.752 231.21ZM208.343 235.711L206.435 248.695L193.496 253.429L199.685 238.897L208.343 235.711ZM143.614 238.045L150.932 240.454L122.816 256.128L111.727 252.398L143.614 238.045ZM124.117 256.411L152.096 240.814L159.871 242.337L135.917 258.791L124.117 256.411ZM137.282 258.919L161.102 242.557L169.24 243.171L149.632 259.912L137.282 258.919ZM281.938 178.627L286.734 166.451L325.204 170.754L318.745 187.29L281.938 178.627ZM270.217 249.858L254.706 261.639L234.067 234.494L245.504 225.755L270.217 249.858ZM227.385 225.277L234.926 219.508L244.749 225.227L233.544 233.789L227.385 225.277ZM242.408 212.515L255.609 215.116L245.478 224.633L235.623 218.895L242.408 212.515ZM274.301 191.156L255.243 195.727L259.251 188.274L280.395 179.8L274.301 191.156ZM262.734 179.514L285.608 166.943L281.017 178.599L259.725 187.134L262.734 179.514ZM265.061 170.637L289.121 153.876L286.085 165.675L263.066 178.327L265.061 170.637ZM254.654 196.777L273.575 192.239L266.037 203.143L249.679 203.979L254.654 196.777ZM249.017 204.899L265.265 204.069L256.374 214.366L243.101 211.75L249.017 204.899ZM287.001 165.59L290.167 153.286L329.712 153.193L325.491 169.896L287.001 165.59ZM289.429 152.592L265.235 169.445L266.196 161.767L290.863 140.817L289.429 152.592ZM290.991 139.558L266.211 160.604L266.13 153.051L290.815 127.975L290.991 139.558ZM285.625 235.454L257.177 214.772L266.369 204.127L298.09 221.043L285.625 235.454ZM298.645 220.341L266.908 203.416L274.749 192.074L309.27 204.961L298.645 220.341ZM309.749 204.197L275.208 191.303L281.57 179.448L318.355 188.107L309.749 204.197ZM331.876 134.801L291.852 139.27L291.669 127.285L331.514 118.556L331.876 134.801ZM290.769 126.775L265.991 151.945L264.863 144.618L288.98 115.564L290.769 126.775ZM263.983 144.588L265.264 152.906L265.356 161.511L264.259 170.278L261.981 179.059L258.557 187.731L254.028 196.15L248.474 204.191L241.965 211.729L234.619 218.638L226.54 224.819L217.857 230.179L208.711 234.635L199.24 238.121L189.588 240.591L179.907 242.011L170.344 242.367L161.045 241.665L152.131 239.919L143.749 237.159L136.015 233.444L129.021 228.829L124.242 224.596L121.349 219.914L118.17 212.556L116.076 204.758L115.081 196.629L115.206 188.287L116.433 179.843L118.748 171.417L122.122 163.123L126.497 155.08L131.819 147.395L138.017 140.176L144.995 133.523L152.675 127.528L160.941 122.272L169.683 117.84L178.774 114.292L188.107 111.679L197.526 110.041L206.923 109.414L216.143 109.813L225.069 111.227L233.554 113.655L241.491 117.059L248.741 121.398L255.208 126.613L258.337 129.994L261.546 136.673L263.983 144.588ZM139.537 127.286L141.567 129.872L135.173 135.966L133.137 133.389L139.537 127.286ZM175.972 111.085L177.941 113.671L169.652 116.905L167.676 114.332L175.972 111.085ZM160.089 121.772L152.528 126.579L150.514 123.998L158.086 119.183L160.089 121.772ZM151.816 127.085L144.791 132.57L142.77 129.992L149.798 124.499L151.816 127.085ZM147.235 121.208L149.259 123.807L142.228 129.302L140.197 126.714L147.235 121.208ZM137.75 139.221L135.718 136.656L142.109 130.564L144.129 133.14L137.75 139.221ZM160.851 121.33L158.855 118.752L166.851 114.689L168.84 117.28L160.851 121.33ZM158.306 118.043L156.301 115.451L164.307 111.378L166.305 113.979L158.306 118.043ZM135.115 137.3L137.139 139.856L131.493 146.434L129.464 143.886L135.115 137.3ZM130.937 147.138L126.106 154.115L124.083 151.589L128.922 144.606L130.937 147.138ZM121.232 163.006L118.215 170.424L116.234 167.982L119.254 160.557L121.232 163.006ZM115.554 179.88L114.488 187.212L112.612 184.922L113.685 177.587L115.554 179.88ZM114.34 188.408L114.234 195.462L112.464 193.311L112.57 186.248L114.34 188.408ZM115.041 203.419L113.44 201.481L112.639 194.897L114.236 196.837L115.041 203.419ZM116.825 210.889L115.529 209.322L113.964 203.486L115.259 205.055L116.825 210.889ZM117.391 212.943L119.364 217.508L118.709 216.719L116.743 212.159L117.391 212.943ZM230.966 110.264L232.582 112.458L225.416 110.407L223.796 108.222L230.966 110.264ZM233.972 112.874L232.531 110.918L238.939 113.665L240.379 115.622L233.972 112.874ZM241.977 116.325L240.851 114.793L246.227 118.005L247.354 119.543L241.977 116.325ZM253.172 123.844L249.298 120.72L248.851 120.111L252.728 123.238L253.172 123.844ZM243.758 114.637L244.89 116.182L239.507 112.965L238.372 111.424L243.758 114.637ZM215.284 108.89L207.137 108.537L205.324 106.117L213.476 106.456L215.284 108.89ZM216.424 108.961L214.69 106.627L222.438 107.854L224.169 110.188L216.424 108.961ZM204.217 106.093L206.082 108.583L197.678 109.144L195.811 106.658L204.217 106.093ZM194.79 106.751L196.695 109.287L188.196 110.766L186.279 108.234L194.79 106.751ZM123.608 152.393L125.61 154.892L121.662 162.149L119.653 159.661L123.608 152.393ZM115.927 168.99L117.862 171.374L115.816 178.82L113.878 176.442L115.927 168.99ZM110.011 191.701L111.616 193.654L112.418 200.242L110.812 198.294L110.011 191.701ZM230.109 109.101L222.933 107.058L221.305 104.858L228.487 106.9L230.109 109.101ZM219.949 104.491L221.559 106.666L221.557 106.666L221.685 106.839L213.935 105.612L212.192 103.272L219.949 104.491ZM201.71 102.744L203.585 105.249L195.176 105.813L193.295 103.317L201.71 102.744ZM155.532 115.882L157.545 118.485L149.97 123.301L147.95 120.706L155.532 115.882ZM132.533 134.033L134.563 136.602L128.91 143.19L126.873 140.632L132.533 134.033ZM111.721 185.212L111.615 192.278L109.837 190.114L109.946 183.046L111.721 185.212ZM112.635 201.877L114.203 207.718L113.712 207.125L113.533 206.909L113.535 206.911L112.897 206.14L111.334 200.299L112.635 201.877ZM100.289 246.955L135.78 234.309L142.545 237.559L110.528 251.971L100.289 246.955ZM110.706 252.986L122.255 256.871L106.401 290.495L90.9308 285.115L110.706 252.986ZM151.017 259.883L170.501 243.248L178.911 242.934L163.761 259.454L151.017 259.883ZM220.776 241.696L218.549 230.785L226.668 225.774L232.824 234.281L220.776 241.696ZM329.887 152.308L290.323 152.401L291.814 140.165L331.823 135.697L329.887 152.308ZM288.77 114.45L264.582 143.589L262.427 136.587L285.394 103.772L288.77 114.45ZM241.279 111.26L242.421 112.815L237.028 109.597L235.887 108.042L241.279 111.26ZM237.908 112.263L231.498 109.515L230.051 107.553L236.46 110.297L237.908 112.263ZM194.193 105.958L185.679 107.441L183.755 104.903L192.274 103.412L194.193 105.958ZM175.377 110.304L175.416 110.355L167.117 113.603L165.132 111.02L173.441 107.764L175.377 110.304ZM121.008 149.152L123.019 151.657L119.062 158.928L117.048 156.427L121.008 149.152ZM116.649 157.324L118.632 159.786L115.61 167.214L113.62 164.762L116.649 157.324ZM113.313 165.769L115.256 168.163L113.206 175.619L111.259 173.231L113.313 165.769ZM108.988 189.081L107.204 186.909L107.313 179.834L109.098 182.01L108.988 189.081ZM114.105 208.97L114.768 209.771L116.742 214.348L116.077 213.547L114.105 208.97ZM123.103 257.109L135.439 259.597L123.811 294.23L123.809 294.235L107.255 290.722L123.103 257.109ZM161.829 295.391L164.359 260.279L177.938 258.329L180.141 292.894L161.829 295.391ZM180.997 292.725L178.794 258.165L192.37 254.729L199.342 288.201L180.997 292.725ZM207.369 249.248L220.297 242.973L236.564 272.707L219.049 281.104L207.369 249.248ZM255.239 262.337L270.835 250.49L307.982 290.946L288.488 305.616L255.239 262.337ZM326.993 273.263L286.3 236.009L298.84 221.511L342.651 255.209L326.993 273.263ZM299.376 220.816L310.066 205.341L356.504 235.222L343.189 254.516L299.376 220.816ZM209.689 99.9081L217.452 101.123L219.198 103.477L211.437 102.258L209.689 99.9081ZM144.668 117.911L146.696 120.516L139.656 126.024L137.616 123.427L144.668 117.911ZM136.956 123.999L138.994 126.594L132.592 132.698L130.55 130.115L136.956 123.999ZM131.982 133.334L126.32 139.937L124.274 137.369L129.947 130.759L131.982 133.334ZM126.331 141.352L128.355 143.894L123.514 150.88L121.483 148.35L126.331 141.352ZM122.455 224.182L127.862 228.972L89.0392 239.512L80.9153 232.172L122.455 224.182ZM89.9718 240.175L128.689 229.663L134.825 233.712L99.2143 246.4L89.9718 240.175ZM99.2795 247.442L109.895 252.642L90.1148 284.781L75.9305 277.641L99.2795 247.442ZM75.576 278.449L89.6514 285.534L89.6156 285.592L89.8042 285.658L84.662 332.147L67.1069 323.025L75.576 278.449ZM85.4898 332.53L90.6421 285.949L106.023 291.298L105.994 291.358L106.181 291.398L104.697 339.486L85.4898 332.53ZM142.96 295.927L150.128 260.799L163.487 260.349L160.956 295.469L142.96 295.927ZM237.329 272.293L221.059 242.554L233.349 234.99L253.982 262.129L237.329 272.293ZM308.654 290.387L271.502 249.924L285.694 236.642L326.382 273.891L308.654 290.387ZM376.368 191.83L326.328 170.119L330.573 153.32L381.548 170.839L376.368 191.83ZM381.694 169.955L330.742 152.444L332.688 135.75L383.965 149.104L381.694 169.955ZM383.986 148.196L332.741 134.851L332.379 118.542L383.354 127.836L383.986 148.196ZM379.486 106.449L329.519 101.052L329.49 100.88L329.423 100.902L324.639 86.2584L373.249 88.0281L379.486 106.449ZM201.009 101.807L201.078 101.9L192.659 102.474L190.773 99.9675L199.199 99.3859L201.009 101.807ZM170.898 104.434L172.885 107.035L164.572 110.292L162.582 107.7L170.898 104.434ZM114.036 154.083L116.027 156.551L112.997 163.993L111.001 161.528L114.036 154.083ZM111.469 205.782L112.135 206.588L114.107 211.167L113.439 210.36L111.469 205.782ZM107.04 291.58L123.526 295.079L123.506 295.139L123.682 295.155L126.159 344.395L105.553 339.752L107.04 291.58ZM172.98 346.435L161.884 296.277L180.197 293.779L180.201 293.831L180.309 293.804L195.899 343.557L172.98 346.435ZM323.771 86.3907L328.599 101.172L289.534 113.992L286.074 103.049L323.771 86.3907ZM285.038 102.762L262.019 135.65L258.862 129.083L280.136 92.7882L285.038 102.762ZM208.477 99.7389L210.207 102.065L210.299 102.189L202.132 101.853L200.304 99.4076L208.477 99.7389ZM189.753 100.063L191.621 102.544L191.676 102.618L183.153 104.11L181.223 101.563L189.753 100.063ZM180.276 101.757L182.187 104.279L182.233 104.34L173.749 106.729L171.781 104.154L180.276 101.757ZM152.969 112.571L154.991 115.183L147.408 120.01L145.382 117.409L152.969 112.571ZM123.731 138.088L125.764 140.64L120.914 147.64L118.878 145.096L123.731 138.088ZM108.437 171.154L110.325 173.467L109.247 180.816L107.356 178.509L108.437 171.154ZM112.838 211.05L116.589 217.117L72.6123 222.253L67.0407 213.021L112.838 211.05ZM88.9871 240.571L98.5232 246.994L75.1689 277.2L62.459 268.427L88.9871 240.571ZM66.1419 323.468L66.137 323.494L53.1775 314.311L53.126 314.254L66.1419 323.468ZM69.6204 325.954L68.5582 324.771L84.5584 333.085L84.5536 333.129L84.7753 333.21L85.8185 334.376L69.6204 325.954ZM104.668 340.415L104.667 340.458L104.882 340.507L106.343 342.154L87.9889 335.493L86.5087 333.838L104.668 340.415ZM127.032 344.549L124.551 295.232L141.903 296.781L141.891 296.84L142.05 296.836L148.74 346.756L127.032 344.549ZM149.619 346.804L142.92 296.814L160.892 296.357L160.888 296.412L161.024 296.394L172.105 346.488L149.619 346.804ZM181.152 293.596L199.523 289.067L199.533 289.115L199.613 289.086L219.748 337.97L196.76 343.409L181.152 293.596ZM266.839 318.708L237.776 273.05L254.519 262.832L287.762 306.102L266.839 318.708ZM290.998 308.834L289.026 306.31L308.549 291.618L310.5 294.169L290.998 308.834ZM368.819 214.041L368.9 213.891L368.854 213.867L376.773 193.358L378.547 195.902L370.587 216.535L368.819 214.041ZM384.884 148.653L384.907 148.436L384.858 148.423L384.254 128.954L385.686 131.081L386.306 150.745L384.884 148.653ZM241.318 110.258L234.745 106.337L244.596 59.867L254.626 65.6747L241.318 110.258ZM225.886 102.574L218.137 100.38L220.261 51.4945L231.993 54.6532L225.886 102.574ZM170.452 103.611L170.302 103.654L170.341 103.705L162.082 106.948L138.748 61.9548L151.272 56.9217L170.452 103.611ZM136.39 123.33L129.955 129.473L92.2738 94.9321L101.88 85.7217L136.39 123.33ZM129.353 130.11L123.647 136.758L83.1463 105.531L91.671 95.5673L129.353 130.11ZM109.982 161.859L107.959 169.189L107.868 169.077L107.802 169.528L60.184 153.114L63.4331 141.587L109.982 161.859ZM106.462 178.984L106.355 185.875L106.161 185.639L106.268 186.527L57.8816 177.785L58.1574 166.407L106.462 178.984ZM106.379 187.446L107.155 193.867L106.827 193.464L107.178 194.777L59.1634 189.759L57.9351 178.693L106.379 187.446ZM109.582 203.593L112.418 210.182L66.565 212.156L62.3953 202.167L109.582 203.593ZM62.0445 269.208L74.6309 277.896L74.5882 277.951L74.7718 278.044L66.3221 322.519L50.6462 311.423L62.0445 269.208ZM126.205 345.312L126.207 345.355L126.41 345.376L128.087 347.286L108.045 342.756L106.342 340.836L126.205 345.312ZM243.679 330.584L243.697 330.619L243.767 330.587L245.721 332.99L223.081 340.901L221.086 338.491L243.679 330.584ZM244.078 329.467L219.404 281.912L237.012 273.47L266.067 319.116L244.078 329.467ZM384.119 172.766L382.532 170.461L382.582 170.26L382.533 170.244L384.739 149.989L386.338 152.341L384.119 172.766ZM380.526 106.79L380.484 106.557L380.435 106.552L375.029 90.583L375.51 91.3046L380.994 107.489L380.526 106.79ZM372.828 87.1274L324.347 85.362L324.293 85.1961L324.23 85.2235L317.387 71.6755L364 70.1003L372.828 87.1274ZM323.435 85.5752L285.745 102.23L280.742 92.0535L316.508 71.8632L323.435 85.5752ZM279.653 91.8929L258.343 128.248L254.23 122.215L273.294 82.7731L279.653 91.8929ZM272.703 81.9987L253.617 121.489L248.604 116.075L264.993 73.8726L272.703 81.9987ZM233.944 105.944L226.722 102.858L232.827 54.9478L243.798 59.4573L233.944 105.944ZM206.209 49.4592L208.245 98.8439L199.782 98.5008L193.474 49.0939L206.209 49.4592ZM137.955 62.3147L161.269 107.267L161.178 107.303L161.212 107.347L153.22 111.414L125.931 68.542L137.955 62.3147ZM82.6094 106.225L123.112 137.453L118.31 144.387L118.266 144.332L118.179 144.492L75.2796 116.799L82.6094 106.225ZM117.758 145.267L113.843 152.455L113.79 152.389L113.695 152.62L68.7712 128.594L74.8175 117.547L117.758 145.267ZM60.0011 153.984L107.672 170.417L106.615 177.606L106.486 177.448L106.476 178.074L58.227 165.511L60.0011 153.984ZM59.3494 190.668L107.423 195.692L108.936 201.351L108.266 200.536L109.196 202.696L62.068 201.271L59.3494 190.668ZM50.6848 257.637L79.9587 232.488L88.0345 239.785L87.8817 239.827L88.2515 240.076L61.7686 267.884L50.6848 257.637ZM129.518 347.592L127.686 345.505L148.861 347.658L148.867 347.7L149.051 347.697L150.85 349.771L129.518 347.592ZM199.25 346.551L197.265 344.198L220.09 338.797L220.105 338.835L220.207 338.799L222.153 341.149L199.25 346.551ZM269.342 321.917L267.356 319.423L288.301 306.804L288.326 306.837L288.329 306.835L290.27 309.319L269.342 321.917ZM234.977 17.8324L219.618 50.4064L219.445 50.3597L219.442 50.4212L207.203 48.6644L218.306 15.5924L234.977 17.8324ZM90.9935 95.0165L82.454 104.997L82.4196 104.97L82.3802 105.027L54.9078 90.3798L66.2921 77.0542L90.9935 95.0165ZM113.361 153.44L110.378 160.758L110.309 160.673L110.219 161L63.7189 140.749L68.3926 129.39L113.361 153.44ZM71.2994 327.82L87.4769 336.231L88.5292 337.409L72.3466 328.983L71.2994 327.82ZM246.576 332.658L244.581 330.204L266.544 319.865L266.566 319.9L266.602 319.878L268.554 322.327L246.576 332.658ZM291.538 309.526L311.033 294.867L312.978 297.405L293.5 312.04L291.538 309.526ZM330.074 277.22L330.049 277.187L345.691 259.153L347.588 261.733L331.963 279.74L330.074 277.22ZM387.213 152.079L386.594 132.427L388.021 134.545L388.649 154.187L387.213 152.079ZM387.66 132.451L386.523 130.763L383.246 112.419L384.377 114.11L387.66 132.451ZM382.845 110.254L377.369 94.0911L377.84 94.7968L383.32 110.963L382.845 110.254ZM316.049 71.1116L280.297 91.2937L273.834 82.025L307.16 58.6627L316.049 71.1116ZM306.589 57.9901L273.282 81.3392L265.472 73.1068L295.893 46.9669L306.589 57.9901ZM282.152 36.4639L255.064 64.9111L244.95 59.0554L268.408 28.7143L282.152 36.4639ZM251.788 22.1088L232.298 53.7759L232.115 53.7007L232.106 53.7686L220.47 50.6359L235.862 17.9905L251.788 22.1088ZM217.411 15.5371L206.33 48.5392L206.17 48.5162L206.172 48.5726L193.509 48.2098L200.245 15.1936L217.411 15.5371ZM54.3547 91.0825L81.8749 105.756L74.5473 116.326L74.5085 116.301L74.4659 116.379L44.5472 105.214L54.3547 91.0825ZM28.9514 137.604L62.5955 141.367L59.3637 152.831L59.3067 152.812L59.2843 152.956L24.5417 153.04L28.9514 137.604ZM57.0648 178.69L58.283 189.667L58.1967 189.658L58.2511 189.87L22.8844 201.474L21.3364 186.515L57.0648 178.69ZM23.0291 202.357L58.4709 190.727L61.1672 201.244L61.0691 201.241L61.1655 201.473L26.5841 216.751L23.0291 202.357ZM26.8525 217.596L61.5051 202.286L65.6411 212.195L65.5292 212.2L65.6785 212.448L32.3933 231.235L26.8525 217.596ZM32.7817 232.027L66.1332 213.201L71.6629 222.364L71.5374 222.379L71.75 222.637L40.2538 244.724L32.7817 232.027ZM50.2148 258.395L61.1647 268.518L61.1168 268.568L61.2884 268.686L49.9201 310.79L36.3085 297.914L50.2148 258.395ZM132.197 350.641L130.377 348.569L151.697 350.747L153.509 352.834L132.197 350.641ZM176.155 350.352L198.916 347.51L200.847 349.804L178.103 352.624L176.155 350.352ZM225.668 344.026L223.682 341.626L246.314 333.719L248.28 336.139L225.668 344.026ZM313.647 296.844L311.703 294.306L329.432 277.818L331.354 280.381L313.647 296.844ZM372.972 219.899L371.189 217.385L379.146 196.759L380.915 199.29L372.972 219.899ZM384.87 173.858L387.088 153.442L388.682 155.781L386.472 176.186L384.87 173.858ZM267.594 28.3408L244.159 58.6522L233.113 54.1112L252.647 22.3741L267.594 28.3408ZM181.053 16.8985L178.713 49.3422L178.587 49.3524L178.597 49.4002L165.626 51.8152L163.613 20.264L181.053 16.8985ZM162.761 20.4813L164.769 51.9747L164.665 51.9942L164.679 52.0389L151.834 55.7962L145.551 25.6218L162.761 20.4813ZM127.187 33.1118L137.584 61.4712L137.53 61.4932L137.55 61.5329L125.48 67.7835L111.112 41.518L127.187 33.1118ZM110.361 41.9571L124.708 68.1836L124.68 68.198L124.704 68.2351L113.272 75.6111L95.1841 51.8222L110.361 41.9571ZM79.7212 64.0797L101.27 85.0941L91.6273 94.3395L91.5968 94.3115L91.566 94.3474L66.9048 76.4136L79.7212 64.0797ZM44.0633 105.975L74.0374 117.162L68.0045 128.184L67.9604 128.16L67.9192 128.26L35.9614 120.738L44.0633 105.975ZM35.5582 121.551L67.5784 129.088L62.9233 140.403L62.8735 140.381L62.8389 140.504L29.2631 136.749L35.5582 121.551ZM59.148 153.842L57.3854 165.292L57.3199 165.275L57.3157 165.443L21.8773 169.398L24.3323 153.926L59.148 153.842ZM21.78 170.299L57.2942 166.336L57.0207 177.629L56.9458 177.616L56.9668 177.806L21.3146 185.614L21.78 170.299ZM110.743 345.801L109.049 343.89L129.08 348.417L130.764 350.334L110.743 345.801ZM201.86 349.652L199.888 347.309L222.782 341.909L224.74 344.273L201.86 349.652ZM249.135 335.807L247.149 333.363L269.118 323.036L271.084 325.504L249.135 335.807ZM381.212 198.194L379.504 195.75L384.611 175.019L386.308 177.485L381.212 198.194ZM352.178 53.8498L363.413 69.2343L316.946 70.8047L316.868 70.6496L316.812 70.6809L308.056 58.4176L352.178 53.8498ZM385.639 114.43L385.176 113.737L379.705 97.5993L380.161 98.2838L385.639 114.43ZM351.42 53.0386L307.464 57.5892L307.363 57.4474L307.314 57.4815L296.813 46.6596L338.014 39.4977L351.42 53.0386ZM282.954 35.878L282.813 35.77L282.778 35.8067L269.389 28.2574L303.693 17.2073L320.657 26.5971L282.954 35.878ZM302.424 16.6883L268.342 27.6669L268.184 27.5776L268.155 27.6148L253.655 21.8267L284.114 9.51768L302.424 16.6883ZM252.47 21.3539L252.296 21.2844L252.273 21.3213L236.883 17.3419L263.325 4.24383L282.693 9.13997L252.47 21.3539ZM240.01 1.37296L217.921 14.6483L217.718 14.621L217.706 14.6582L201.208 14.3279L219.401 1.02853L240.01 1.37296ZM199.76 14.299L199.545 14.2947L199.537 14.3313L182.793 15.8015L196.892 3.05402L217.723 1.16779L199.76 14.299ZM181.347 15.9283L181.122 15.9482L181.119 15.9851L164.31 19.2289L174.441 7.42618L195.244 3.36343L181.347 15.9283ZM110.063 41.0725L109.919 41.148L109.938 41.1838L94.6632 51.113L91.1017 46.0628L109.555 34.0495L110.063 41.0725ZM90.3943 46.5719L93.9319 51.5883L93.9178 51.5974L93.9437 51.6315L79.7524 62.8873L79.7254 62.8609L79.6332 62.9497L73.2761 60.1626L90.3943 46.5719ZM56.1906 76.5484L65.2994 76.8717L54.1185 89.9589L54.0862 89.9416L53.967 90.1134L42.5615 92.5055L56.1906 76.5484ZM41.6457 93.6012L53.233 91.171L43.7047 104.899L43.6695 104.886L43.5659 105.075L29.9697 110.431L41.6457 93.6012ZM29.0879 111.726L42.9019 106.285L35.0832 120.531L35.0454 120.522L34.9633 120.72L19.4518 129.266L29.0879 111.726ZM18.683 130.694L34.4239 122.023L28.3656 136.649L28.325 136.644L28.2668 136.848L11.1739 148.772L18.683 130.694ZM10.5705 150.264L27.8847 138.185L23.6401 153.042L23.5966 153.042L23.5639 153.249L5.27632 168.688L10.5705 150.264ZM4.86331 170.184L23.3537 154.573L20.9857 169.497L20.9393 169.503L20.9329 169.709L1.87457 188.757L4.86331 170.184ZM1.65994 190.208L20.8942 170.984L20.4442 185.804L20.3947 185.815L20.4158 186.019L1.03664 208.698L1.65994 190.208ZM1.01173 210.071L20.5399 187.218L22.0438 201.75L21.992 201.767L22.0411 201.966L2.81031 228.241L1.01173 210.071ZM2.96079 229.512L22.3135 203.069L25.7803 217.106L25.7269 217.129L25.8039 217.319L7.20437 247.123L2.96079 229.512ZM7.5106 248.276L26.2084 218.315L31.6318 231.665L31.5776 231.696L31.682 231.873L14.1873 265.076L7.5106 248.276ZM113.431 348.83L111.749 346.935L131.759 351.466L133.438 353.376L113.431 348.83ZM134.872 353.685L133.056 351.619L154.357 353.81L156.162 355.891L134.872 353.685ZM157.413 356.001L155.52 353.818L177.735 353.537L179.613 355.733L157.413 356.001ZM180.731 355.697L178.793 353.43L201.526 350.611L201.546 350.634L203.45 352.895L180.731 355.697ZM204.465 352.744L202.499 350.41L225.369 345.034L227.316 347.388L204.465 352.744ZM249.707 336.512L271.648 326.213L273.609 328.672L251.684 338.946L249.707 336.512ZM314.182 297.542L331.882 281.085L333.796 283.639L316.117 300.069L314.182 297.542ZM334.406 282.999L332.524 280.488L332.5 280.455L348.118 262.454L350.006 265.025L334.406 282.999ZM350.553 264.297L348.704 261.779L348.681 261.748L361.947 242.526L363.801 245.097L350.553 264.297ZM364.279 244.27L362.45 241.735L373.137 221.639L374.947 224.195L364.279 244.27ZM373.595 220.778L373.575 220.748L381.513 200.148L383.273 202.672L375.344 223.248L373.595 220.778ZM388.815 179.592L387.223 177.278L389.432 156.885L391.012 159.211L388.815 179.592Z" fill="#FFA234"/>
</svg>
