<svg width="466" height="477" viewBox="0 0 466 477" fill="none" xmlns="http://www.w3.org/2000/svg">
<path d="M465.974 298.434L465.951 298.181L466 296.907L465.847 297.04L464.07 277.473L464.102 277.445L464.041 277.148L463.943 276.075L463.922 276.094L459.432 236.212L459.536 236.258L459.319 235.203L459.292 234.903L459.254 234.886L455.836 218.272L455.952 218.312L455.63 217.276L455.57 216.983L455.536 216.972L450.17 199.699L450.274 199.722L449.873 198.745L449.781 198.449L448.389 193.969L448.498 195.393L442.481 180.724L442.569 180.732L442.118 179.839L441.995 179.538L441.991 179.538L440.945 176.979L440.961 177.551L432.908 161.625L432.982 161.62L432.507 160.832L432.348 160.517L432.344 160.518L431.556 158.951L431.542 159.228L421.577 142.673L421.635 142.66L421.289 142.166L421.162 141.982L420.961 141.648L420.403 140.722L420.377 140.861L408.664 124.124L408.708 124.104L408.26 123.546L407.671 122.705L407.642 122.777L404.672 119.083L394.339 106.231L394.372 106.207L394.269 106.096L393.955 105.753L393.519 105.211L393.491 105.247L385.727 96.7887L378.92 89.3715L378.958 89.3462L378.837 89.2308L378.457 88.8668L378.042 88.4146L378.016 88.4447L362.679 73.7761L362.752 73.7529L361.972 73.1L361.452 72.6033L361.429 72.6458L358.517 70.2102L345.767 59.5445L345.907 59.5299L345.037 58.8987L344.719 58.6673L344.09 58.1411L344.071 58.1977L330.848 48.6031L328.443 46.858L328.717 46.8657L327.233 45.9484L326.934 45.7635L326.81 45.6732L326.191 45.2247L326.181 45.2978L311.016 35.9219L311.582 35.9851L308.852 34.5839L308.002 34.0582L308.002 34.1477L293.918 26.9191L295.307 27.1418L290.71 25.273L289.775 24.7936L289.789 24.8989L274.259 18.5853L273.061 18.0983L273.052 18.0629L272.766 17.9783L271.765 17.5714L271.794 17.6913L259.234 13.9815L255.577 12.9013L255.563 12.8616L255.263 12.8087L254.238 12.5058L254.276 12.6146L215.092 4.89243L215.111 4.87394L214.052 4.68722L213.765 4.60265L213.736 4.63114L194.447 1.23035L194.59 1.08859L193.326 1.03286L193.074 0.988524L193.042 1.02035L175.038 0.227164L175.267 0L173.736 0.164065L173.698 0.168096L173.492 0.159067L173.457 0.193952L168.969 0.67483L157.118 1.94466L157.546 1.51888L155.536 2.10032L155.46 2.12228L155.313 2.13813L151.353 2.56238L152.998 2.8345L141.061 6.28768L142.103 5.25025L138.883 6.91797L136.376 7.64305L137.247 7.76521L124.427 14.4039L124.36 14.3965L124.221 14.5111L122.602 15.3494L123.134 15.4078L111.95 24.6345L111.875 24.629L111.727 24.8181L110.68 25.682L110.854 25.6949L100.107 36.4416L82.6023 53.9389L71.2429 65.2939L53.8467 82.6773L42.3512 94.1672L26.3492 110.156L26.3329 109.935L25.467 111.034L25.2879 111.182L25.2931 111.254L16.1291 122.877L16.0702 122.353L15.2401 124.005L15.1306 124.144L15.1379 124.208L8.3653 137.687L8.24642 136.878L7.56204 139.248L7.53616 139.338L7.47845 139.452L7.47983 139.461L5.98583 142.424L6.91157 141.501L3.17428 154.444L2.93042 153.065L2.48395 156.835L2.46014 156.917L1.88925 158.895L2.28687 158.5L1.45898 165.49L0.214653 175.995L0.181298 176.028L0.186423 176.233L0 177.806L0.219778 177.589L0.695863 196.979L0.664867 197.01L0.702927 197.264L0.734207 198.537L0.872876 198.401L3.99803 219.299L3.96925 219.327L4.04592 219.619L4.2055 220.686L4.27345 220.619L11.3483 251.833L12.5063 256.944L12.4682 256.932L12.7219 257.898L12.7701 258.219L12.8094 258.232L17.401 275.731L17.2972 275.711L17.6377 276.633L17.7217 276.953L17.7584 276.96L21.7929 287.894L24.4189 295.01L24.3296 295.004L24.7314 295.857L24.8503 296.179L24.8842 296.181L33.516 314.496L33.4406 314.502L33.8761 315.26L34.0343 315.595L34.0367 315.595L35.4648 318.631L35.3512 317.826L44.575 333.876L44.5146 333.891L44.9607 334.547L45.1637 334.9L45.1669 334.9L46.0781 336.491L46.0681 336.175L50.5948 342.83L57.4129 352.854L57.3659 352.876L57.8001 353.423L58.5663 354.55L58.5902 354.419L59.3648 355.396L71.8353 371.12L71.8 371.146L72.2137 371.597L72.6943 372.203L72.7252 372.154L87.4653 388.217L87.4155 388.244L87.5898 388.408L87.9737 388.771L88.3871 389.222L88.4158 389.189L103.907 403.824L103.777 403.838L104.467 404.399L104.826 404.692L104.999 404.856L105.333 405.171L105.359 405.126L120.993 417.862L120.681 417.827L122.513 419.1L123.124 419.598L123.144 419.539L138.344 430.105L137.563 429.928L140.758 431.784L141.474 432.281L141.487 432.207L149.399 436.801L158.968 442.358L158.967 442.392L159.278 442.538L160.089 443.009L160.091 442.92L160.204 442.972L177.474 451.076L177.478 451.114L177.791 451.225L178.676 451.64L178.665 451.536L195.671 457.585L195.68 457.625L195.991 457.699L196.933 458.033L196.924 457.993L232.264 469.171L232.193 469.233L233.238 469.48L233.522 469.581L233.552 469.555L254.067 474.417L253.92 474.543L255.179 474.68L255.428 474.739L255.461 474.711L257.718 474.956L274.698 476.8L274.466 477L275.988 476.947L276.038 476.945L276.243 476.967L276.278 476.937L284.961 476.631L293.838 476.319L293.416 476.683L295.42 476.278L295.503 476.261L295.655 476.256L299.301 476.127L297.943 475.768L311.115 473.107L310.132 473.949L313.185 472.712L313.304 472.664L315.815 472.157L315.017 471.97L320.643 469.691L328.971 466.317L329.034 466.33L329.181 466.232L330.896 465.537L330.378 465.434L342.679 457.241L342.75 457.252L342.911 457.086L344.078 456.309L343.855 456.274L373.388 430.989L404.26 404.556L434.604 378.587L434.602 378.758L435.544 377.787L435.745 377.654L435.746 377.579L445.85 367.158L445.865 367.691L446.828 366.15L446.954 366.02L446.952 365.951L454.617 353.687L454.666 354.564L455.559 352.211L455.591 352.128L455.657 352.021L455.657 352.013L457.532 349.021L456.402 349.99L460.823 338.343L460.957 339.995L461.703 336.096L461.731 335.95L462.506 333.906L462.046 334.302L462.458 332.146L465.142 318.112L465.18 318.08L465.188 317.875L465.195 317.835L465.486 316.314L465.24 316.526L465.94 298.464L465.974 298.434ZM461.41 331.591L460.207 316.827L457.43 282.723L457.536 282.448L457.477 282.403L459.395 272.506L459.485 272.043L464.05 317.784L461.41 331.591ZM446.897 363.898L445.361 306.963L445.585 306.737L445.509 306.659L450.84 298.27L451.413 297.369L454.505 351.723L446.897 363.898ZM396.494 409.71L372.707 430.081L366.858 433.971L388.701 415.25L390.633 413.597L396.494 409.71ZM365.547 436.207L342.236 456.17L336.423 460.042L358.151 441.426L359.735 440.072L365.547 436.207ZM277.652 475.749L278.809 474.75L306.697 450.65L306.733 450.619L308.851 450.553L324.335 450.076L295.219 475.132L277.652 475.749ZM73.357 371.163L79.0156 362.277L88.4405 372.554L97.7342 382.688L88.4972 387.662L73.357 371.163ZM44.8021 331.994L34.9248 314.807L31.9526 293.763L44.1208 314.924L44.0945 314.949L44.2742 315.213L44.8021 331.994ZM1.32685 176.493L28.6168 149.471L28.8338 149.256L29.3935 168.71L1.80321 195.889L1.32685 176.493ZM26.2745 111.837L47.9113 90.2153L44.7188 94.2732L43.709 95.5566L22.085 117.154L26.2745 111.837ZM76.7207 61.4234L73.8855 65.0348L72.4971 66.8029L71.646 67.6532L50.4407 88.8326L54.6466 83.4845L76.7207 61.4234ZM113.588 24.7558L124.711 15.5806L181.621 21.8249L176.431 26.1979L173.146 28.965L173.057 28.8736L172.846 29.1485L143.008 26.9367L113.588 24.7558ZM139.193 8.03828L192.852 15.5701L185.565 19.4107L183.138 20.6896L183.067 20.6067L182.824 20.8117L126.468 14.6278L139.193 8.03828ZM159.787 2.80354L173.693 1.31365L218.67 9.58872L208.221 10.7416L208.181 10.6801L207.9 10.7631L186.074 7.15248L159.787 2.80354ZM273.393 19.4616L289.959 26.1961L294.806 63.2796L287.73 60.4269L283.135 58.5741L283.152 58.5208L282.904 58.4486L278.781 41.5471L273.393 19.4616ZM360.869 73.6589L347.369 98.086L339.709 91.6903L335.694 88.3374L335.716 88.3061L335.594 88.218L344.652 60.0936L360.869 73.6589ZM419.742 141.934L409.9 144.238L391.045 148.654L390.968 148.525L390.935 148.544L390.788 148.333L382.211 136.06L407.611 124.599L419.742 141.934ZM5.23423 219.679L33.1013 192.392L33.5113 193.93L38.9977 214.503L21.5912 231.43L11.0217 241.708L5.23423 219.679ZM112.393 25.8087L172.02 30.2289L169.89 33.0149L165.058 39.335L164.95 39.2395L164.786 39.5845L103.646 37.5165L103.239 37.5027L112.393 25.8087ZM233.277 468.286L211.871 460.673L241.16 434.888L246.939 436.967L262.646 442.619L233.277 468.286ZM61.6741 338.68L90.2441 311.853L90.278 311.821L105.951 331.545L107.735 333.79L107.707 333.816L78.9971 360.514L61.6741 338.68ZM39.3333 215.762L39.4042 215.693L47.9318 238.565L38.8262 247.35L19.7826 265.72L11.3807 242.944L39.3333 215.762ZM358.771 110.492L313.824 155.719L306.5 148.734L331.554 118.884L347.578 99.7928L358.771 110.492ZM405.23 176.65L345.225 200.528L341.058 192.164L398.778 163.835L405.23 176.65ZM434.824 315.814L424.804 322.271L420.225 316.144L393.859 280.866L401.003 276.384L434.824 315.814ZM263.627 441.762L242.136 434.03L251.408 425.868L271.814 407.907L271.843 407.882L293.407 415.732L293.308 415.818L263.627 441.762ZM70.8803 70.0232L64.9074 82.0785L51.752 95.1926L38.5872 108.315L44.5982 96.2743L70.8803 70.0232ZM173.163 30.6047L209.518 67.6755L204.477 74.4422L169.249 43.0683L165.908 40.0923L173.163 30.6047ZM261.507 121.354L254.01 119.239L270.116 55.9147L281.71 59.287L261.507 121.354ZM390.01 412.636L377.505 417.628L406.115 393.07L406.386 393.019L406.393 392.941L418.671 388.09L390.01 412.636ZM149.573 374.773L129.183 355.496L158.457 328.539L162.088 331.977L178.974 347.968L178.94 347.999L149.573 374.773ZM40.2927 214.829L68.6477 187.266L68.7179 187.199L73.7313 200.519L77.3648 210.173L77.3389 210.198L48.8221 237.706L40.2927 214.829ZM100.08 40.8565L95.6229 49.9112L94.2486 52.7027L94.1704 52.7036L94.0968 52.97L67.4106 79.5824L73.3873 67.5192L100.08 40.8565ZM203.87 75.4234L200.155 83.4428L159.948 52.3595L165.323 41.093L203.87 75.4234ZM216.837 62.7055L217.65 124.01L213.963 127.262L210.845 67.8745L214.362 64.8403L216.837 62.7055ZM296.332 141.771L267.214 168.956L259.447 163.395L265.511 157.715L288.524 136.156L296.332 141.771ZM418.841 230.247L418.357 240.585L385.029 242.243L353.854 243.794L354.238 237.172L418.841 230.247ZM423.761 322.773L412.109 327.213L384.559 284.439L392.835 281.392L423.761 322.773ZM240.943 433.566L218.923 423.141L234.305 409.492L248.583 396.824L270.699 407.375L270.626 407.439L240.943 433.566ZM49.2812 238.842L77.8008 211.331L77.8554 211.278L87.1938 230.808L89.0198 234.627L88.9941 234.652L69.7103 253.097L60.3198 262.079L49.2812 238.842ZM63.23 162.898L91.8935 134.828L97.9634 156.924L97.911 156.941L97.9919 157.154L69.2384 185.107L63.23 162.898ZM236.628 54.4099L245.371 53.3702L236.905 117.62L230.899 118.408L235.937 54.4921L236.628 54.4099ZM351.216 251.131L326.987 272.908L322.918 273.575L323.228 272.17L352.326 245.99L351.216 251.131ZM195.662 409.62L225.223 383.156L225.25 383.133L234.607 388.639L247.526 396.242L247.469 396.293L217.833 422.588L195.662 409.62ZM228.096 120.358L207.373 140.094L207.403 139.975L209.335 135.743L224.154 121.617L228.096 120.358ZM332.115 246.523L322.986 254.771L321.59 247.359L351.015 220.699L352.454 228.147L332.115 246.523ZM139.28 306.012L168.838 278.531L187.489 298.858L188.189 299.621L158.496 326.958L139.28 306.012ZM69.6053 186.336L98.4314 158.311L107.133 181.214L107.086 181.233L107.172 181.411L94.2865 193.845L78.2542 209.315L69.6053 186.336ZM58.9307 119.457L87.2226 91.4405L87.9478 110.771L87.8836 110.782L87.9264 111.045L59.5741 138.973L58.9307 119.457ZM199.729 84.5502L197.396 93.741L156.165 66.4313L159.568 53.5031L199.729 84.5502ZM150.363 255.402L152.797 258.457L168.083 277.649L168.052 277.675L168.07 277.694L154.517 290.295L138.542 305.146L120.943 283.024L150.363 255.402ZM90.2964 71.2484L154.887 67.2902L153.732 79.5756L153.552 81.4902L153.42 81.417L153.443 81.9039L88.3788 89.4802L90.2964 71.2484ZM222.254 183.09L218.027 175.916L240.926 154.337L248.713 158.225L222.254 183.09ZM291.274 193.45L297.529 201.256L268.598 227.877L262.398 220.12L291.274 193.45ZM318.008 239.13L320.329 246.968L301.817 263.732L296.238 260.382L295.327 259.733L318.008 239.13ZM376.802 284.733L373.233 285.333L325.098 274.371L329.182 273.702L380.573 284.098L376.802 284.733ZM396.569 329.901L382.127 330.051L362.631 286.513L372.882 286.483L396.569 329.901ZM325.334 387.537L303.57 379.525L327.648 320.573L328.859 317.611L329.262 317.808L329.248 317.699L346.316 324.123L325.334 387.537ZM189.804 299.643L207.037 282.31L236.711 252.465L253.264 268.196L210.421 319.198L189.804 299.643ZM158.794 118.575L199.288 132.167L202.889 144.738L179.924 139.744L163.784 136.234L161.896 129.553L158.794 118.575ZM248.508 317.519L272.322 283.916L290.098 296.518L255.911 353.959L233.743 338.355L248.508 317.519ZM151.241 254.681L205.393 216.012L219.647 233.865L168.949 276.914L151.241 254.681ZM309.012 269.378L309.178 306.642L302.604 302.714L291.469 296.061L295.517 267.737L296.367 261.786L309.012 269.378ZM349.589 283.689L340.93 281.402L351.009 283.885L349.589 283.689ZM322.666 276.126L327.864 315.859L321.297 312.652L310.315 307.289L310.264 295.959L310.149 269.969L322.666 276.126ZM269.518 241.322L281.798 251.462L271.904 282.154L254.768 268.013L269.518 241.322ZM291.05 297.137L309.007 307.865L279.262 367.833L256.865 354.577L291.05 297.137ZM280.563 248.969L279.583 248.159L279.985 247.792L280.563 248.969ZM224.387 188.888L233.443 201.996L205.699 214.524L202.609 210.043L193.077 196.224L224.387 188.888ZM245.016 216.498L256.075 228.545L236.689 250.818L226.15 239.332L221.28 234.023L245.016 216.498ZM239.724 218.993L220.537 233.159L206.401 215.454L234.13 202.934L244.277 215.631L239.724 218.993ZM228.075 191.217L227.651 191.614L226.92 190.557L226.876 190.493L227.561 190.906L228.075 191.217ZM256.875 229.356L268.643 240.557L253.902 267.234L237.485 251.633L256.875 229.356ZM368.217 285.358L361.825 285.377L328.546 277.179L323.415 275.227L323.145 275.094L368.217 285.358ZM315.881 271.521L322.55 265.511L322.163 271.6L320 273.547L315.881 271.521ZM295.317 261.122L290.425 295.356L285.993 292.214L272.855 282.9L276.486 271.637L282.758 252.181L295.317 261.122ZM267.761 228.648L262.686 233.318L257.239 228.133L255.624 226.374L261.561 220.892L265.405 225.7L267.761 228.648ZM254.856 225.537L248.116 218.195L254.068 212.678L260.822 220.028L254.856 225.537ZM240.307 208.843L239.336 207.628L234.752 201.893L234.298 201.236L237.711 198.051L245.225 204.269L240.307 208.843ZM233.645 200.291L228.304 192.56L229.061 191.85L236.792 197.355L233.645 200.291ZM99.3985 157.662L162.995 137.422L170.156 155.972L108.186 180.793L99.3985 157.662ZM155.401 99.1193L154.65 83.3995L196.219 106.455L196.814 117.623L176.636 108.607L155.401 99.1193ZM164.24 137.498L203.278 145.988L208.349 159.009L171.289 155.756L164.24 137.498ZM199.851 129.024L199.451 126.747L197.994 118.456L197.909 116.851L199.851 129.024ZM170.61 157.017L179.786 175.844L119.945 205.326L108.637 181.838L170.61 157.017ZM207.374 153.378L205.697 149.072L207.862 147.013L213.95 147.136L207.374 153.378ZM205.625 147.573L205.649 147.285L205.975 147.241L205.625 147.573ZM204.415 145.781L204.233 145.313L202.797 140.3L198.795 115.212L197.339 106.088L197.887 99.6811L204.415 145.781ZM196.278 105.187L154.634 82.0902L155.989 67.6782L197.155 94.945L196.278 105.187ZM191.971 196.62L204.716 215.099L165.974 242.764L150.564 253.767L134.749 230.74L191.971 196.62ZM220.386 234.729L235.914 251.655L189.007 298.832L169.688 277.777L220.386 234.729ZM280.263 368.37L287.676 353.423L310.007 308.404L327.837 317.112L302.525 379.082L280.263 368.37ZM340.508 320.721L329.081 316.42L323.874 276.618L336.074 281.262L346.22 322.871L340.508 320.721ZM359.23 310.527L350.318 284.939L361.367 286.467L380.828 329.927L365.271 327.874L359.23 310.527ZM302.835 264.343L320.605 248.251L322 255.662L308.577 267.79L302.835 264.343ZM286.666 253.567L282.798 250.814L282.693 250.727L280.858 246.995L309.854 220.497L313.936 228.732L305.313 236.585L286.666 253.567ZM279.437 246.754L278.698 247.429L271.468 241.458L274.612 238.575L277.238 243.026L279.437 246.754ZM273.995 237.598L270.583 240.727L269.729 240.022L263.511 234.103L268.44 229.568L273.685 237.149L273.995 237.598ZM257.617 163.552L228.938 190.409L225.303 188.217L225.111 187.938L222.845 184.093L249.771 158.791L257.617 163.552ZM223.752 187.868L208.444 191.455L192.413 195.21L184.707 182.078L181.503 176.618L215.916 174.569L223.752 187.868ZM215.342 173.462L180.887 175.514L176.005 165.497L171.838 156.947L208.842 160.195L215.342 173.462ZM210.496 160.99L214.668 157.038L223.679 148.501L230.937 150.51L213.455 167.032L210.496 160.99ZM209.972 159.921L209.729 159.425L207.819 154.523L215.533 147.2L222.291 148.252L209.972 159.921ZM196.924 118.919L199.026 130.878L172.487 121.97L158.457 117.261L155.589 100.45L196.924 118.919ZM157.559 118.376L162.528 135.961L162.422 135.938L162.584 136.358L99.0448 156.58L92.8868 134.163L157.559 118.376ZM120.48 206.331L180.322 176.848L191.361 195.66L154.142 217.852L134.139 229.779L120.48 206.331ZM211.272 319.951L254.115 268.949L271.419 283.227L232.84 337.666L211.272 319.951ZM347.496 323.316L341.072 296.972L337.33 281.629L349.041 284.722L363.966 327.576L357.759 325.971L347.496 323.316ZM314.783 270.981L309.849 268.554L309.595 268.401L322.133 257.073L322.619 263.919L314.783 270.981ZM253.27 211.868L247.348 217.358L245.52 215.366L241.018 209.734L246.082 205.024L249.676 208.446L253.27 211.868ZM206.29 139.749L205.279 143.795L199.512 103.067L198.325 94.6882L199.823 88.7903L200.165 87.4434L206.29 139.749ZM88.3272 90.6327L153.497 83.0437L154.241 98.601L154.114 98.5442L154.198 99.0347L89.0749 110.571L88.3272 90.6327ZM78.7161 210.448L107.691 182.489L110.097 187.486L118.927 205.828L118.885 205.848L118.967 205.988L103.686 220.601L89.883 233.802L78.7161 210.448ZM226.14 382.336L256.127 355.501L256.259 355.594L256.283 355.554L278.538 368.726L248.42 395.449L226.14 382.336ZM331.297 272.968L335.559 271.429L390.842 280.914L383.653 283.56L331.297 272.968ZM345.133 262.688L339.579 267.671L337.403 269.009L346.169 261.139L345.364 262.343L345.133 262.688ZM321.727 273.711L321.516 273.711L321.779 273.475L321.727 273.711ZM317.622 237.944L294.379 259.059L287.613 254.242L314.41 229.837L315.678 233.038L317.622 237.944ZM308.756 218.535L309.303 219.46L280.293 245.972L275.467 237.791L304.43 211.231L308.756 218.535ZM274.84 236.823L269.284 228.791L298.21 202.175L303.813 210.255L274.84 236.823ZM246.064 203.488L238.548 197.27L266.386 171.283L267.283 170.446L274.847 176.72L246.064 203.488ZM237.64 196.563L229.908 191.058L240.74 180.913L258.601 164.188L266.366 169.748L237.64 196.563ZM215.124 146.021L209.035 145.898L237.63 118.703L243.733 118.852L215.124 146.021ZM235.754 118.92L207.384 145.9L205.871 146.106L206.859 142.153L230.535 119.604L235.754 118.92ZM211.498 132.111L213.064 129.967L218.56 124.727L220.215 123.801L211.498 132.111ZM209.082 133.566L207.192 137.704L204.062 110.977L200.953 84.4218L204.182 77.4487L209.082 133.566ZM119.555 206.998L126.031 218.116L133.164 230.361L133.127 230.383L133.195 230.483L127.102 236.26L103.965 258.197L90.4247 234.856L119.555 206.998ZM197.389 332.717L210.46 320.801L210.515 320.852L210.541 320.821L219.086 327.84L232.079 338.513L202.15 365.545L180.677 347.953L197.389 332.717ZM203.078 366.239L232.968 339.242L233.061 339.318L233.086 339.283L255.174 354.83L225.138 381.708L203.078 366.239ZM249.506 396.005L279.566 369.334L279.735 369.434L279.757 369.389L301.802 379.996L271.628 406.557L249.506 396.005ZM326.419 387.87L331.05 373.871L347.378 324.523L347.832 324.693L347.802 324.571L364.158 328.802L347.339 393.106L326.419 387.87ZM397.822 329.829L374.097 286.342L383.424 284.773L410.942 327.497L397.822 329.829ZM348.684 257.355L346.33 259.468L333.544 270.947L329.072 272.562L350.26 253.518L348.684 257.355ZM323.368 270.516L323.755 264.425L353.054 238.005L352.699 244.126L339.404 256.088L323.368 270.516ZM290.534 192.586L283.033 199.514L261.657 219.257L254.901 211.906L283.739 185.179L287.933 189.751L290.534 192.586ZM282.941 184.369L254.105 211.094L246.915 204.249L256.625 195.218L275.703 177.475L277.218 178.918L282.941 184.369ZM239.781 153.854L217.436 174.913L216.725 173.706L213.979 168.1L228.499 154.376L232.187 150.891L237.243 152.863L239.781 153.854ZM231.903 149.596L224.645 147.587L238.292 134.659L253.48 120.273L260.758 122.325L231.903 149.596ZM223.335 147.262L216.575 146.21L245.309 118.923L252.098 120.017L223.335 147.262ZM212.881 128.292L210.093 132.11L205.145 75.4457L209.78 69.2243L212.881 128.292ZM155.167 65.7701L155.038 65.6846L154.995 66.1428L141.952 66.9422L90.5416 70.0927L95.0351 53.8322L158.5 53.1072L155.167 65.7701ZM61.0213 100.104L89.0522 72.2369L87.2248 89.615L87.1546 89.6232L87.165 89.8986L59.0937 117.697L61.0213 100.104ZM89.1824 111.708L154.389 100.157L157.237 116.852L157.117 116.812L157.25 117.28L92.6458 133.049L89.1824 111.708ZM104.576 259.183L133.847 231.431L149.64 254.427L149.606 254.451L149.653 254.51L143.909 259.904L120.267 282.101L104.576 259.183ZM159.295 327.768L188.957 300.458L188.974 300.477L189.002 300.449L191.456 302.776L209.634 320.017L179.816 347.2L159.295 327.768ZM273.036 406.832L302.915 380.532L303.118 380.63L303.139 380.579L324.592 388.476L294.385 414.877L272.816 407.025L273.036 406.832ZM348.458 393.308L365.257 329.086L365.736 329.21L365.691 329.078L381.087 331.11L368.206 395.717L348.458 393.308ZM369.353 395.761L382.214 331.258L382.696 331.322L382.634 331.185L396.865 331.037L387.633 395.352L369.353 395.761ZM337.09 270.537L341.113 268.063L399.483 275.995L392.918 280.115L337.09 270.537ZM353.114 236.421L323.688 262.956L323.201 256.108L352.594 229.553L352.813 232.448L353.114 236.421ZM321.261 246.123L318.94 238.283L348.375 211.554L350.734 219.42L321.261 246.123ZM318.52 237.129L315.307 229.02L344.728 202.221L347.987 210.372L344.588 213.458L318.52 237.129ZM344.251 201.118L314.809 227.937L310.725 219.7L340.123 192.832L344.251 201.118ZM298.367 200.485L292.11 192.678L321.386 165.639L327.69 173.502L298.367 200.485ZM287.543 135.518L258.479 162.744L250.631 157.982L260.383 148.819L279.654 130.71L284.731 133.805L287.543 135.518ZM278.598 130.142L249.597 157.395L241.807 153.505L242.469 152.882L270.775 126.207L276.701 129.187L278.598 130.142ZM244.655 117.736L238.055 117.574L246.523 53.3061L256.834 53.6737L244.655 117.736ZM93.4845 55.1852L89.3449 70.1664L89.2696 70.171L89.2404 70.4482L76.7539 82.8617L61.6093 97.9172L65.8785 82.7151L93.4845 55.1852ZM60.8595 263.135L89.5358 235.706L89.5809 235.663L91.7011 239.318L103.118 258.999L103.092 259.024L74.2619 286.343L60.8595 263.135ZM172.706 393.663L202.186 367.044L202.212 367.02L212.169 374.002L224.268 382.486L224.222 382.528L194.658 408.994L172.706 393.663ZM325.808 388.924L326.041 389.01L326.06 388.953L338.739 392.127L346.548 394.081L316.356 420.31L295.703 415.234L325.808 388.924ZM405.337 392.059L388.8 395.203L398.012 331.025L398.472 331.02L398.397 330.883L398.623 330.843L411.248 328.6L405.337 392.059ZM348.919 262.815L346.565 262.59L349.449 258.277L412.036 261.516L407.527 268.438L348.919 262.815ZM412.674 260.409L349.988 257.165L352.11 252.003L415.924 252.212L413.177 259.14L412.674 260.409ZM310.159 218.678L305.285 210.447L334.642 183.525L339.57 191.798L310.159 218.678ZM304.657 209.481L299.053 201.398L328.371 174.42L334.022 182.551L304.657 209.481ZM320.646 164.775L302.694 181.355L291.369 191.815L284.572 184.407L296.95 172.935L313.802 157.318L318.638 162.587L320.646 164.775ZM313.004 156.507L283.776 183.595L276.537 176.7L305.717 149.558L312.347 155.88L313.004 156.507ZM275.687 175.939L268.121 169.664L297.248 142.471L304.862 148.802L275.687 175.939ZM269.634 125.72L240.697 152.99L233.102 150.026L262.005 122.711L268.798 125.39L269.634 125.72ZM223.301 120.774L218.775 123.303L217.959 61.8174L225.213 57.8813L223.301 120.774ZM59.6558 140.487L88.1493 112.42L91.3218 131.97L91.5408 133.319L91.4828 133.333L91.5492 133.575L82.0405 142.887L62.984 161.548L59.6558 140.487ZM74.8723 287.33L103.742 259.973L107.888 266.028L119.429 282.887L119.409 282.906L119.403 282.912L112.474 289.419L90.433 310.116L74.8723 287.33ZM91.1086 311.041L120.113 283.804L137.708 305.922L108.57 333.014L91.1086 311.041ZM138.418 306.814L138.448 306.786L156.481 326.442L157.66 327.727L157.63 327.755L128.384 354.687L109.307 333.881L138.418 306.814ZM159.28 367.461L179.828 348.727L201.297 366.316L201.258 366.351L171.776 392.971L150.435 375.526L159.28 367.461ZM317.85 420.517L347.894 394.418L348.151 394.482L348.168 394.419L359.887 395.849L367.315 396.756L337.197 422.783L317.85 420.517ZM400.916 275.041L369.56 270.779L342.23 267.065L345.768 263.657L406.548 269.488L405.193 270.823L400.916 275.041ZM373.29 233.985L354.221 236.029L353.676 228.83L417.873 217.911L418.826 229.103L373.29 233.985ZM252.903 118.993L245.788 117.847L245.952 116.988L257.968 53.7828L269.01 55.6623L252.903 118.993ZM234.778 54.7693L229.744 118.637L224.449 120.328L226.364 57.3361L227.49 56.9928L234.778 54.7693ZM164.251 40.706L159.03 51.6497L158.908 51.5561L158.801 51.9651L95.5207 52.6881L102.449 38.6151L164.251 40.706ZM59.7413 101.377L57.8144 118.964L30.109 146.395L32.1093 128.851L59.7413 101.377ZM29.9366 148.164L57.6177 120.757L57.832 120.546L58.4752 140.055L30.4965 167.624L29.9366 148.164ZM204.345 436.076L217.998 423.962L240.013 434.384L210.675 460.212L188.748 449.917L204.345 436.076ZM338.954 422.766L339.993 421.869L368.838 396.941L369.111 396.975L369.125 396.905L386.552 396.515L356.597 422.297L338.954 422.766ZM358.807 421.894L388.341 396.475L388.619 396.469L388.629 396.394L403.873 393.496L374.286 418.893L358.807 421.894ZM421.071 385.917L406.512 391.67L411.592 337.131L412.406 328.394L412.822 328.32L412.739 328.191L424.059 323.877L421.071 385.917ZM413.792 260.899L414.064 260.481L413.87 260.471L417.008 252.557L456.172 282.832L451.644 294.607L413.792 260.899ZM416.297 251.075L352.434 250.865L353.713 244.941L418.198 241.733L418.001 242.701L416.297 251.075ZM353.523 227.701L352.04 220.029L415.323 204.918L417.713 216.784L353.523 227.701ZM415.043 203.815L351.769 218.923L349.364 210.903L411.246 191.447L415.043 203.815ZM410.863 190.374L348.991 209.827L345.689 201.568L405.704 177.686L410.863 190.374ZM380.534 135.71L370.311 143.005L328.572 172.787L322.237 164.884L370.836 123.639L380.534 135.71ZM343.687 145.189L321.496 164.021L314.619 156.529L359.566 111.304L370.095 122.777L343.687 145.189ZM288.282 134.637L280.319 129.783L291.415 107.284L308.953 71.7254L321.156 79.2367L288.282 134.637ZM307.963 71.1667L279.325 129.234L271.398 125.246L284.71 92.3398L295.787 64.9586L307.963 71.1667ZM256.624 52.5269L246.673 52.1718L246.686 52.0671L246.343 52.108L223.563 10.3421L238.017 10.9647L256.624 52.5269ZM245.128 52.2528L236.029 53.3347L236.04 53.1945L235.653 53.3125L224.706 36.3252L208.911 11.8114L222.268 10.3377L245.128 52.2528ZM37.0318 111.47L63.3374 85.2479L63.336 85.2507L64.2422 84.3471L63.9369 85.4337L59.9747 99.542L32.7093 126.653L37.0318 111.47ZM30.5718 169.144L58.6627 141.466L61.9897 162.522L50.9435 173.336L33.7909 190.127L30.5718 169.144ZM34.032 191.481L62.2072 163.899L62.3013 163.807L66.259 178.436L68.3083 186.011L68.2809 186.038L55.6973 198.27L39.9301 213.597L34.032 191.481ZM20.2386 266.86L48.3647 239.726L48.4198 239.674L51.1576 245.436L59.4562 262.905L59.4303 262.93L31.1567 289.979L20.2386 266.86ZM31.6942 291.038L60.0153 263.943L73.4149 287.146L44.968 314.121L31.6942 291.038ZM142.75 420.719L171.84 394.445L193.787 409.773L164.578 435.903L142.75 420.719ZM165.584 436.528L194.771 410.418L216.939 423.382L187.655 449.366L165.584 436.528ZM294.656 416.149L315.304 421.223L285.532 447.08L264.95 442.115L294.656 416.149ZM302.997 433.417L316.687 421.527L328.167 422.872L336.028 423.793L335.801 423.989L306.332 449.462L287.033 447.282L302.997 433.417ZM374.837 419.917L376.529 419.242L387.333 414.93L359.113 439.111L346.622 444.132L374.837 419.917ZM432.451 249.424L419.531 240.865L419.601 240.523L419.495 240.529L419.962 230.551L459.721 252.606L459.138 267.105L432.451 249.424ZM398.227 162.838L340.513 191.164L335.55 182.833L390.577 150.08L398.227 162.838ZM389.957 149.126L334.935 181.875L329.252 173.699L381.217 136.619L389.957 149.126ZM305.65 147.979L297.993 141.613L304.048 133.056L335.035 89.2685L346.731 99.0345L305.65 147.979ZM334.138 88.5696L297.093 140.918L289.23 135.264L307.01 105.3L322.101 79.8693L334.138 88.5696ZM294.755 64.4861L270.362 124.784L262.582 121.715L266.248 110.454L282.782 59.6588L294.755 64.4861ZM207.689 12.0121L234.524 53.6565L226.401 56.1353L226.407 55.9396L225.97 56.1765L195.621 15.5667L207.689 12.0121ZM224.961 56.7235L217.519 60.7613L185.062 22.9323L183.898 21.5752L194.513 15.9808L224.961 56.7235ZM182.939 22.2012L216.587 61.4195L210.296 66.8465L185.289 41.3468L173.945 29.7791L182.939 22.2012ZM73.9991 288.158L74.0378 288.121L84.7054 303.742L89.5953 310.903L60.9996 337.754L45.577 315.109L73.9991 288.158ZM79.7343 361.38L108.475 334.654L127.548 355.456L127.517 355.485L98.6805 382.039L79.7343 361.38ZM99.48 382.847L109.635 373.496L128.345 356.268L148.731 375.541L119.738 401.978L99.48 382.847ZM120.601 402.729L129.154 394.931L149.586 376.3L170.923 393.742L170.883 393.777L141.819 420.028L120.601 402.729ZM319.038 439.982L337.595 423.941L355.231 423.472L354.819 423.827L354.82 423.827L325.708 448.895L308.099 449.438L319.038 439.982ZM357.029 423.424L357.068 423.391L367.044 421.456L372.54 420.391L343.38 445.416L327.931 448.48L357.029 423.424ZM422.24 385.22L424.998 327.953L425.215 323.436L425.573 323.3L425.487 323.184L435.104 316.987L434.616 377.037L422.24 385.22ZM435.709 315.102L401.891 275.675L407.807 269.842L443.99 306.733L435.709 315.102ZM444.693 305.827L408.539 268.965L413.165 261.862L451.141 295.681L444.693 305.827ZM456.473 281.627L417.444 251.457L417.594 251.079L417.453 251.079L419.287 242.067L459.035 268.401L456.473 281.627ZM458.223 235.671L459.64 251.26L420.021 229.283L420.036 228.974L419.954 228.983L419.032 218.159L458.223 235.671ZM268.859 54.4816L258.181 52.6643L258.196 52.583L257.888 52.572L239.347 11.1576L254.712 13.8678L268.859 54.4816ZM457.979 234.316L424.235 219.238L418.921 216.863L418.897 216.583L418.832 216.594L416.512 205.079L454.592 217.855L457.979 234.316ZM454.21 216.527L440.071 211.783L416.253 203.792L416.202 203.538L416.148 203.551L412.628 192.083L412.447 191.494L448.895 199.422L454.21 216.527ZM438.74 196.048L412.064 190.246L411.994 190.018L411.948 190.032L406.892 177.598L441.209 180.612L448.403 198.149L438.74 196.048ZM429.297 178.423L406.411 176.413L406.329 176.213L406.289 176.229L399.927 163.594L431.674 161.698L440.634 179.419L429.297 178.423ZM431.04 160.595L414.799 161.565L399.37 162.486L399.285 162.319L399.25 162.336L393.73 153.131L391.66 149.679L420.416 142.945L431.04 160.595ZM406.903 123.67L381.548 135.111L381.49 135.028L381.46 135.049L371.726 122.934L393.425 106.907L406.903 123.67ZM379.746 115.597L371.014 122.047L370.99 122.018L370.962 122.042L364.262 114.741L360.367 110.497L360.393 110.471L360.367 110.446L378.064 90.1191L392.68 106.044L379.746 115.597ZM377.268 89.3029L359.545 109.66L350.557 101.068L348.31 98.9205L348.334 98.8922L348.256 98.8273L361.732 74.4435L377.268 89.3029ZM343.705 59.3364L334.627 87.5194L332.802 86.2008L322.683 78.8875L322.704 78.853L322.544 78.7549L327.047 47.2505L343.705 59.3364ZM326.005 46.5267L321.491 78.1068L309.458 70.7007L309.477 70.6619L309.286 70.5643L309.144 36.1019L326.005 46.5267ZM308.008 35.4291L308.149 69.9848L296.216 63.9L296.233 63.8557L296.013 63.7668L291.181 26.7926L308.008 35.4291ZM272.106 18.9701L281.647 58.083L270.397 54.8106L270.413 54.7461L270.136 54.699L265.372 41.0226L256.038 14.2236L272.106 18.9701ZM193.155 2.15875L230.833 9.51555L222.927 9.17491L222.898 9.12231L222.603 9.15491L181.903 1.66677L193.155 2.15875ZM155.604 3.26561L205.391 11.5022L196.816 14.0281L194.894 14.594L194.841 14.5222L194.575 14.6622L141.81 7.25611L155.604 3.26561ZM105.924 32.2308L101.834 37.4549L101.756 37.4521L101.636 37.6968L98.2789 41.0499L79.1764 60.1309L83.4023 54.7461L105.924 32.2308ZM16.1848 124.652L42.0687 98.8005L36.062 110.832L10.1454 136.672L16.1848 124.652ZM8.56905 139.848L35.3851 113.112L31.0643 128.288L24.7425 134.573L4.19375 155.001L8.56905 139.848ZM3.58106 157.213L30.4281 130.523L30.822 130.131L28.8224 147.668L28.7889 147.701L6.48699 169.784L1.508 174.714L3.58106 157.213ZM1.8724 197.416L29.5753 170.126L29.6763 170.784L32.7936 191.103L32.7648 191.131L4.99824 218.32L1.8724 197.416ZM18.7325 276.339L13.0832 250.837L13.7623 252.678L18.8907 266.581L18.8644 266.606L19.0088 266.912L20.9675 276.839L23.3192 288.759L18.7325 276.339ZM25.7964 295.455L20.9942 271.116L29.562 289.259L30.2925 290.806L30.2665 290.831L30.4345 291.123L33.2928 311.361L25.7964 295.455ZM46.0016 334.059L45.4635 316.959L53.6448 328.972L60.1617 338.541L60.1346 338.567L60.3001 338.775L59.2163 344.699L57.949 351.623L46.0016 334.059ZM58.8619 352.935L61.2369 339.956L78.1631 361.29L78.1343 361.317L78.2212 361.411L76.136 364.685L72.5934 370.248L58.8619 352.935ZM95.8503 384.994L98.5277 383.552L98.6131 383.646L98.6418 383.619L112.85 397.036L118.44 402.315L105.398 403.669L89.3405 388.499L95.8503 384.994ZM119.532 403.346L119.725 403.528L119.752 403.503L130.678 412.412L139.979 419.995L123.08 418.097L106.62 404.687L119.532 403.346ZM125.023 419.46L141.609 421.324L141.856 421.526L141.884 421.501L159.42 433.7L161.905 435.429L141.294 430.771L125.023 419.46ZM144.561 432.677L164.39 437.158L164.666 437.35L164.693 437.326L183.513 448.273L159.763 441.505L144.561 432.677ZM166.152 444.507L181.598 448.905L187.492 450.587L187.794 450.763L187.822 450.739L203.058 457.893L178.243 450.18L166.152 444.507ZM234.605 468.634L250.211 454.995L263.9 443.033L269.973 444.498L284.477 447.996L284.332 448.122L255.125 473.497L234.605 468.634ZM256.633 473.693L268.847 463.082L285.866 448.296L287.036 448.428L305.159 450.476L275.876 475.782L256.633 473.693ZM297.457 474.705L306.938 466.546L326.18 449.987L338.184 447.607L341.622 446.926L312.884 471.588L297.457 474.705ZM338.081 451.462L343.891 446.476L343.933 446.44L356.415 441.422L328.617 465.233L316.148 470.284L338.081 451.462ZM403.58 403.648L397.696 407.55L419.673 388.723L421.909 386.81L422.168 386.708L422.172 386.629L427.84 382.881L403.58 403.648ZM435.759 375.933L436.243 316.252L436.535 316.065L436.451 315.967L438.096 314.305L444.257 308.079L445.808 365.569L435.759 375.933ZM454.106 324.751L452.455 295.728L452.617 295.474L452.549 295.414L456.491 285.164L460.608 335.711L455.496 349.181L454.106 324.751ZM460.237 268.162L460.293 267.87L460.244 267.837L460.246 267.784L460.566 259.813L464.816 298.173L464.374 309.603L460.237 268.162Z" fill="#FFA234"/>
</svg>
