<svg width="310" height="255" viewBox="0 0 310 255" fill="none" xmlns="http://www.w3.org/2000/svg">
<path d="M384.447 150.438C384.122 150.438 383.81 150.261 383.654 149.951L375.969 134.88L360.91 94.0301C360.741 93.5723 360.969 93.065 361.424 92.8876C361.876 92.7103 362.388 92.933 362.574 93.3826L385.274 149.205C385.455 149.65 385.254 150.158 384.82 150.356C384.698 150.413 384.573 150.438 384.447 150.438Z" fill="#FFA234"/>
<path d="M388.515 207.741C388.048 207.741 387.657 207.378 387.625 206.908L383.556 149.605C383.521 149.122 383.881 148.697 384.367 148.652C384.856 148.574 385.282 148.957 385.333 149.444L389.402 186.293L389.408 206.846C389.408 207.328 389.027 207.724 388.546 207.741L388.515 207.741Z" fill="#FFA234"/>
<path d="M385.557 239.991C385.537 239.991 385.514 239.991 385.492 239.987C385.006 239.954 384.64 239.533 384.667 239.047L387.625 186.342C387.653 185.86 388.059 185.526 388.54 185.497C389.023 185.509 389.408 185.909 389.408 186.392L389.408 206.846C389.408 206.875 389.406 206.899 389.404 206.928L386.446 239.178C386.403 239.64 386.016 239.991 385.557 239.991Z" fill="#FFA234"/>
<path d="M306.505 357.995C306.27 357.995 306.038 357.905 305.863 357.723C305.53 357.377 305.53 356.828 305.861 356.482L345.613 314.823C345.927 314.497 346.441 314.456 346.801 314.733C347.163 315.013 347.256 315.52 347.015 315.912L338.65 329.527C338.605 329.602 338.549 329.668 338.486 329.725L307.099 357.769C306.929 357.921 306.717 357.995 306.505 357.995ZM341.081 322.161L322.64 341.485L337.2 328.476L341.081 322.161Z" fill="#FFA234"/>
<path d="M337.892 329.953C337.719 329.953 337.544 329.903 337.39 329.796C336.995 329.528 336.882 328.996 337.133 328.588L345.498 314.972C345.518 314.939 345.541 314.906 345.566 314.877L367.411 287.993C367.715 287.61 368.273 287.556 368.651 287.853C369.033 288.154 369.107 288.703 368.815 289.095L338.605 329.594C338.431 329.829 338.163 329.953 337.892 329.953Z" fill="#FFA234"/>
<path d="M13.4735 259.661C13.1465 259.661 12.8359 259.48 12.6796 259.175L5.00165 244.112C4.95229 244.013 4.92144 243.91 4.9091 243.802L0.834615 206.945C0.781119 206.475 1.10611 206.042 1.573 205.963C2.04402 205.881 2.48622 206.186 2.59111 206.648L14.3436 258.568C14.4444 259.01 14.2017 259.455 13.7779 259.608C13.6771 259.645 13.5743 259.661 13.4735 259.661ZM6.66353 243.444L11.026 252.002L4.34965 222.499L6.66353 243.444Z" fill="#FFA234"/>
<path d="M242.804 11.3235C242.755 11.3235 242.706 11.3194 242.654 11.3112L186.605 1.77923C186.134 1.69674 185.809 1.25951 185.871 0.785201C185.93 0.310893 186.342 -0.0438469 186.831 0.00565351L234.96 4.09312C235.112 4.1055 235.26 4.15904 235.388 4.24567L243.308 9.69013C243.654 9.92935 243.79 10.3748 243.631 10.7625C243.493 11.1048 243.162 11.3235 242.804 11.3235ZM207.963 3.59405L238.952 8.86528L234.573 5.85432L207.963 3.59405Z" fill="#FFA234"/>
<path d="M286.846 24.4274C286.762 24.4274 286.678 24.4151 286.593 24.3903L242.552 11.2865C242.461 11.2617 242.377 11.2205 242.301 11.1669L234.38 5.7224C234.01 5.46667 233.884 4.97996 234.088 4.57577C234.291 4.17981 234.762 3.98185 235.184 4.14269L287.147 22.691C287.601 22.8518 287.844 23.3509 287.694 23.8087C287.572 24.1882 287.223 24.4274 286.846 24.4274ZM243.193 9.61189L255.158 13.1714L241.042 8.13117L243.193 9.61189Z" fill="#FFA234"/>
<path d="M361.746 94.6158C361.512 94.6158 361.275 94.5209 361.1 94.3395L325.798 57.2511C325.716 57.1645 325.65 57.0572 325.609 56.9459L323.073 50.1362C322.92 49.7279 323.081 49.2741 323.453 49.0514C323.828 48.8369 324.301 48.9112 324.582 49.2371L362.421 93.135C362.738 93.5021 362.705 94.0548 362.347 94.3848C362.176 94.5374 361.96 94.6158 361.746 94.6158ZM327.215 56.1457L337.427 66.8738L326.483 54.1783L327.215 56.1457Z" fill="#FFA234"/>
<path d="M326.444 57.5274C326.24 57.5274 326.037 57.4573 325.872 57.3212L286.275 24.2213C285.907 23.912 285.847 23.3675 286.139 22.9881C286.427 22.6004 286.968 22.522 287.363 22.8025L324.424 49.0926C324.57 49.1957 324.681 49.3401 324.743 49.5092L327.279 56.3188C327.421 56.6983 327.289 57.1273 326.96 57.3624C326.806 57.4737 326.625 57.5274 326.444 57.5274ZM304.714 37.3045L324.43 53.7863L323.168 50.396L304.714 37.3045Z" fill="#FFA234"/>
<path d="M52.3615 65.0753C52.1023 65.0753 51.8452 64.9598 51.6683 64.7453C51.3681 64.3741 51.4112 63.8296 51.7671 63.512L83.1371 35.4689C83.2461 35.3699 83.3778 35.304 83.5197 35.2668L93.238 32.8911C93.6534 32.7962 94.0771 32.9942 94.2581 33.3819C94.4391 33.7696 94.3219 34.2275 93.9805 34.4832L52.8922 64.902C52.7317 65.0175 52.5466 65.0753 52.3615 65.0753ZM84.1593 36.9538L67.4048 51.9302L89.3486 35.6834L84.1593 36.9538Z" fill="#FFA234"/>
<path d="M83.731 37.0323C83.3669 37.0323 83.0296 36.8055 82.8959 36.4507C82.7376 36.03 82.9186 35.5516 83.3196 35.3453L132.787 9.56665C133.211 9.3398 133.744 9.50068 133.98 9.92549C134.215 10.3503 134.069 10.8865 133.651 11.1299L93.9019 34.5328C93.8257 34.5782 93.7455 34.6111 93.6612 34.6318L83.9429 37.0076C83.8709 37.0241 83.8009 37.0323 83.731 37.0323ZM102.95 27.1292L90.7056 33.51L93.1099 32.9243L102.95 27.1292Z" fill="#FFA234"/>
<path d="M203.5 393.249C203.128 393.249 202.787 393.014 202.659 392.655C202.513 392.242 202.686 391.785 203.066 391.57L210.792 387.264C210.894 387.206 211.01 387.173 211.127 387.157L256.94 381.997C257.382 381.993 257.853 382.277 257.921 382.76C257.991 383.238 257.668 383.684 257.193 383.77L203.655 393.236C203.603 393.245 203.552 393.249 203.5 393.249ZM211.503 388.918L208.576 390.547L228.852 386.963L211.503 388.918Z" fill="#FFA234"/>
<path d="M203.5 393.249C203.476 393.249 203.45 393.249 203.424 393.245L155.293 389.153C154.818 389.112 154.458 388.703 154.476 388.225C154.497 387.746 154.888 387.371 155.365 387.367L211.221 387.152C211.626 387.152 211.986 387.429 212.089 387.821C212.192 388.217 212.015 388.633 211.659 388.831L203.934 393.137C203.8 393.212 203.653 393.249 203.5 393.249ZM175.546 389.079L203.304 391.438L207.759 388.955L175.546 389.079Z" fill="#FFA234"/>
<path d="M375.714 260.729C375.615 260.729 375.514 260.713 375.415 260.676C374.983 260.523 374.739 260.069 374.846 259.624L387.647 206.635C387.756 206.177 388.188 205.889 388.661 205.963C389.122 206.041 389.447 206.462 389.404 206.928L386.446 239.178C386.436 239.281 386.409 239.384 386.364 239.479L376.52 260.218C376.368 260.539 376.049 260.729 375.714 260.729ZM386.51 218.951L378.607 251.655L384.683 238.857L386.51 218.951Z" fill="#FFA234"/>
<path d="M368.102 289.453C368.015 289.453 367.925 289.441 367.838 289.412C367.38 289.272 367.116 288.793 367.24 288.327L374.852 259.604C374.866 259.55 374.885 259.5 374.908 259.451L384.751 238.713C384.957 238.284 385.471 238.086 385.899 238.271C386.337 238.453 386.557 238.948 386.399 239.393L368.943 288.855C368.813 289.222 368.47 289.453 368.102 289.453ZM376.555 260.144L374.663 267.284L379.003 254.988L376.555 260.144Z" fill="#FFA234"/>
<path d="M346.257 316.337C346.086 316.337 345.916 316.288 345.763 316.189C345.381 315.933 345.253 315.43 345.469 315.022L374.926 259.414C375.138 259.01 375.613 258.832 376.041 259.001C376.463 259.166 376.693 259.624 376.576 260.066L368.964 288.789C368.933 288.909 368.873 289.024 368.793 289.123L346.948 316.007C346.773 316.222 346.516 316.337 346.257 316.337ZM372.855 267.139L351.317 307.8L367.29 288.142L372.855 267.139Z" fill="#FFA234"/>
<path d="M66.3347 344.323C66.0838 344.323 65.835 344.215 65.6601 344.013L27.8153 300.111C27.5274 299.777 27.5253 299.286 27.8091 298.948C28.095 298.61 28.5784 298.527 28.9527 298.762L39.5389 305.201C39.6397 305.259 39.7281 305.341 39.7981 305.436L67.0545 342.9C67.3384 343.287 67.2643 343.828 66.89 344.129C66.7255 344.257 66.5301 344.323 66.3347 344.323ZM32.8647 303.233L52.867 326.434L38.4613 306.636L32.8647 303.233Z" fill="#FFA234"/>
<path d="M39.0767 306.859C38.9163 306.859 38.7579 306.818 38.614 306.727L28.0278 300.288C27.855 300.185 27.7234 300.024 27.6534 299.835L12.6369 259.076C12.4744 258.634 12.68 258.143 13.1058 257.95C13.5295 257.756 14.0334 257.925 14.2576 258.337L39.8604 305.535C40.0538 305.89 39.9839 306.331 39.6918 306.611C39.5231 306.776 39.301 306.859 39.0767 306.859ZM29.2186 298.923L36.7136 303.481L18.5892 270.068L29.2186 298.923Z" fill="#FFA234"/>
<path d="M103.394 370.6C103.211 370.6 103.032 370.542 102.877 370.435L65.8183 344.157C65.4337 343.885 65.3268 343.357 65.5756 342.957C65.8245 342.553 66.3408 342.409 66.7583 342.64L111.273 366.657C111.59 366.83 111.773 367.173 111.738 367.536C111.701 367.894 111.452 368.195 111.109 368.303L103.653 370.563C103.566 370.588 103.48 370.6 103.394 370.6ZM78.7925 351.165L103.552 368.723L108.534 367.214L78.7925 351.165Z" fill="#FFA234"/>
<path d="M155.369 389.157C155.271 389.157 155.168 389.14 155.069 389.103L103.094 370.547C102.732 370.419 102.494 370.068 102.502 369.685C102.512 369.297 102.767 368.959 103.135 368.847L110.591 366.587C110.799 366.525 111.027 366.542 111.227 366.632L155.746 387.449C156.178 387.651 156.375 388.159 156.194 388.6C156.054 388.946 155.721 389.157 155.369 389.157ZM106.249 369.775L137.85 381.056L110.783 368.402L106.249 369.775Z" fill="#FFA234"/>
<path d="M93.4492 34.6564C93.1139 34.6564 92.7931 34.4667 92.6429 34.145C92.4454 33.7243 92.5998 33.2252 92.9967 32.9901L132.746 9.58715C133.026 9.42218 133.373 9.42218 133.653 9.58715L142.732 14.9697C143.028 15.1471 143.196 15.4771 143.166 15.8235C143.135 16.1659 142.909 16.4628 142.586 16.5825L93.7576 34.6028C93.6568 34.6399 93.552 34.6564 93.4492 34.6564ZM133.196 11.3978L102.511 29.4636L140.206 15.5513L133.196 11.3978Z" fill="#FFA234"/>
<path d="M142.278 16.6361C142.119 16.6361 141.963 16.5949 141.823 16.5124L132.744 11.1298C132.423 10.9401 132.255 10.5689 132.321 10.1977C132.389 9.83058 132.677 9.54187 133.045 9.47585L186.601 0.0140381C187.048 -0.0684485 187.504 0.220261 187.621 0.678097C187.735 1.13179 187.482 1.59787 187.037 1.74637L142.559 16.5908C142.467 16.6197 142.372 16.6361 142.278 16.6361ZM135.731 10.8205L142.382 14.7636L174.968 3.88697L135.731 10.8205Z" fill="#FFA234"/>
<path d="M4.67871 155.041C4.55529 155.041 4.43193 155.016 4.31466 154.963C3.88892 154.773 3.68323 154.286 3.83749 153.849L21.2934 104.383C21.3983 104.082 21.6533 103.863 21.9639 103.801C22.2601 103.739 22.5912 103.847 22.801 104.086L28.7266 110.776C28.9775 111.056 29.0248 111.469 28.8417 111.799L5.46029 154.575C5.29984 154.872 4.99547 155.041 4.67871 155.041ZM22.4719 106.408L9.20363 144.008L26.9763 111.493L22.4719 106.408Z" fill="#FFA234"/>
<path d="M28.0603 112.265C27.8073 112.265 27.5626 112.158 27.3939 111.964L21.4683 105.274C21.1866 104.956 21.166 104.486 21.421 104.144L51.6475 63.6443C51.9252 63.269 52.4496 63.1824 52.8342 63.4216C53.2292 63.6691 53.3669 64.1764 53.1551 64.593L28.8542 111.782C28.7185 112.042 28.4635 112.22 28.1714 112.257C28.1344 112.261 28.0973 112.265 28.0603 112.265ZM23.2845 104.63L27.8649 109.803L46.6413 73.3371L23.2845 104.63Z" fill="#FFA234"/>
<path d="M211.225 388.943C210.807 388.943 210.441 388.65 210.353 388.233C210.256 387.783 210.517 387.334 210.955 387.194L264.964 370.023C265.316 369.899 265.721 370.04 265.949 370.345C266.178 370.65 266.186 371.067 265.97 371.38L257.774 383.391C257.628 383.609 257.395 383.75 257.136 383.779L211.323 388.938C211.29 388.938 211.258 388.943 211.225 388.943ZM263.035 372.514L220.182 386.138L256.531 382.046L263.035 372.514Z" fill="#FFA234"/>
<path d="M257.038 383.782C256.789 383.782 256.544 383.679 256.369 383.481C256.098 383.172 256.071 382.722 256.301 382.38L264.498 370.369C264.607 370.208 264.767 370.089 264.952 370.027L306.224 356.251C306.662 356.111 307.145 356.321 307.328 356.75C307.509 357.183 307.33 357.678 306.917 357.892L257.449 383.679C257.32 383.749 257.178 383.782 257.038 383.782ZM265.802 371.631L259.784 380.446L296.096 361.518L265.802 371.631Z" fill="#FFA234"/>
<path d="M384.447 150.438C384.143 150.438 383.849 150.281 383.682 150.001L358.875 108.449C358.768 108.272 358.727 108.066 358.758 107.86L360.864 93.5885C360.922 93.1925 361.241 92.8791 361.64 92.8337C362.034 92.7842 362.423 93.0113 362.574 93.3826L385.274 149.205C385.449 149.638 385.264 150.133 384.846 150.343C384.719 150.409 384.583 150.438 384.447 150.438ZM360.57 107.806L379.202 139.017L362.152 97.0862L360.57 107.806Z" fill="#FFA234"/>
<path d="M359.641 108.887C359.342 108.887 359.059 108.738 358.892 108.479L325.696 57.1192C325.445 56.7315 325.529 56.2159 325.891 55.9313C326.249 55.6426 326.771 55.6797 327.09 56.0138L362.393 93.1021C362.582 93.3042 362.67 93.5805 362.629 93.8528L360.523 108.124C360.47 108.491 360.194 108.788 359.83 108.866C359.766 108.879 359.704 108.887 359.641 108.887ZM332.368 64.1516L359.104 105.517L360.801 94.0219L332.368 64.1516Z" fill="#FFA234"/>
<path d="M142.278 16.6361C141.856 16.6361 141.488 16.3391 141.404 15.9183C141.313 15.477 141.568 15.0357 141.996 14.8913L186.474 0.0469162C186.823 -0.0726956 187.22 0.0427599 187.455 0.339762L195.816 10.9317C196.021 11.1915 196.067 11.5421 195.935 11.8474C195.803 12.1485 195.515 12.3548 195.188 12.3795L142.35 16.632C142.325 16.6361 142.3 16.6361 142.278 16.6361ZM186.445 1.94416L149.544 14.2603L193.381 10.7296L186.445 1.94416Z" fill="#FFA234"/>
<path d="M195.117 12.3837C194.845 12.3837 194.586 12.2599 194.417 12.0455L186.056 1.45353C185.826 1.16066 185.799 0.760586 185.989 0.438876C186.178 0.125401 186.529 -0.0519295 186.906 0.0140428L242.955 9.54597C243.408 9.62432 243.729 10.0327 243.696 10.4947C243.661 10.9525 243.284 11.3114 242.826 11.3237L195.137 12.3838L195.117 12.3837ZM188.897 2.16708L195.54 10.5854L233.43 9.74395L188.897 2.16708Z" fill="#FFA234"/>
<path d="M326.444 57.5274C326.317 57.5274 326.186 57.4985 326.065 57.4408L281.242 36.4136C280.804 36.2115 280.608 35.6917 280.802 35.2504L286.028 23.1777C286.139 22.9179 286.367 22.7281 286.641 22.6622C286.914 22.5962 287.202 22.6663 287.418 22.8437L327.015 55.9435C327.359 56.2322 327.437 56.7313 327.196 57.1108C327.028 57.3789 326.74 57.5274 326.444 57.5274ZM282.784 35.1639L320.573 52.8914L287.19 24.9844L282.784 35.1639Z" fill="#FFA234"/>
<path d="M281.62 36.5002C281.449 36.5002 281.281 36.4507 281.135 36.3559L242.319 11.1793C241.947 10.9401 241.809 10.4575 241.994 10.0533C242.179 9.65323 242.638 9.45114 243.058 9.57075L287.099 22.6746C287.344 22.7488 287.548 22.922 287.655 23.153C287.764 23.3881 287.766 23.6521 287.665 23.8872L282.439 35.9599C282.334 36.2033 282.13 36.3847 281.879 36.4631C281.793 36.4878 281.707 36.5002 281.62 36.5002ZM248.498 13.056L281.221 34.2812L285.627 24.1017L248.498 13.056Z" fill="#FFA234"/>
<path d="M375.327 169.683C375.299 169.683 375.272 169.683 375.243 169.679C374.869 169.642 374.558 169.378 374.464 169.011L358.776 108.214C358.665 107.785 358.888 107.34 359.297 107.167C359.698 106.981 360.179 107.146 360.405 107.534L385.212 149.085C385.367 149.341 385.381 149.658 385.253 149.926L376.134 169.172C375.986 169.485 375.669 169.683 375.327 169.683ZM362.055 113.778L375.576 166.177L383.435 149.592L362.055 113.778Z" fill="#FFA234"/>
<path d="M388.515 207.741C388.141 207.741 387.8 207.506 387.672 207.139L374.484 169.081C374.408 168.858 374.42 168.615 374.521 168.405L383.641 149.159C383.818 148.792 384.209 148.586 384.612 148.664C385.011 148.738 385.309 149.073 385.338 149.481L389.406 206.784C389.437 207.229 389.135 207.633 388.694 207.72C388.635 207.737 388.575 207.741 388.515 207.741ZM376.29 168.842L387.148 200.172L383.797 152.999L376.29 168.842Z" fill="#FFA234"/>
<path d="M155.369 389.157C155.242 389.157 155.114 389.128 154.993 389.075L110.473 368.258C110.068 368.068 109.865 367.606 109.998 367.177C110.13 366.752 110.541 366.488 111 366.563L163.004 375.414C163.296 375.463 163.547 375.657 163.668 375.93C163.789 376.202 163.769 376.519 163.61 376.771L156.126 388.736C155.957 389.004 155.668 389.157 155.369 389.157ZM117.222 369.437L155.032 387.115L161.389 376.957L117.222 369.437Z" fill="#FFA234"/>
<path d="M155.369 389.157C155.045 389.157 154.746 388.979 154.59 388.695C154.431 388.41 154.44 388.063 154.613 387.787L162.097 375.822C162.303 375.496 162.692 375.335 163.064 375.426L211.435 387.177C211.873 387.284 212.163 387.701 212.112 388.15C212.058 388.6 211.68 388.942 211.23 388.942L155.369 389.157ZM163.27 377.319L156.986 387.362L203.868 387.181L163.27 377.319Z" fill="#FFA234"/>
<path d="M15.1927 169.959C14.9068 169.959 14.6333 169.819 14.4646 169.58L3.95034 154.661C3.75287 154.381 3.73234 154.014 3.89687 153.717L27.2784 110.941C27.4902 110.553 27.9591 110.384 28.3746 110.532C28.79 110.689 29.0287 111.13 28.93 111.563L16.0627 169.258C15.9866 169.605 15.713 169.873 15.3675 169.943C15.3099 169.955 15.2503 169.959 15.1927 169.959ZM5.72946 154.084L14.7608 166.903L25.8139 117.342L5.72946 154.084Z" fill="#FFA234"/>
<path d="M1.72084 207.741C1.66326 207.741 1.60361 207.737 1.54396 207.724C1.10997 207.634 0.805573 207.238 0.830257 206.796L3.78791 154.096C3.80846 153.717 4.06766 153.391 4.43168 153.284C4.79777 153.189 5.1907 153.317 5.40666 153.63L15.9209 168.549C16.0895 168.788 16.1307 169.089 16.0341 169.366L2.56213 207.147C2.43256 207.51 2.09106 207.741 1.72084 207.741ZM5.42511 156.757L2.95903 200.717L14.1973 169.201L5.42511 156.757Z" fill="#FFA234"/>
<path d="M265.234 371.772C264.913 371.772 264.607 371.598 264.448 371.301C264.243 370.918 264.342 370.443 264.683 370.171L312.353 332.576C312.653 332.345 313.073 332.324 313.396 332.534C313.717 332.745 313.867 333.141 313.766 333.512L307.367 357.331C307.289 357.624 307.071 357.855 306.787 357.95L265.516 371.726C265.423 371.755 265.329 371.772 265.234 371.772ZM311.343 335.648L269.81 368.406L305.769 356.403L311.343 335.648Z" fill="#FFA234"/>
<path d="M306.505 357.995C306.355 357.995 306.205 357.959 306.067 357.88C305.711 357.678 305.536 357.262 305.643 356.87L312.042 333.05C312.106 332.811 312.266 332.609 312.484 332.493L345.837 314.654C346.217 314.44 346.703 314.551 346.968 314.902C347.233 315.253 347.204 315.743 346.9 316.061L307.149 357.719C306.976 357.901 306.741 357.995 306.505 357.995ZM313.665 333.887L308.276 353.949L341.758 318.862L313.665 333.887Z" fill="#FFA234"/>
<path d="M28.0603 112.265C27.8793 112.265 27.6964 112.211 27.5401 112.096C27.1802 111.84 27.065 111.353 27.2666 110.957L51.5674 63.7679C51.7792 63.3596 52.2729 63.1781 52.6946 63.3514L67.8509 69.4887C68.1265 69.6001 68.3281 69.8393 68.3898 70.1321C68.4515 70.4209 68.3651 70.726 68.1594 70.9406L28.7021 111.993C28.5294 112.17 28.2948 112.265 28.0603 112.265ZM52.781 65.3146L31.6537 106.342L65.9588 70.6518L52.781 65.3146Z" fill="#FFA234"/>
<path d="M67.5181 71.2127C67.405 71.2127 67.2919 71.192 67.1849 71.1467L52.0285 65.0094C51.7282 64.8897 51.5163 64.6134 51.4773 64.2917C51.4361 63.97 51.5719 63.6524 51.831 63.4585L92.9194 33.0396C93.2731 32.7838 93.7585 32.8169 94.0753 33.1221C94.3879 33.4314 94.431 33.9223 94.178 34.2811L68.2461 70.8373C68.0733 71.0766 67.7999 71.2127 67.5181 71.2127ZM54.1758 63.9493L67.1993 69.2246L89.4825 37.8117L54.1758 63.9493Z" fill="#FFA234"/>
<path d="M66.3347 344.323C66.0509 344.323 65.7817 344.187 65.6131 343.956L38.3545 306.492C38.1015 306.141 38.1324 305.659 38.4327 305.345C38.7329 305.032 39.2122 304.978 39.5721 305.222L75.1956 329.066C75.5946 329.33 75.7119 329.866 75.4589 330.278L67.0939 343.898C66.9397 344.149 66.6661 344.31 66.3699 344.323L66.3347 344.323ZM42.756 309.503L66.2733 341.823L73.4885 330.072L42.756 309.503Z" fill="#FFA234"/>
<path d="M110.85 368.34C110.706 368.34 110.56 368.307 110.426 368.233L65.9114 344.215C65.6954 344.1 65.537 343.898 65.4733 343.659C65.4095 343.424 65.4461 343.167 65.5756 342.957L73.941 329.338C74.085 329.103 74.3298 328.95 74.6054 328.917C74.8871 328.884 75.1524 328.987 75.3437 329.19L111.494 366.826C111.798 367.14 111.827 367.635 111.562 367.985C111.387 368.216 111.122 368.34 110.85 368.34ZM67.5917 343.089L106.253 363.948L74.8563 331.26L67.5917 343.089Z" fill="#FFA234"/>
<path d="M369.581 227.201C369.454 227.201 369.324 227.172 369.205 227.118C368.861 226.957 368.656 226.594 368.693 226.215L374.439 168.697C374.482 168.281 374.807 167.947 375.223 167.901C375.626 167.856 376.031 168.099 376.171 168.495L389.359 206.553C389.47 206.87 389.39 207.229 389.156 207.468L370.221 226.928C370.048 227.106 369.816 227.201 369.581 227.201ZM375.813 172.913L370.723 223.851L387.492 206.619L375.813 172.913Z" fill="#FFA234"/>
<path d="M375.714 260.729L375.69 260.73C375.268 260.717 374.912 260.412 374.836 259.995L368.703 226.467C368.651 226.182 368.74 225.889 368.941 225.683L387.876 206.223C388.156 205.93 388.598 205.868 388.948 206.062C389.299 206.256 389.478 206.664 389.384 207.056L376.582 260.045C376.484 260.449 376.125 260.729 375.714 260.729ZM370.541 226.599L375.836 255.533L386.883 209.807L370.541 226.599Z" fill="#FFA234"/>
<path d="M20.6559 227.201C20.4214 227.201 20.189 227.106 20.0162 226.929L1.08149 207.469C0.844969 207.226 0.766782 206.867 0.879925 206.545L14.3518 168.764C14.4938 168.368 14.8825 168.121 15.3041 168.178C15.7175 168.228 16.0424 168.562 16.0815 168.978L21.5444 226.219C21.5794 226.599 21.3737 226.958 21.0323 227.119C20.9109 227.172 20.7834 227.201 20.6559 227.201ZM2.74954 206.619L19.5267 223.864L14.685 173.144L2.74954 206.619Z" fill="#FFA234"/>
<path d="M13.4735 259.661C13.056 259.661 12.6961 259.373 12.6035 258.964L0.851095 207.044C0.762637 206.652 0.943633 206.252 1.29536 206.058C1.64089 205.873 2.07901 205.934 2.36077 206.223L21.2955 225.683C21.5053 225.897 21.5917 226.207 21.528 226.5L14.3457 258.96C14.2552 259.369 13.8911 259.661 13.4735 259.661ZM3.29249 209.741L13.4633 254.679L19.6809 226.586L3.29249 209.741Z" fill="#FFA234"/>
<path d="M346.257 316.337C346.179 316.337 346.098 316.325 346.018 316.304C345.615 316.193 345.343 315.813 345.366 315.397L347.149 281.076C347.161 280.812 347.289 280.573 347.497 280.412L375.171 259.125C375.504 258.869 375.971 258.877 376.289 259.15C376.61 259.422 376.699 259.884 376.501 260.255L347.044 315.863C346.886 316.16 346.58 316.337 346.257 316.337ZM348.91 281.579L347.357 311.458L373.001 263.047L348.91 281.579Z" fill="#FFA234"/>
<path d="M312.904 334.176C312.657 334.176 312.415 334.073 312.242 333.879C311.966 333.574 311.935 333.12 312.164 332.782L347.3 280.622C347.526 280.288 347.937 280.156 348.324 280.272C348.704 280.399 348.951 280.767 348.931 281.167L347.148 315.487C347.131 315.801 346.952 316.085 346.676 316.23L313.324 334.069C313.192 334.143 313.048 334.176 312.904 334.176ZM346.981 284.289L315.656 330.794L345.391 314.889L346.981 284.289Z" fill="#FFA234"/>
<path d="M348.04 282.016C347.851 282.016 347.662 281.955 347.503 281.835C347.183 281.596 347.063 281.167 347.209 280.791L368.75 225.976C368.898 225.604 369.281 225.369 369.667 225.415C370.064 225.452 370.387 225.753 370.459 226.145L376.593 259.674C376.652 260.004 376.523 260.342 376.257 260.544L348.583 281.831C348.423 281.955 348.232 282.016 348.04 282.016ZM369.266 229.548L350.05 278.449L374.737 259.459L369.266 229.548Z" fill="#FFA234"/>
<path d="M211.225 388.943C210.988 388.943 210.756 388.848 210.585 388.67C210.351 388.431 210.271 388.076 210.382 387.755L216.894 368.889C217.023 368.518 217.363 368.328 217.768 368.287L265.265 369.982C265.699 369.998 266.059 370.324 266.119 370.757C266.176 371.186 265.917 371.599 265.504 371.731L211.495 388.901C211.406 388.93 211.315 388.943 211.225 388.943ZM218.364 370.101L212.65 386.658L260.047 371.586L218.364 370.101Z" fill="#FFA234"/>
<path d="M211.225 388.943C211.155 388.943 211.085 388.934 211.015 388.918L162.644 377.167C162.226 377.064 161.938 376.68 161.963 376.247C161.985 375.818 162.312 375.463 162.738 375.41L217.621 368.295C217.94 368.258 218.234 368.377 218.43 368.616C218.623 368.856 218.681 369.181 218.58 369.474L212.068 388.34C211.941 388.707 211.597 388.943 211.225 388.943ZM167.746 376.564L210.647 386.987L216.422 370.254L167.746 376.564Z" fill="#FFA234"/>
<path d="M42.0464 278.378C41.8777 278.378 41.707 278.329 41.5589 278.234L12.9861 259.517C12.6735 259.31 12.5213 258.935 12.6015 258.572L19.7838 226.112C19.8681 225.732 20.189 225.448 20.5756 225.415C20.987 225.377 21.3285 225.6 21.4786 225.959L42.8691 277.137C43.0213 277.5 42.9185 277.921 42.6182 278.172C42.4536 278.308 42.25 278.378 42.0464 278.378ZM14.4793 258.354L40.0986 275.141L20.9191 229.25L14.4793 258.354Z" fill="#FFA234"/>
<path d="M39.0767 306.859C38.7538 306.859 38.451 306.682 38.2926 306.393L12.6898 259.195C12.4944 258.832 12.5685 258.387 12.8688 258.111C13.167 257.83 13.6195 257.797 13.9609 258.016L42.5337 276.733C42.8135 276.919 42.9677 277.245 42.9348 277.579L39.9648 306.059C39.9237 306.447 39.6337 306.764 39.2511 306.843C39.1935 306.855 39.1343 306.859 39.0767 306.859ZM15.9478 261.456L38.488 303.007L41.1022 277.933L15.9478 261.456Z" fill="#FFA234"/>
<path d="M74.6996 330.703C74.5268 330.703 74.3561 330.654 74.2039 330.551L38.5804 306.707C38.3048 306.525 38.1547 306.203 38.1876 305.869L41.1576 277.389C41.1987 277.01 41.4743 276.7 41.8445 276.614C42.225 276.527 42.6015 276.688 42.8031 277.01L75.4565 329.334C75.6786 329.693 75.6231 330.155 75.3207 330.452C75.15 330.617 74.9258 330.703 74.6996 330.703ZM40.0202 305.519L71.7379 326.752L42.6632 280.161L40.0202 305.519Z" fill="#FFA234"/>
<path d="M359.641 108.887C359.451 108.887 359.262 108.825 359.101 108.705L316.789 76.5953C316.452 76.3396 316.341 75.8817 316.522 75.4982L325.638 56.2486C325.777 55.9558 326.063 55.762 326.384 55.7413C326.744 55.6753 327.018 55.8733 327.193 56.1455L360.389 107.505C360.626 107.868 360.566 108.35 360.247 108.647C360.078 108.804 359.859 108.887 359.641 108.887ZM318.445 75.6095L356.129 104.205L326.565 58.4636L318.445 75.6095Z" fill="#FFA234"/>
<path d="M317.328 76.7768C317.075 76.7768 316.833 76.6695 316.662 76.4757L280.954 36.199C280.672 35.8814 280.652 35.4112 280.905 35.0689C281.158 34.7307 281.618 34.6152 281.999 34.7967L326.822 55.8238C327.036 55.9228 327.203 56.1044 327.283 56.3312C327.363 56.5539 327.351 56.8014 327.25 57.0159L318.135 76.2654C318.007 76.5376 317.75 76.7232 317.454 76.7686C317.413 76.7727 317.369 76.7768 317.328 76.7768ZM285.164 38.2572L317.1 74.2773L325.253 57.0612L285.164 38.2572Z" fill="#FFA234"/>
<path d="M67.5181 71.2127C67.2672 71.2127 67.0204 71.1055 66.8455 70.9075C66.574 70.594 66.5514 70.1362 66.79 69.798L92.7219 33.2418C92.9667 32.8953 93.4171 32.7633 93.812 32.9448L117.459 43.4914C117.771 43.6316 117.977 43.9368 117.989 44.2792C118 44.6215 117.815 44.9432 117.51 45.1L67.9315 71.1096C67.7999 71.1797 67.6579 71.2127 67.5181 71.2127ZM93.7544 34.8751L70.4038 67.7935L115.048 44.374L93.7544 34.8751Z" fill="#FFA234"/>
<path d="M117.096 45.203C116.973 45.203 116.849 45.1783 116.734 45.1247L93.0872 34.5781C92.754 34.4296 92.5462 34.0955 92.5565 33.7325C92.5689 33.3696 92.7992 33.0479 93.1407 32.9201L141.969 14.8997C142.349 14.7554 142.781 14.8997 143.013 15.2379C143.244 15.5762 143.217 16.0257 142.946 16.3351L117.764 44.902C117.592 45.0959 117.347 45.203 117.096 45.203ZM95.8206 33.8398L116.862 43.2232L139.266 17.8075L95.8206 33.8398Z" fill="#FFA234"/>
<path d="M281.62 36.5002C281.593 36.5002 281.567 36.5004 281.54 36.4962L232.879 32.0623C232.587 32.0375 232.328 31.8684 232.184 31.6127C232.04 31.3611 232.027 31.0518 232.153 30.7878L241.999 10.0452C242.11 9.81013 242.315 9.63687 242.562 9.56676C242.807 9.50489 243.074 9.53786 243.29 9.67813L282.106 34.8547C282.449 35.0774 282.597 35.5064 282.464 35.8982C282.338 36.2612 281.999 36.5002 281.62 36.5002ZM234.315 30.3959L278.097 34.3845L243.173 11.7322L234.315 30.3959Z" fill="#FFA234"/>
<path d="M232.959 32.0661C232.817 32.0661 232.678 32.0332 232.548 31.9672L194.705 12.2845C194.343 12.0948 194.156 11.6824 194.246 11.2864C194.339 10.8863 194.689 10.6017 195.096 10.5935L242.784 9.53344H242.805C243.107 9.53344 243.389 9.68604 243.554 9.94177C243.722 10.2016 243.743 10.5316 243.611 10.8121L233.765 31.5546C233.661 31.7732 233.473 31.9424 233.243 32.0207C233.15 32.0496 233.056 32.0661 232.959 32.0661ZM198.625 12.3052L232.55 29.9502L241.378 11.3566L198.625 12.3052Z" fill="#FFA234"/>
<path d="M15.1927 169.959C15.0714 169.959 14.9483 169.935 14.8311 169.881C14.4423 169.708 14.2284 169.283 14.323 168.871L27.1902 111.176C27.254 110.883 27.4596 110.644 27.7394 110.536C28.0108 110.421 28.3276 110.466 28.5744 110.64L47.2315 123.813C47.4248 123.95 47.5565 124.156 47.5976 124.391C47.6367 124.626 47.5832 124.869 47.4454 125.063L15.9211 169.584C15.7483 169.823 15.4745 169.959 15.1927 169.959ZM28.6403 112.871L17.0317 164.923L45.4709 124.758L28.6403 112.871Z" fill="#FFA234"/>
<path d="M46.7175 125.439C46.5365 125.439 46.3555 125.381 46.2033 125.274L27.5463 112.1C27.3344 111.951 27.1966 111.716 27.1719 111.456C27.1472 111.197 27.2377 110.937 27.4187 110.747L66.876 69.6949C67.1681 69.3938 67.635 69.3319 67.9969 69.5629C68.3548 69.7898 68.5029 70.2435 68.3507 70.6394L47.5505 124.865C47.4517 125.121 47.2399 125.319 46.9766 125.402C46.8923 125.426 46.8039 125.439 46.7175 125.439ZM29.4262 111.238L46.2959 123.15L65.1031 74.1206L29.4262 111.238Z" fill="#FFA234"/>
<path d="M110.85 368.34C110.609 368.34 110.377 368.241 110.206 368.064L74.0563 330.427C73.7746 330.134 73.7273 329.689 73.9391 329.342C74.153 328.996 74.5768 328.835 74.9593 328.95L119.768 342.64C120.003 342.714 120.198 342.879 120.307 343.098C120.416 343.316 120.431 343.572 120.348 343.803L111.689 367.75C111.584 368.039 111.338 368.258 111.035 368.32C110.974 368.332 110.912 368.34 110.85 368.34ZM77.7256 331.669L110.498 365.791L118.349 344.079L77.7256 331.669Z" fill="#FFA234"/>
<path d="M162.854 377.191C162.805 377.191 162.755 377.187 162.704 377.179L110.7 368.328C110.441 368.282 110.213 368.125 110.079 367.895C109.945 367.668 109.921 367.391 110.011 367.14L118.67 343.192C118.767 342.924 118.985 342.722 119.256 342.64C119.524 342.561 119.82 342.611 120.046 342.784L163.391 375.583C163.72 375.83 163.837 376.272 163.673 376.651C163.531 376.981 163.206 377.191 162.854 377.191ZM112.054 366.744L159.395 374.799L119.937 344.941L112.054 366.744Z" fill="#FFA234"/>
<path d="M375.327 169.683C375.056 169.683 374.793 169.559 374.618 169.333L344.293 129.547C344.058 129.237 344.048 128.808 344.27 128.491L358.908 107.48C359.108 107.191 359.447 107.026 359.799 107.113C360.142 107.175 360.418 107.431 360.504 107.769L376.191 168.565C376.298 168.978 376.099 169.407 375.718 169.592C375.593 169.654 375.459 169.683 375.327 169.683ZM346.107 128.978L373.359 164.734L359.262 110.099L346.107 128.978Z" fill="#FFA234"/>
<path d="M345.002 129.897C344.983 129.897 344.963 129.897 344.944 129.893C344.634 129.877 344.356 129.695 344.21 129.415L316.536 76.2943C316.342 75.9231 316.433 75.4693 316.752 75.1971C317.069 74.929 317.533 74.9166 317.867 75.1682L360.179 107.278C360.561 107.567 360.646 108.111 360.372 108.503L345.734 129.514C345.565 129.757 345.292 129.897 345.002 129.897ZM319.96 79L345.113 127.282L358.416 108.186L319.96 79Z" fill="#FFA234"/>
<path d="M170.831 35.3451C170.476 35.3451 170.153 35.1307 170.011 34.8007C169.865 34.4584 169.947 34.0583 170.219 33.7984L194.503 10.8368C194.781 10.5728 195.194 10.5233 195.527 10.6925L233.37 30.375C233.728 30.5647 233.915 30.9649 233.831 31.3608C233.746 31.7568 233.407 32.0413 233.006 32.0661L170.879 35.3452L170.831 35.3451ZM195.268 12.5733L173.213 33.4272L229.635 30.4492L195.268 12.5733Z" fill="#FFA234"/>
<path d="M117.096 45.203C116.777 45.203 116.479 45.034 116.318 44.7494C116.131 44.4153 116.174 44.0029 116.427 43.7142L141.609 15.1472C141.901 14.8131 142.396 14.7513 142.765 14.9905L171.319 33.6996C171.625 33.9017 171.777 34.2689 171.706 34.6277C171.634 34.9866 171.352 35.2629 170.992 35.3289L117.256 45.1867C117.203 45.1991 117.149 45.203 117.096 45.203ZM142.435 16.9126L119.474 42.9635L168.472 33.9719L142.435 16.9126Z" fill="#FFA234"/>
<path d="M170.831 35.3451C170.663 35.3451 170.492 35.296 170.344 35.2011L141.79 16.4919C141.469 16.2816 141.319 15.8898 141.413 15.5185C141.506 15.1515 141.825 14.8792 142.205 14.8504L195.044 10.5979C195.468 10.5443 195.776 10.7794 195.932 11.1259C196.085 11.4723 196.004 11.8806 195.729 12.1404L171.444 35.102C171.274 35.2629 171.054 35.3451 170.831 35.3451ZM144.951 16.4218L170.731 33.3162L192.656 12.586L144.951 16.4218Z" fill="#FFA234"/>
<path d="M265.234 371.772L265.203 371.772L217.706 370.076C217.302 370.06 216.959 369.779 216.866 369.384C216.776 368.992 216.959 368.583 217.315 368.394L270.166 339.922C270.464 339.761 270.836 339.785 271.112 339.983C271.388 340.186 271.525 340.528 271.466 340.866L266.112 371.033C266.036 371.462 265.666 371.772 265.234 371.772ZM221.064 368.406L264.491 369.953L269.386 342.372L221.064 368.406Z" fill="#FFA234"/>
<path d="M265.234 371.772C265.076 371.772 264.917 371.731 264.776 371.644C264.457 371.454 264.29 371.087 264.356 370.72L269.71 340.553C269.776 340.182 270.066 339.893 270.434 339.827L312.75 332.398C313.145 332.328 313.552 332.539 313.719 332.918C313.885 333.289 313.778 333.731 313.455 333.986L265.785 371.582C265.625 371.706 265.43 371.772 265.234 371.772ZM271.357 341.481L266.524 368.724L309.566 334.774L271.357 341.481Z" fill="#FFA234"/>
<path d="M350.175 191.399C350.061 191.399 349.946 191.379 349.837 191.333C349.527 191.206 349.313 190.913 349.286 190.579L344.113 129.077C344.078 128.681 344.311 128.31 344.681 128.169C345.051 128.025 345.471 128.145 345.711 128.458L376.037 168.244C376.322 168.623 376.267 169.155 375.909 169.465L350.757 191.181C350.592 191.325 350.384 191.399 350.175 191.399ZM346.147 131.98L350.917 188.681L374.107 168.66L346.147 131.98Z" fill="#FFA234"/>
<path d="M369.581 227.201C369.258 227.201 368.956 227.023 368.797 226.735L349.391 190.933C349.19 190.562 349.274 190.1 349.593 189.828L374.745 168.112C375.017 167.868 375.416 167.819 375.739 167.996C376.064 168.165 376.251 168.512 376.216 168.879L370.469 226.396C370.43 226.784 370.14 227.106 369.758 227.184C369.698 227.197 369.639 227.201 369.581 227.201ZM351.302 190.71L368.982 223.328L374.217 170.929L351.302 190.71Z" fill="#FFA234"/>
<path d="M41.6963 187.324C41.5256 187.324 41.3549 187.275 41.2088 187.18L14.7052 169.815C14.5016 169.679 14.3617 169.469 14.3164 169.23C14.2711 168.99 14.3246 168.747 14.4645 168.545L45.9889 124.024C46.2192 123.694 46.647 123.554 47.0214 123.702C47.3998 123.843 47.6384 124.214 47.6055 124.618L42.5849 186.503C42.5602 186.817 42.371 187.093 42.0892 187.233C41.9637 187.295 41.83 187.324 41.6963 187.324ZM16.4575 168.825L40.9291 184.858L45.5651 127.716L16.4575 168.825Z" fill="#FFA234"/>
<path d="M20.6559 227.201C20.5983 227.201 20.541 227.197 20.4834 227.184C20.0967 227.106 19.8046 226.784 19.7676 226.392L14.3048 169.151C14.2719 168.809 14.4385 168.475 14.7326 168.297C15.0246 168.12 15.3928 168.128 15.6808 168.314L42.1844 185.678C42.5711 185.934 42.7007 186.437 42.4847 186.846L21.4459 226.722C21.2875 227.019 20.9829 227.201 20.6559 227.201ZM16.2588 170.83L21.2608 223.245L40.5267 186.73L16.2588 170.83Z" fill="#FFA234"/>
<path d="M317.328 76.7768C317.256 76.7768 317.184 76.7685 317.11 76.7479L267.696 64.3122C267.435 64.2462 267.217 64.0688 267.104 63.8213C266.991 63.578 266.995 63.2934 267.114 63.05L280.82 35.209C280.952 34.9409 281.207 34.7594 281.501 34.7182C281.804 34.6893 282.092 34.7883 282.287 35.0111L317.995 75.2877C318.256 75.5806 318.295 76.0095 318.091 76.3436C317.927 76.6158 317.635 76.7768 317.328 76.7768ZM269.204 62.848L314.739 74.3061L281.834 37.193L269.204 62.848Z" fill="#FFA234"/>
<path d="M267.914 64.3413C267.692 64.3413 267.476 64.2588 267.31 64.1062L232.355 31.8313C232.073 31.5715 231.989 31.159 232.143 30.8084C232.297 30.4578 232.663 30.2145 233.04 30.2805L281.701 34.7143C281.995 34.7391 282.256 34.9123 282.398 35.168C282.542 35.4238 282.55 35.7372 282.421 36.0012L268.714 63.8423C268.591 64.0939 268.355 64.2753 268.077 64.3248C268.023 64.3372 267.968 64.3413 267.914 64.3413ZM235.502 32.3014L267.643 61.9779L280.245 36.3766L235.502 32.3014Z" fill="#FFA234"/>
<path d="M162.854 377.191C162.663 377.191 162.473 377.13 162.317 377.01L118.972 344.211C118.66 343.976 118.537 343.564 118.67 343.192C118.806 342.825 119.125 342.636 119.554 342.603L170.112 345.127C170.375 345.144 170.622 345.271 170.781 345.486C170.941 345.696 170.997 345.973 170.935 346.228L163.722 376.503C163.652 376.8 163.438 377.035 163.156 377.138C163.057 377.175 162.955 377.191 162.854 377.191ZM122.362 344.537L162.303 374.758L168.95 346.863L122.362 344.537Z" fill="#FFA234"/>
<path d="M162.854 377.191C162.603 377.191 162.36 377.084 162.189 376.894C161.994 376.676 161.918 376.375 161.986 376.09L169.199 345.816C169.263 345.552 169.439 345.329 169.684 345.213C169.931 345.094 170.213 345.094 170.455 345.217L218.126 368.377C218.481 368.55 218.681 368.934 218.617 369.326C218.553 369.718 218.243 370.019 217.852 370.068L162.969 377.183C162.93 377.187 162.891 377.191 162.854 377.191ZM170.678 347.313L164.022 375.244L214.656 368.678L170.678 347.313Z" fill="#FFA234"/>
<path d="M312.904 334.176C312.84 334.176 312.776 334.168 312.71 334.155C312.354 334.077 312.081 333.784 312.023 333.421L305.873 295.05C305.804 294.617 306.057 294.2 306.472 294.06L347.758 280.272C348.118 280.156 348.519 280.272 348.751 280.581C348.982 280.886 348.994 281.303 348.78 281.62L313.644 333.78C313.475 334.032 313.196 334.176 312.904 334.176ZM307.755 295.52L313.426 330.905L345.831 282.804L307.755 295.52Z" fill="#FFA234"/>
<path d="M270.588 341.604C270.277 341.604 269.983 341.439 269.821 341.167C269.632 340.85 269.658 340.445 269.889 340.152L306.055 294.353C306.275 294.081 306.633 293.957 306.981 294.044C307.322 294.134 307.579 294.419 307.635 294.77L313.785 333.141C313.863 333.623 313.54 334.077 313.059 334.164L270.742 341.592C270.691 341.6 270.639 341.604 270.588 341.604ZM306.195 297.059L272.741 339.422L311.884 332.551L306.195 297.059Z" fill="#FFA234"/>
<path d="M46.7175 125.439C46.5304 125.439 46.3434 125.381 46.185 125.261C45.8642 125.022 45.7408 124.597 45.8847 124.222L66.685 69.996C66.7817 69.7444 66.9874 69.5505 67.2444 69.468C67.4954 69.3855 67.7813 69.4186 68.0054 69.5671L94.5091 86.9357C94.7518 87.0965 94.902 87.3606 94.9143 87.6493C94.9246 87.938 94.7971 88.2144 94.5688 88.3917L47.2648 125.249C47.1044 125.377 46.9109 125.439 46.7175 125.439ZM67.954 71.6706L48.7005 121.867L92.4873 87.7483L67.954 71.6706Z" fill="#FFA234"/>
<path d="M94.0208 88.5813C93.848 88.5813 93.6794 88.5318 93.5334 88.4369L67.0297 71.0683C66.7644 70.8909 66.6101 70.5898 66.6266 70.2763C66.641 69.9587 66.822 69.67 67.1037 69.5257L116.682 43.516C117.026 43.3304 117.454 43.3964 117.729 43.6769C118.005 43.9574 118.067 44.3822 117.884 44.7287L94.8086 88.107C94.6914 88.3297 94.4857 88.4906 94.243 88.5525C94.1689 88.5731 94.0948 88.5813 94.0208 88.5813ZM69.2798 70.4042L93.6917 86.4035L114.949 46.4444L69.2798 70.4042Z" fill="#FFA234"/>
<path d="M119.509 344.393C119.423 344.393 119.334 344.381 119.25 344.356L74.4407 330.666C73.978 330.522 73.7106 330.039 73.8401 329.573L83.3342 294.853C83.4247 294.518 83.6962 294.271 84.0315 294.209C84.3812 294.131 84.7144 294.279 84.9139 294.56L120.229 342.97C120.455 343.279 120.459 343.7 120.237 344.018C120.066 344.257 119.793 344.393 119.509 344.393ZM75.79 329.206L117.207 341.86L84.5663 297.113L75.79 329.206Z" fill="#FFA234"/>
<path d="M74.6996 330.703C74.3951 330.703 74.1075 330.546 73.943 330.283L41.2895 277.958C41.0838 277.628 41.1147 277.203 41.3656 276.906C41.6145 276.605 42.0341 276.498 42.3899 276.659L84.5375 294.262C84.9509 294.436 85.173 294.889 85.0537 295.322L75.5596 330.043C75.4671 330.386 75.1791 330.641 74.8294 330.695C74.7863 330.699 74.7427 330.703 74.6996 330.703ZM44.2883 279.389L74.377 327.606L83.1265 295.611L44.2883 279.389Z" fill="#FFA234"/>
<path d="M56.6534 243.744C56.5279 243.744 56.4004 243.715 56.2812 243.662L20.2834 227.118C20.0612 227.015 19.8905 226.825 19.8103 226.594C19.7322 226.359 19.7527 226.103 19.8658 225.889L40.9067 186.012C41.0795 185.687 41.4498 185.542 41.7974 185.538C42.1635 185.583 42.4637 185.843 42.5583 186.198L57.5152 242.618C57.6037 242.952 57.4926 243.311 57.2293 243.534C57.0648 243.67 56.8591 243.744 56.6534 243.744ZM21.8856 225.885L55.3042 241.245L41.4188 188.867L21.8856 225.885Z" fill="#FFA234"/>
<path d="M42.0464 278.378C41.6885 278.378 41.3612 278.16 41.2234 277.83L19.8328 226.652C19.6909 226.31 19.7711 225.918 20.0344 225.662C20.2997 225.406 20.6905 225.34 21.0278 225.493L57.0256 242.037C57.4637 242.239 57.6633 242.75 57.4761 243.196L42.8688 277.83C42.729 278.164 42.4043 278.378 42.0464 278.378ZM22.3627 228.075L42.0502 275.178L55.4933 243.299L22.3627 228.075Z" fill="#FFA234"/>
<path d="M84.1942 295.982C84.0791 295.982 83.9618 295.961 83.8507 295.912L41.7032 278.308C41.4851 278.218 41.3103 278.044 41.2198 277.822C41.1314 277.603 41.1314 277.355 41.2239 277.137L55.8312 242.503C55.967 242.181 56.2713 241.971 56.6148 241.954C56.9768 241.921 57.2812 242.123 57.4437 242.433L84.984 294.67C85.1588 295.005 85.1075 295.413 84.8545 295.689C84.6817 295.879 84.439 295.982 84.1942 295.982ZM43.219 277.005L82.2444 293.305L56.7444 244.932L43.219 277.005Z" fill="#FFA234"/>
<path d="M348.04 282.016L348.034 282.017C347.665 282.012 347.336 281.786 347.205 281.439L332.748 243.167C332.581 242.726 332.785 242.231 333.21 242.037L369.208 225.493C369.543 225.341 369.928 225.411 370.193 225.654C370.459 225.906 370.545 226.293 370.411 226.636L348.871 281.451C348.735 281.79 348.406 282.016 348.04 282.016ZM334.712 243.316L348.056 278.639L367.937 228.046L334.712 243.316Z" fill="#FFA234"/>
<path d="M306.754 295.805C306.497 295.805 306.248 295.693 306.076 295.491C305.841 295.215 305.796 294.823 305.963 294.497L332.791 242.437C332.95 242.123 333.291 241.966 333.635 241.954C333.986 241.975 334.293 242.201 334.418 242.531L348.875 280.804C348.962 281.03 348.951 281.286 348.847 281.505C348.742 281.723 348.552 281.892 348.322 281.971L307.036 295.759C306.944 295.788 306.849 295.805 306.754 295.805ZM333.458 245.043L308.554 293.367L346.876 280.568L333.458 245.043Z" fill="#FFA234"/>
<path d="M333.583 243.744C333.369 243.744 333.157 243.666 332.991 243.518C332.728 243.287 332.627 242.915 332.734 242.577L349.326 190.232C349.433 189.89 349.735 189.646 350.091 189.613C350.447 189.543 350.788 189.762 350.959 190.075L370.365 225.877C370.484 226.095 370.507 226.355 370.428 226.59C370.35 226.825 370.177 227.015 369.953 227.118L333.955 243.662C333.836 243.716 333.709 243.744 333.583 243.744ZM350.391 192.777L335.044 241.195L368.341 225.893L350.391 192.777Z" fill="#FFA234"/>
<path d="M217.737 370.077C217.556 370.077 217.377 370.023 217.222 369.912C216.947 369.718 216.805 369.384 216.854 369.05L221.634 337.043C221.704 336.581 222.099 336.222 222.582 336.284L270.653 339.819C271.048 339.848 271.377 340.132 271.46 340.524C271.544 340.912 271.359 341.308 271.009 341.497L218.158 369.969C218.027 370.04 217.881 370.077 217.737 370.077ZM223.277 338.128L218.882 367.548L267.463 341.378L223.277 338.128Z" fill="#FFA234"/>
<path d="M217.737 370.077C217.603 370.077 217.472 370.048 217.348 369.986L169.678 346.826C169.329 346.657 169.129 346.282 169.185 345.894C169.238 345.511 169.536 345.205 169.919 345.139L222.369 336.292C222.649 336.238 222.937 336.337 223.142 336.535C223.346 336.738 223.443 337.022 223.399 337.307L218.619 369.314C218.578 369.594 218.406 369.842 218.153 369.974C218.023 370.044 217.881 370.077 217.737 370.077ZM172.973 346.439L217.034 367.845L221.452 338.264L172.973 346.439Z" fill="#FFA234"/>
<path d="M267.914 64.3413L267.861 64.3412L208.769 60.8106C208.432 60.79 208.136 60.5796 208.002 60.2703C207.87 59.9568 207.922 59.5979 208.14 59.3381L232.276 30.5939C232.432 30.4083 232.659 30.2927 232.904 30.2762C233.132 30.2845 233.385 30.3464 233.564 30.5113L268.519 62.7863C268.796 63.0461 268.883 63.4462 268.735 63.7968C268.595 64.1267 268.27 64.3413 267.914 64.3413ZM210.651 59.1277L265.469 62.4027L233.041 32.4623L210.651 59.1277Z" fill="#FFA234"/>
<path d="M208.822 60.8106C208.652 60.8106 208.479 60.7611 208.327 60.658L170.336 35.1927C170.017 34.9783 169.869 34.5864 169.972 34.2111C170.073 33.8399 170.402 33.5759 170.784 33.5553L232.911 30.2762C233.327 30.301 233.6 30.4536 233.757 30.7712C233.915 31.0929 233.87 31.4765 233.642 31.7488L209.505 60.493C209.33 60.6992 209.077 60.8106 208.822 60.8106ZM173.559 35.201L208.654 58.7277L230.951 32.1735L173.559 35.201Z" fill="#FFA234"/>
<path d="M345.002 129.897C344.87 129.897 344.737 129.869 344.614 129.807L296.944 106.66C296.711 106.548 296.539 106.338 296.471 106.09C296.403 105.839 296.448 105.575 296.59 105.356L316.586 75.3827C316.763 75.1229 317.088 74.9744 317.376 74.9868C317.691 75.0074 317.975 75.1889 318.121 75.4694L345.795 128.59C345.971 128.932 345.912 129.349 345.642 129.625C345.472 129.803 345.238 129.897 345.002 129.897ZM298.645 105.496L342.962 127.019L317.234 77.6348L298.645 105.496Z" fill="#FFA234"/>
<path d="M297.332 106.75C297.04 106.75 296.766 106.606 296.6 106.367L267.182 63.9578C266.97 63.6525 266.968 63.2442 267.18 62.939C267.389 62.6296 267.768 62.4688 268.132 62.5801L317.546 75.0158C317.828 75.0859 318.056 75.288 318.161 75.5602C318.266 75.8325 318.231 76.1377 318.071 76.3811L298.075 106.354C297.91 106.598 297.634 106.746 297.34 106.75L297.332 106.75ZM270.006 64.894L297.318 104.267L315.882 76.4388L270.006 64.894Z" fill="#FFA234"/>
<path d="M148.386 70.6603C148.09 70.6603 147.808 70.5117 147.642 70.256C147.448 69.9632 147.444 69.5837 147.633 69.2826L170.079 33.9679C170.209 33.7658 170.414 33.6256 170.649 33.576C170.879 33.5307 171.126 33.5719 171.327 33.708L209.318 59.1733C209.623 59.3754 209.773 59.7466 209.695 60.1054C209.616 60.4643 209.329 60.7406 208.967 60.7984L148.53 70.6479C148.481 70.6561 148.433 70.6603 148.386 70.6603ZM171.095 35.7043L150.208 68.5608L206.443 59.396L171.095 35.7043Z" fill="#FFA234"/>
<path d="M94.0208 88.5813C93.7617 88.5813 93.5111 88.4701 93.3383 88.2638C93.1038 87.9833 93.0627 87.5874 93.2334 87.2657L116.308 43.8873C116.434 43.6523 116.658 43.4832 116.919 43.4295C117.18 43.38 117.45 43.446 117.658 43.6151L148.947 69.0721C149.203 69.2783 149.322 69.6042 149.264 69.9259C149.205 70.2476 148.974 70.5116 148.666 70.6148L94.3009 88.536C94.2083 88.5649 94.1134 88.5813 94.0208 88.5813ZM117.374 45.6857L95.8558 86.1397L146.553 69.4269L117.374 45.6857Z" fill="#FFA234"/>
<path d="M148.386 70.6603C148.182 70.6603 147.983 70.59 147.824 70.458L116.535 45.001C116.263 44.7824 116.146 44.4236 116.232 44.0854C116.319 43.7472 116.592 43.4914 116.936 43.4296L170.671 33.5719C171.012 33.4935 171.372 33.6543 171.572 33.9513C171.769 34.2482 171.776 34.6318 171.584 34.9329L149.139 70.2477C149.001 70.4621 148.781 70.6066 148.528 70.6478C148.48 70.6561 148.433 70.6603 148.386 70.6603ZM119.163 44.8402L148.172 68.437L168.978 35.7001L119.163 44.8402Z" fill="#FFA234"/>
<path d="M350.175 191.399C349.926 191.399 349.679 191.292 349.507 191.098L318.289 155.771C317.976 155.416 317.993 154.88 318.326 154.546L344.371 128.371C344.616 128.12 344.98 128.033 345.309 128.161C345.636 128.281 345.862 128.582 345.891 128.928L351.064 190.43C351.097 190.814 350.881 191.177 350.527 191.325C350.414 191.374 350.294 191.399 350.175 191.399ZM320.181 155.214L349.06 187.893L344.274 130.999L320.181 155.214Z" fill="#FFA234"/>
<path d="M318.957 156.072C318.901 156.072 318.848 156.068 318.792 156.056C318.502 156.002 318.26 155.808 318.14 155.536L296.515 106.214C296.365 105.872 296.443 105.472 296.713 105.212C296.982 104.952 297.383 104.882 297.721 105.051L345.391 128.198C345.65 128.322 345.833 128.569 345.882 128.854C345.929 129.139 345.837 129.431 345.633 129.634L319.588 155.808C319.42 155.977 319.191 156.072 318.957 156.072ZM299.123 107.72L319.249 153.618L343.484 129.258L299.123 107.72Z" fill="#FFA234"/>
<path d="M41.6963 187.324C41.5852 187.324 41.473 187.304 41.366 187.258C41.002 187.114 40.7758 186.747 40.8087 186.355L45.8292 124.47C45.8539 124.16 46.039 123.884 46.3167 123.744C46.5902 123.608 46.9214 123.616 47.1888 123.785L77.1211 142.445C77.3391 142.581 77.4873 142.803 77.5305 143.055C77.5737 143.307 77.5037 143.567 77.3433 143.769L42.3904 186.994C42.2176 187.209 41.9596 187.324 41.6963 187.324ZM47.4891 126.078L42.8202 183.62L75.3194 143.426L47.4891 126.078Z" fill="#FFA234"/>
<path d="M76.6495 144.098C76.485 144.098 76.3225 144.053 76.1785 143.962L46.2461 125.303C45.9973 125.15 45.841 124.882 45.8266 124.589C45.8101 124.296 45.9397 124.016 46.17 123.838L93.4739 86.981C93.7803 86.7376 94.2082 86.7252 94.5312 86.9521C94.8499 87.1748 94.9898 87.579 94.8725 87.9543L77.501 143.471C77.4187 143.735 77.2192 143.946 76.96 144.041C76.8592 144.078 76.7544 144.098 76.6495 144.098ZM48.2762 124.461L76.1435 141.834L92.316 90.1487L48.2762 124.461Z" fill="#FFA234"/>
<path d="M170.066 346.917H170.021L119.463 344.393C119.173 344.376 118.908 344.219 118.752 343.972C118.597 343.724 118.573 343.419 118.686 343.147L135.377 303.58C135.5 303.291 135.765 303.089 136.076 303.043C136.384 303.015 136.697 303.122 136.894 303.369L170.761 345.461C170.982 345.733 171.021 346.112 170.862 346.426C170.708 346.727 170.401 346.917 170.066 346.917ZM120.827 342.668L168.121 345.028L136.44 305.654L120.827 342.668Z" fill="#FFA234"/>
<path d="M119.509 344.393C119.227 344.393 118.957 344.257 118.789 344.026L83.4738 295.616C83.2599 295.323 83.2434 294.927 83.4347 294.617C83.628 294.308 83.9777 294.151 84.3438 294.205L136.35 303.048C136.617 303.093 136.851 303.262 136.981 303.502C137.113 303.741 137.127 304.026 137.022 304.281L120.331 343.848C120.206 344.141 119.93 344.348 119.611 344.385C119.577 344.389 119.544 344.393 119.509 344.393ZM86.2114 296.337L119.299 341.695L134.939 304.624L86.2114 296.337Z" fill="#FFA234"/>
<path d="M270.588 341.604C270.541 341.604 270.496 341.6 270.448 341.592C270.13 341.543 269.862 341.324 269.751 341.019L254.735 300.259C254.638 300 254.669 299.711 254.815 299.476C254.963 299.241 255.21 299.088 255.485 299.059L306.668 294.019C307.01 293.957 307.366 294.163 307.538 294.481C307.709 294.799 307.676 295.182 307.454 295.467L271.287 341.266C271.117 341.481 270.858 341.604 270.588 341.604ZM256.81 300.726L270.874 338.907L304.751 296.007L256.81 300.726Z" fill="#FFA234"/>
<path d="M270.588 341.604C270.565 341.604 270.545 341.605 270.522 341.6L222.451 338.066C222.113 338.041 221.817 337.827 221.69 337.509C221.562 337.195 221.624 336.832 221.85 336.581L254.905 299.356C255.113 299.121 255.425 299.006 255.738 299.072C256.044 299.13 256.299 299.344 256.408 299.641L271.425 340.4C271.53 340.685 271.482 341.002 271.301 341.246C271.131 341.473 270.868 341.604 270.588 341.604ZM224.386 336.416L269.269 339.716L255.248 301.658L224.386 336.416Z" fill="#FFA234"/>
<path d="M81.8223 205.588C81.6968 205.588 81.5714 205.563 81.4542 205.51L41.3284 187.246C41.0754 187.13 40.8924 186.904 40.8287 186.635C40.7649 186.363 40.8286 186.083 41.0034 185.864L75.9564 142.638C76.1868 142.358 76.5631 142.23 76.9128 142.35C77.2604 142.457 77.5072 142.766 77.5381 143.129L82.7109 204.619C82.7376 204.932 82.5957 205.241 82.3365 205.423C82.1843 205.534 82.0033 205.588 81.8223 205.588ZM43.1178 186.095L80.8042 203.249L75.9461 145.493L43.1178 186.095Z" fill="#FFA234"/>
<path d="M56.6534 243.744C56.6061 243.744 56.5575 243.74 56.5102 243.732C56.1626 243.674 55.8829 243.418 55.7924 243.08L40.8355 186.66C40.747 186.326 40.8581 185.971 41.1214 185.744C41.3846 185.526 41.7549 185.468 42.0654 185.612L82.1912 203.876C82.4298 203.987 82.6087 204.194 82.6807 204.445C82.7527 204.697 82.7115 204.969 82.5676 205.188L57.3987 243.344C57.2321 243.596 56.9496 243.744 56.6534 243.744ZM43.0445 188.025L57.0059 240.692L80.5025 205.072L43.0445 188.025Z" fill="#FFA234"/>
<path d="M333.583 243.744C333.303 243.744 333.038 243.612 332.868 243.386L304.982 205.893C304.811 205.662 304.76 205.361 304.846 205.089C304.932 204.817 305.144 204.598 305.416 204.507L349.894 189.655C350.214 189.556 350.562 189.63 350.803 189.869C351.041 190.104 351.128 190.455 351.025 190.776L334.433 243.122C334.332 243.439 334.06 243.674 333.731 243.732C333.682 243.74 333.633 243.744 333.583 243.744ZM307.152 205.815L333.26 240.919L348.793 191.907L307.152 205.815Z" fill="#FFA234"/>
<path d="M305.698 206.252C305.473 206.252 305.255 206.165 305.087 206.009C304.848 205.786 304.751 205.444 304.836 205.126L318.096 154.946C318.18 154.629 318.431 154.381 318.752 154.307C319.079 154.233 319.408 154.34 319.626 154.583L350.844 189.91C351.041 190.137 351.115 190.447 351.037 190.735C350.959 191.028 350.741 191.259 350.457 191.354L305.979 206.207C305.887 206.235 305.792 206.252 305.698 206.252ZM319.394 157.021L306.983 203.984L348.612 190.084L319.394 157.021Z" fill="#FFA234"/>
<path d="M297.332 106.75C297.301 106.75 297.271 106.75 297.242 106.746L243.926 101.236C243.615 101.203 243.346 101.013 243.212 100.732C243.076 100.448 243.099 100.118 243.268 99.858L267.165 62.9594C267.328 62.7078 267.604 62.5552 267.9 62.5511C268.256 62.5263 268.478 62.6913 268.646 62.9347L298.065 105.344C298.264 105.632 298.278 106.008 298.102 106.309C297.939 106.585 297.647 106.75 297.332 106.75ZM245.559 99.6064L295.489 104.766L267.939 65.0506L245.559 99.6064Z" fill="#FFA234"/>
<path d="M244.017 101.24C243.759 101.24 243.515 101.128 243.344 100.934L208.15 60.5051C207.914 60.2329 207.862 59.8452 208.023 59.5193C208.181 59.2017 208.461 59.0079 208.876 59.0203L267.968 62.551C268.285 62.5716 268.568 62.7572 268.71 63.0417C268.854 63.3263 268.836 63.6646 268.663 63.9327L244.765 100.831C244.613 101.066 244.358 101.219 244.08 101.236C244.058 101.24 244.037 101.24 244.017 101.24ZM210.896 60.9341L243.912 98.8639L266.331 64.2462L210.896 60.9341Z" fill="#FFA234"/>
<path d="M222.517 338.07H222.509C222.252 338.065 222.009 337.954 221.84 337.756L192.755 303.819C192.533 303.563 192.478 303.2 192.611 302.887C192.745 302.573 193.045 302.363 193.385 302.342L255.524 299.055C255.859 299.047 256.219 299.241 256.376 299.562C256.532 299.888 256.476 300.276 256.238 300.544L223.183 337.768C223.015 337.962 222.772 338.07 222.517 338.07ZM195.291 304.033L222.529 335.818L253.484 300.957L195.291 304.033Z" fill="#FFA234"/>
<path d="M170.066 346.917C169.78 346.917 169.509 346.78 169.339 346.541C169.141 346.261 169.121 345.894 169.283 345.593L192.648 302.808C192.79 302.548 193.047 302.379 193.339 302.346C193.617 302.293 193.917 302.429 194.109 302.656L223.194 336.593C223.403 336.836 223.465 337.174 223.356 337.479C223.247 337.781 222.982 338.003 222.665 338.057L170.215 346.904C170.166 346.912 170.116 346.917 170.066 346.917ZM193.594 304.8L171.733 344.834L220.81 336.556L193.594 304.8Z" fill="#FFA234"/>
<path d="M170.066 346.917C169.797 346.917 169.542 346.797 169.372 346.583L135.505 304.491C135.291 304.227 135.248 303.86 135.392 303.551C135.538 303.238 135.848 303.04 136.19 303.035L193.422 302.343C193.722 302.235 194.032 302.503 194.197 302.776C194.359 303.048 194.368 303.39 194.215 303.667L170.85 346.451C170.706 346.715 170.443 346.888 170.147 346.913C170.12 346.917 170.093 346.917 170.066 346.917ZM138.049 304.805L169.925 344.422L191.916 304.149L138.049 304.805Z" fill="#FFA234"/>
<path d="M136.2 304.826C136.151 304.826 136.101 304.822 136.05 304.813L84.0442 295.97C83.7604 295.921 83.5176 295.739 83.3901 295.475C83.2646 295.215 83.2729 294.91 83.4128 294.659L105.439 254.436C105.591 254.155 105.881 253.978 106.2 253.97C106.512 253.961 106.817 254.126 106.981 254.398L136.961 303.465C137.144 303.762 137.136 304.141 136.938 304.434C136.772 304.681 136.494 304.826 136.2 304.826ZM85.5806 294.415L134.413 302.718L106.264 256.646L85.5806 294.415Z" fill="#FFA234"/>
<path d="M84.1942 295.982L84.1878 295.982C83.8587 295.978 83.5585 295.797 83.4042 295.504L55.8638 243.266C55.7013 242.957 55.7343 242.577 55.9482 242.301C56.1662 242.02 56.5241 241.901 56.8635 241.979L106.43 253.994C106.699 254.06 106.923 254.25 107.037 254.501C107.148 254.757 107.135 255.05 107.002 255.293L84.9755 295.516C84.8192 295.805 84.5192 295.982 84.1942 295.982ZM58.367 244.186L84.2084 293.202L104.877 255.458L58.367 244.186Z" fill="#FFA234"/>
<path d="M106.22 255.759C106.15 255.759 106.08 255.751 106.01 255.735L56.4435 243.72C56.1618 243.65 55.9294 243.448 55.8224 243.175C55.7155 242.907 55.7484 242.598 55.9088 242.354L81.0777 204.198C81.2566 203.93 81.561 203.748 81.8798 203.802C82.2007 203.823 82.4845 204.012 82.6244 204.301L107.022 254.473C107.174 254.782 107.131 255.153 106.915 255.425C106.744 255.64 106.487 255.759 106.22 255.759ZM58.0992 242.28L104.587 253.549L81.7049 206.491L58.0992 242.28Z" fill="#FFA234"/>
<path d="M306.754 295.805C306.434 295.805 306.138 295.631 305.979 295.351L283.242 255.305C283.104 255.062 283.087 254.765 283.198 254.509C283.309 254.249 283.536 254.06 283.807 253.994L333.374 241.979C333.711 241.892 334.067 242.02 334.285 242.296C334.501 242.573 334.536 242.948 334.375 243.262L307.547 295.322C307.396 295.611 307.1 295.796 306.773 295.805L306.754 295.805ZM285.379 255.454L306.718 293.033L331.893 244.177L285.379 255.454Z" fill="#FFA234"/>
<path d="M255.571 300.846C255.262 300.846 254.974 300.685 254.812 300.421C254.633 300.128 254.635 299.761 254.816 299.472L283.261 254.386C283.428 254.122 283.71 253.961 284.037 253.97C284.349 253.978 284.637 254.147 284.791 254.423L307.529 294.469C307.679 294.733 307.685 295.051 307.546 295.323C307.408 295.591 307.143 295.772 306.84 295.801L255.657 300.841C255.628 300.846 255.6 300.846 255.571 300.846ZM283.975 256.601L257.301 298.882L305.298 294.155L283.975 256.601Z" fill="#FFA234"/>
<path d="M284.016 255.759C283.755 255.759 283.504 255.644 283.331 255.437C283.113 255.178 283.062 254.815 283.2 254.505L304.88 204.998C305.008 204.705 305.279 204.503 305.596 204.466C305.921 204.466 306.223 204.569 306.412 204.82L334.298 242.313C334.477 242.556 334.525 242.87 334.422 243.154C334.321 243.435 334.084 243.649 333.792 243.719L284.226 255.734C284.156 255.751 284.086 255.759 284.016 255.759ZM305.898 207.122L285.557 253.569L332.058 242.296L305.898 207.122Z" fill="#FFA234"/>
<path d="M76.6495 144.098C76.4459 144.098 76.2449 144.028 76.0824 143.892C75.8026 143.661 75.6895 143.282 75.7985 142.935L93.1701 87.4184C93.2565 87.142 93.4745 86.9234 93.7501 86.8327C94.0299 86.7378 94.3302 86.7956 94.5625 86.9729L130.034 114.018C130.274 114.204 130.406 114.496 130.383 114.802C130.359 115.107 130.182 115.375 129.915 115.519L77.0717 143.991C76.94 144.061 76.7935 144.098 76.6495 144.098ZM94.4926 89.1713L78.1577 141.376L127.847 114.604L94.4926 89.1713Z" fill="#FFA234"/>
<path d="M129.493 115.626C129.3 115.626 129.111 115.565 128.952 115.445L93.4809 88.4001C93.2176 88.198 93.086 87.868 93.1415 87.538C93.197 87.2122 93.4274 86.94 93.7421 86.8368L148.107 68.9155C148.438 68.8083 148.804 68.899 149.043 69.1589C149.279 69.4146 149.345 69.7899 149.209 70.1116L130.316 115.078C130.209 115.334 129.989 115.523 129.723 115.598C129.647 115.618 129.569 115.626 129.493 115.626ZM95.9141 88.0041L129.117 113.321L146.803 71.2294L95.9141 88.0041Z" fill="#FFA234"/>
<path d="M186.363 104.288C186.061 104.288 185.779 104.135 185.612 103.88C185.439 103.607 185.423 103.265 185.571 102.98L208.031 59.5031C208.167 59.2392 208.424 59.0618 208.716 59.0288C209.01 58.9917 209.302 59.1031 209.496 59.3258L244.689 99.755C244.913 100.015 244.971 100.378 244.839 100.695C244.706 101.009 244.405 101.219 244.064 101.24L186.41 104.288H186.363ZM209.012 61.4953L187.873 102.415L242.139 99.5488L209.012 61.4953Z" fill="#FFA234"/>
<path d="M186.363 104.288C186.147 104.288 185.937 104.209 185.772 104.065L147.796 70.4373C147.537 70.2063 147.434 69.8475 147.529 69.5176C147.625 69.1835 147.903 68.936 148.242 68.8824L208.679 59.0329C209.028 58.9751 209.347 59.1154 209.545 59.3917C209.744 59.6639 209.771 60.0269 209.615 60.328L187.154 103.805C187.029 104.049 186.797 104.222 186.527 104.271C186.472 104.284 186.416 104.288 186.363 104.288ZM150.389 70.3466L186.095 101.962L207.214 61.0827L150.389 70.3466Z" fill="#FFA234"/>
<path d="M129.493 115.626C129.228 115.626 128.972 115.507 128.802 115.296C128.592 115.04 128.543 114.69 128.67 114.385L147.564 69.4184C147.675 69.1503 147.907 68.9564 148.187 68.8946C148.467 68.8286 148.763 68.9028 148.977 69.0926L186.953 102.72C187.208 102.947 187.313 103.298 187.225 103.628C187.136 103.954 186.869 104.205 186.538 104.271L129.668 115.61C129.608 115.622 129.551 115.626 129.493 115.626ZM148.726 71.2579L130.968 113.527L184.421 102.869L148.726 71.2579Z" fill="#FFA234"/>
<path d="M305.698 206.252C305.393 206.252 305.105 206.095 304.94 205.831L272.287 153.511C272.112 153.23 272.106 152.871 272.272 152.587C272.439 152.298 272.768 152.158 273.085 152.141L318.998 154.282C319.268 154.294 319.516 154.43 319.677 154.649C319.835 154.868 319.889 155.144 319.819 155.408L306.559 205.588C306.468 205.93 306.182 206.19 305.831 206.239C305.785 206.248 305.741 206.252 305.698 206.252ZM274.703 154.01L305.362 203.134L317.811 156.018L274.703 154.01Z" fill="#FFA234"/>
<path d="M318.957 156.072L318.916 156.072L273.003 153.931C272.698 153.915 272.423 153.75 272.271 153.486C272.118 153.222 272.112 152.896 272.25 152.624L296.538 105.443C296.697 105.137 296.946 104.902 297.361 104.96C297.705 104.973 298.011 105.179 298.149 105.496L319.774 154.818C319.899 155.099 319.869 155.429 319.694 155.684C319.527 155.928 319.251 156.072 318.957 156.072ZM274.475 152.207L317.561 154.216L297.269 107.93L274.475 152.207Z" fill="#FFA234"/>
<path d="M273.044 153.931C272.719 153.931 272.421 153.754 272.262 153.469L243.235 100.778C243.075 100.485 243.089 100.13 243.272 99.8496C243.457 99.5733 243.794 99.4 244.107 99.4537L297.423 104.964C297.717 104.997 297.976 105.17 298.118 105.43C298.258 105.69 298.26 106.004 298.126 106.263L273.838 153.449C273.684 153.746 273.313 153.869 273.044 153.931ZM245.623 101.409L273.017 151.139L295.94 106.61L245.623 101.409Z" fill="#FFA234"/>
<path d="M81.8223 205.588C81.7298 205.588 81.6351 205.572 81.5446 205.543C81.2031 205.431 80.9625 205.126 80.9337 204.767L75.7609 143.278C75.7321 142.948 75.8904 142.626 76.1722 142.449C76.454 142.268 76.8119 142.263 77.0978 142.428L116.066 165.151C116.296 165.287 116.454 165.518 116.498 165.782C116.541 166.046 116.465 166.314 116.29 166.516L82.4948 205.283C82.322 205.481 82.0753 205.588 81.8223 205.588ZM77.6819 144.841L82.5339 202.515L114.233 166.153L77.6819 144.841Z" fill="#FFA234"/>
<path d="M115.618 166.821C115.462 166.821 115.307 166.78 115.17 166.701L76.2019 143.979C75.9221 143.814 75.7535 143.513 75.7576 143.187C75.7638 142.865 75.9427 142.568 76.2286 142.416L129.071 113.944C129.386 113.779 129.773 113.808 130.048 114.03C130.328 114.253 130.447 114.62 130.355 114.967L116.48 166.161C116.406 166.429 116.212 166.648 115.957 166.755C115.848 166.8 115.733 166.821 115.618 166.821ZM78.4788 143.232L115.063 164.565L128.088 116.505L78.4788 143.232Z" fill="#FFA234"/>
<path d="M136.2 304.826C135.873 304.826 135.572 304.648 135.416 304.359C135.258 304.067 135.274 303.712 135.455 303.435L163.74 260.688C163.905 260.441 164.18 260.292 164.476 260.288H164.485C164.779 260.288 165.052 260.433 165.219 260.676L194.166 302.73C194.353 303.002 194.376 303.353 194.224 303.65C194.073 303.943 193.773 304.128 193.442 304.133L136.21 304.826L136.2 304.826ZM164.499 262.779L137.876 303.015L191.745 302.363L164.499 262.779Z" fill="#FFA234"/>
<path d="M136.2 304.826C135.904 304.805 135.599 304.665 135.439 304.396L105.459 255.33C105.282 255.042 105.284 254.675 105.465 254.386C105.646 254.101 105.961 253.932 106.317 253.973L164.581 260.292C164.89 260.325 165.159 260.519 165.293 260.804C165.424 261.084 165.4 261.418 165.229 261.678L136.944 304.425C136.778 304.677 136.498 304.826 136.2 304.826ZM107.929 255.949L136.23 302.268L162.929 261.913L107.929 255.949Z" fill="#FFA234"/>
<path d="M193.432 304.133H193.409C193.123 304.124 192.86 303.98 192.698 303.745L163.75 261.691C163.561 261.418 163.541 261.064 163.695 260.767C163.849 260.474 164.153 260.288 164.485 260.288H225.748C226.087 260.288 226.398 260.482 226.548 260.787C226.698 261.092 226.663 261.46 226.456 261.728L194.139 303.782C193.969 304.005 193.708 304.133 193.432 304.133ZM166.186 262.078L193.471 301.72L223.934 262.078H166.186Z" fill="#FFA234"/>
<path d="M193.432 304.133C193.101 304.133 192.796 303.947 192.642 303.654C192.48 303.345 192.512 302.97 192.724 302.693L225.04 260.639C225.376 260.194 226.112 260.189 226.456 260.639L256.279 299.402C256.48 299.666 256.522 300.021 256.382 300.326C256.244 300.627 255.95 300.825 255.619 300.846L193.479 304.133L193.432 304.133ZM225.748 262.648L195.324 302.24L253.825 299.146L225.748 262.648Z" fill="#FFA234"/>
<path d="M255.571 300.846C255.295 300.846 255.035 300.718 254.864 300.499L225.041 261.728C224.845 261.472 224.8 261.13 224.927 260.833C225.053 260.536 225.33 260.33 225.651 260.293L283.92 253.974C284.263 253.916 284.591 254.097 284.774 254.39C284.955 254.683 284.955 255.054 284.772 255.343L256.326 300.429C256.17 300.676 255.905 300.829 255.613 300.846H255.571ZM227.426 261.901L255.499 298.391L282.275 255.954L227.426 261.901Z" fill="#FFA234"/>
<path d="M164.485 262.078C164.454 262.078 164.421 262.078 164.388 262.074L106.124 255.755C105.803 255.718 105.525 255.512 105.398 255.211C105.272 254.914 105.318 254.572 105.517 254.312L137.169 213.672C137.352 213.441 137.623 213.272 137.938 213.334C138.234 213.355 138.502 213.524 138.648 213.784L165.26 260.742C165.427 261.035 165.415 261.394 165.232 261.674C165.065 261.93 164.783 262.078 164.485 262.078ZM107.911 254.147L162.848 260.107L137.755 215.829L107.911 254.147Z" fill="#FFA234"/>
<path d="M106.22 255.759C106.189 255.759 106.158 255.759 106.128 255.755C105.821 255.722 105.554 255.533 105.418 255.256L81.0204 205.085C80.8744 204.784 80.9073 204.425 81.1089 204.157C81.3084 203.893 81.6354 203.753 81.9728 203.81L138.022 213.342C138.331 213.396 138.59 213.606 138.705 213.903C138.818 214.196 138.769 214.526 138.575 214.778L106.924 255.417C106.753 255.632 106.493 255.759 106.22 255.759ZM83.3857 205.864L106.397 253.186L136.247 214.856L83.3857 205.864Z" fill="#FFA234"/>
<path d="M137.872 215.12C137.822 215.12 137.773 215.116 137.722 215.108L81.6724 205.576C81.3556 205.522 81.0903 205.299 80.9813 204.994C80.8743 204.689 80.9381 204.346 81.1499 204.103L114.945 165.336C115.144 165.109 115.43 165.014 115.745 165.039C116.043 165.084 116.3 165.274 116.428 165.55L138.682 213.849C138.82 214.151 138.781 214.505 138.581 214.769C138.411 214.992 138.147 215.12 137.872 215.12ZM83.544 204.078L136.352 213.058L115.385 167.555L83.544 204.078Z" fill="#FFA234"/>
<path d="M253.204 210.447C252.928 210.447 252.667 210.319 252.496 210.096C252.313 209.857 252.262 209.539 252.362 209.255L272.202 152.74C272.315 152.414 272.605 152.187 272.945 152.146C273.286 152.125 273.619 152.269 273.8 152.562L306.454 204.883C306.618 205.147 306.635 205.481 306.495 205.757C306.353 206.038 306.079 206.223 305.767 206.248L253.274 210.443C253.251 210.447 253.226 210.447 253.204 210.447ZM273.27 155.086L254.501 208.549L304.16 204.582L273.27 155.086Z" fill="#FFA234"/>
<path d="M225.748 262.078C225.454 262.078 225.176 261.934 225.01 261.683C224.825 261.41 224.806 261.056 224.96 260.763L252.416 209.131C252.565 208.855 252.844 208.677 253.155 208.657C253.461 208.632 253.766 208.785 253.941 209.049L284.753 254.361C284.93 254.621 284.959 254.955 284.827 255.24C284.696 255.525 284.424 255.718 284.114 255.756L225.845 262.074C225.812 262.079 225.779 262.078 225.748 262.078ZM253.297 211.276L227.33 260.111L282.441 254.135L253.297 211.276Z" fill="#FFA234"/>
<path d="M284.016 255.759C283.722 255.759 283.447 255.615 283.28 255.367L252.468 210.055C252.287 209.791 252.262 209.452 252.4 209.164C252.535 208.879 252.815 208.685 253.134 208.66L305.627 204.466C305.917 204.408 306.242 204.581 306.425 204.837C306.606 205.093 306.641 205.427 306.514 205.715L284.833 255.223C284.704 255.52 284.422 255.726 284.099 255.755C284.072 255.759 284.043 255.759 284.016 255.759ZM254.808 210.323L283.846 253.025L304.28 206.367L254.808 210.323Z" fill="#FFA234"/>
<path d="M253.204 210.447C252.887 210.447 252.593 210.278 252.433 210.001L220.407 154.666C220.248 154.393 220.246 154.055 220.401 153.779C220.555 153.503 220.843 153.329 221.158 153.321L273.023 152.141C273.258 152.096 273.593 152.273 273.766 152.513C273.939 152.748 273.984 153.057 273.885 153.333L254.045 209.849C253.93 210.179 253.634 210.41 253.289 210.443C253.26 210.447 253.23 210.447 253.204 210.447ZM222.708 155.078L253.005 207.423L271.773 153.96L222.708 155.078Z" fill="#FFA234"/>
<path d="M221.178 155.111C220.882 155.111 220.606 154.963 220.439 154.719C220.269 154.468 220.238 154.146 220.357 153.866L243.196 99.9943C243.329 99.6808 243.63 99.4705 243.971 99.4498C244.335 99.4663 244.631 99.6148 244.798 99.9118L273.825 152.603C273.975 152.88 273.973 153.21 273.817 153.482C273.663 153.754 273.377 153.923 273.064 153.932L221.198 155.111L221.178 155.111ZM244.121 102.387L222.539 153.292L271.55 152.174L244.121 102.387Z" fill="#FFA234"/>
<path d="M221.178 155.111C220.886 155.111 220.61 154.967 220.441 154.723L185.626 103.9C185.443 103.632 185.418 103.286 185.562 102.997C185.704 102.708 185.992 102.514 186.315 102.498L243.969 99.4498C244.275 99.454 244.571 99.5777 244.746 99.8334C244.923 100.085 244.958 100.411 244.837 100.695L221.998 154.567C221.871 154.868 221.591 155.074 221.266 155.107C221.237 155.111 221.207 155.111 221.178 155.111ZM188 104.201L220.992 152.364L242.636 101.314L188 104.201Z" fill="#FFA234"/>
<path d="M137.872 215.12L137.847 215.12C137.508 215.111 137.203 214.909 137.062 214.6L114.807 166.301C114.69 166.045 114.698 165.744 114.834 165.497C114.97 165.249 115.214 165.08 115.494 165.039L167.208 157.742C167.539 157.705 167.868 157.841 168.061 158.118C168.255 158.39 168.277 158.753 168.119 159.05L138.66 214.645C138.505 214.938 138.201 215.12 137.872 215.12ZM116.932 166.643L137.928 212.212L165.721 159.759L116.932 166.643Z" fill="#FFA234"/>
<path d="M167.331 159.524C167.058 159.524 166.797 159.396 166.626 159.178C166.441 158.939 166.389 158.621 166.488 158.336L185.52 103.1C185.629 102.782 185.908 102.551 186.244 102.506C186.571 102.477 186.908 102.609 187.099 102.886L221.914 153.709C222.093 153.973 222.12 154.311 221.984 154.6C221.846 154.888 221.569 155.082 221.25 155.107L167.403 159.52C167.381 159.524 167.356 159.524 167.331 159.524ZM186.628 105.36L168.621 157.627L219.572 153.449L186.628 105.36Z" fill="#FFA234"/>
<path d="M167.331 159.524C167.074 159.524 166.828 159.413 166.657 159.215L128.818 115.317C128.611 115.074 128.545 114.744 128.65 114.443C128.752 114.138 129.007 113.915 129.318 113.853L186.188 102.515C186.511 102.453 186.826 102.568 187.035 102.803C187.245 103.047 187.311 103.381 187.206 103.686L168.175 158.922C168.07 159.223 167.813 159.446 167.5 159.508C167.445 159.52 167.387 159.524 167.331 159.524ZM131.171 115.309L166.994 156.868L185.012 104.573L131.171 115.309Z" fill="#FFA234"/>
<path d="M115.618 166.821C115.363 166.821 115.12 166.713 114.95 166.515C114.75 166.293 114.678 165.979 114.756 165.69L128.631 114.496C128.718 114.178 128.973 113.931 129.296 113.857C129.612 113.791 129.954 113.898 130.168 114.145L168.006 158.044C168.22 158.291 168.282 158.637 168.167 158.943C168.052 159.252 167.78 159.471 167.455 159.516L115.741 166.812C115.7 166.817 115.659 166.821 115.618 166.821ZM129.915 116.587L116.834 164.849L165.585 157.973L129.915 116.587Z" fill="#FFA234"/>
<path d="M137.872 215.12C137.563 215.12 137.278 214.959 137.113 214.695C136.947 214.427 136.934 214.085 137.085 213.804L166.544 158.209C166.698 157.916 167.002 157.734 167.331 157.734C167.663 157.734 167.969 157.92 168.121 158.213L196.34 212.191C196.484 212.468 196.476 212.794 196.32 213.062C196.166 213.326 195.884 213.495 195.575 213.503L137.897 215.12L137.872 215.12ZM167.325 160.547L139.38 213.288L194.096 211.754L167.325 160.547Z" fill="#FFA234"/>
<path d="M195.55 213.503C195.219 213.503 194.914 213.317 194.76 213.024L166.541 159.046C166.401 158.778 166.405 158.46 166.549 158.196C166.693 157.936 166.961 157.763 167.259 157.738L221.106 153.325C221.389 153.284 221.723 153.44 221.904 153.696C222.087 153.952 222.122 154.286 221.994 154.575L196.367 212.967C196.229 213.284 195.922 213.49 195.581 213.503L195.55 213.503ZM168.748 159.413L195.48 210.545L219.758 155.231L168.748 159.413Z" fill="#FFA234"/>
<path d="M195.55 213.503C195.258 213.503 194.983 213.359 194.816 213.115C194.639 212.859 194.609 212.534 194.734 212.249L220.362 153.857C220.497 153.548 220.794 153.342 221.129 153.321C221.437 153.284 221.781 153.474 221.949 153.766L253.976 209.102C254.132 209.37 254.136 209.704 253.99 209.976C253.842 210.253 253.562 210.43 253.252 210.447L195.598 213.503L195.55 213.503ZM221.287 156.188L196.951 211.639L251.701 208.735L221.287 156.188Z" fill="#FFA234"/>
<path d="M164.485 262.078L164.46 262.078C164.149 262.07 163.863 261.897 163.709 261.625L137.096 214.666C136.942 214.394 136.94 214.06 137.094 213.788C137.249 213.511 137.534 213.338 137.847 213.33L195.525 211.713C195.791 211.688 196.163 211.878 196.328 212.167C196.49 212.455 196.48 212.81 196.301 213.09L165.235 261.666C165.071 261.922 164.789 262.078 164.485 262.078ZM139.381 215.079L164.53 259.455L193.888 213.548L139.381 215.079Z" fill="#FFA234"/>
<path d="M225.748 262.078L164.485 262.078C164.158 262.078 163.858 261.901 163.701 261.612C163.545 261.323 163.557 260.977 163.734 260.701L194.8 212.125C194.964 211.87 195.246 211.713 195.551 211.713H195.557C195.863 211.717 196.145 211.874 196.308 212.134L226.505 260.709C226.678 260.985 226.686 261.332 226.528 261.616C226.372 261.901 226.073 262.078 225.748 262.078ZM166.118 260.288H224.14L195.54 214.282L166.118 260.288Z" fill="#FFA234"/>
<path d="M225.748 262.078C225.442 262.078 225.154 261.917 224.991 261.657L194.793 213.082C194.627 212.814 194.612 212.476 194.758 212.195C194.904 211.915 195.188 211.729 195.503 211.713L253.157 208.656C253.473 208.656 253.784 208.801 253.957 209.073C254.129 209.345 254.142 209.687 253.992 209.972L226.536 261.604C226.386 261.884 226.098 262.066 225.779 262.078L225.748 262.078ZM197.107 213.42L225.688 259.393L251.674 210.529L197.107 213.42Z" fill="#FFA234"/>
</svg>
