<svg width="19" height="19" viewBox="0 0 19 19" fill="none" xmlns="http://www.w3.org/2000/svg">
<path d="M1.97991 0.961038C1.69852 0.679654 1.24242 0.679654 0.961038 0.961038M1.97991 0.961038L0.961038 0.961038M1.97991 0.961038L8.67949 7.66061M1.97991 0.961038L8.67949 7.66061M0.961038 0.961038C0.679654 1.24242 0.679654 1.6985 0.961038 1.97988M0.961038 0.961038L0.961038 1.97988M0.961038 1.97988L7.66062 8.67948M0.961038 1.97988L7.66062 8.67948M7.66062 8.67948C7.94201 8.96086 8.39811 8.96086 8.67949 8.67948M7.66062 8.67948L8.67949 8.67948M8.67949 8.67948C8.96087 8.39809 8.96087 7.94199 8.67949 7.66061M8.67949 8.67948V7.66061" fill="black" stroke="black" stroke-width="0.5"/>
<path d="M11.3396 10.3218C11.0583 10.0404 10.6022 10.0404 10.3208 10.3218C10.0394 10.6032 10.0394 11.0593 10.3208 11.3407L10.4976 11.1639L10.3208 11.3407L17.0204 18.0402C17.3017 18.3216 17.7578 18.3216 18.0392 18.0402C18.3206 17.7588 18.3206 17.3027 18.0392 17.0214L11.3396 10.3218Z" fill="black" stroke="black" stroke-width="0.5"/>
<path d="M11.3396 8.68048L18.0392 1.98089C18.3206 1.6995 18.3206 1.24343 18.0392 0.962045C17.7578 0.680661 17.3017 0.680661 17.0204 0.962045L10.3208 7.66161C10.0394 7.943 10.0394 8.3991 10.3208 8.68048C10.6022 8.96187 11.0583 8.96187 11.3396 8.68048L11.1629 8.50371L11.3396 8.68048Z" fill="black" stroke="black" stroke-width="0.5"/>
<path d="M7.66068 10.3218L0.961099 17.0214C0.679715 17.3027 0.679715 17.7588 0.961099 18.0402C1.24248 18.3216 1.69858 18.3216 1.97997 18.0402L8.67955 11.3407C8.96094 11.0593 8.96094 10.6032 8.67955 10.3218C8.39817 10.0404 7.94207 10.0404 7.66068 10.3218Z" fill="black" stroke="black" stroke-width="0.5"/>
</svg>
