<svg width="181" height="290" viewBox="0 0 181 290" fill="none" xmlns="http://www.w3.org/2000/svg">
<path d="M16.0415 3.78815C12.6573 0.403951 7.17234 0.403951 3.78815 3.78815C0.403951 7.17234 0.403951 12.6569 3.78815 16.0411L116.496 128.75C119.881 132.134 125.366 132.134 128.75 128.75C132.134 125.365 132.134 119.88 128.75 116.496L16.0415 3.78815ZM173.503 161.266C170.118 157.882 164.633 157.882 161.249 161.266C157.865 164.65 157.865 170.135 161.249 173.52L273.957 286.228C277.342 289.612 282.827 289.612 286.211 286.228C289.595 282.843 289.595 277.358 286.211 273.974L173.503 161.266ZM173.503 128.767L286.211 16.0586C289.595 12.6744 289.595 7.1898 286.211 3.8056C282.827 0.421407 277.342 0.421408 273.957 3.8056L161.249 116.514C157.865 119.898 157.865 125.383 161.249 128.767C164.633 132.151 170.118 132.151 173.503 128.767ZM116.497 161.266L3.78916 273.974C0.404967 277.358 0.404967 282.843 3.78916 286.228C7.17336 289.612 12.6584 289.612 16.0426 286.228L128.751 173.52C132.135 170.135 132.135 164.65 128.751 161.266C125.367 157.882 119.882 157.882 116.497 161.266Z" stroke="#FFA234" stroke-width="1.5"/>
</svg>
