<svg width="75" height="60" viewBox="0 0 75 60" fill="none" xmlns="http://www.w3.org/2000/svg">
<path d="M60 60H75V45H60V60Z" fill="#FFAF34"/>
<rect width="15" height="15" transform="matrix(1 0 0 -1 60 45)" fill="#FFAF34"/>
<rect width="15" height="15" transform="matrix(1 0 0 -1 60 15)" fill="#FFAF34"/>
<path d="M45 60H60V45H45V60Z" fill="#FFAF34"/>
<rect width="15" height="15" transform="matrix(1 0 0 -1 45 15)" fill="#FFAF34"/>
<rect width="15" height="15" transform="matrix(1 0 0 -1 30 45)" fill="#FFAF34"/>
<rect width="15" height="15" transform="matrix(1 0 0 -1 30 30)" fill="#FFAF34"/>
<rect width="15" height="15" transform="matrix(1 0 0 -1 15 60)" fill="#FFAF34"/>
<rect width="15" height="15" transform="matrix(1 0 0 -1 0 60)" fill="#FFAF34"/>
<rect width="15" height="15" transform="matrix(1 0 0 -1 0 45)" fill="#FFAF34"/>
<rect width="15" height="15" transform="matrix(1 0 0 -1 0 30)" fill="#FFAF34"/>
<rect width="15" height="15" transform="matrix(1 0 0 -1 0 15)" fill="#FFAF34"/>
</svg>
